G75*
G70*
%OFA0B0*%
%FSLAX24Y24*%
%IPPOS*%
%LPD*%
%AMOC8*
5,1,8,0,0,1.08239X$1,22.5*
%
%ADD10C,0.0000*%
D10*
X000619Y001800D02*
X000619Y034871D01*
X000621Y034937D01*
X000626Y035003D01*
X000636Y035069D01*
X000649Y035134D01*
X000665Y035198D01*
X000685Y035261D01*
X000709Y035323D01*
X000736Y035383D01*
X000766Y035442D01*
X000800Y035499D01*
X000837Y035554D01*
X000877Y035607D01*
X000919Y035658D01*
X000965Y035706D01*
X001013Y035752D01*
X001064Y035794D01*
X001117Y035834D01*
X001172Y035871D01*
X001229Y035905D01*
X001288Y035935D01*
X001348Y035962D01*
X001410Y035986D01*
X001473Y036006D01*
X001537Y036022D01*
X001602Y036035D01*
X001668Y036045D01*
X001734Y036050D01*
X001800Y036052D01*
X023060Y036052D01*
X023126Y036050D01*
X023192Y036045D01*
X023258Y036035D01*
X023323Y036022D01*
X023387Y036006D01*
X023450Y035986D01*
X023512Y035962D01*
X023572Y035935D01*
X023631Y035905D01*
X023688Y035871D01*
X023743Y035834D01*
X023796Y035794D01*
X023847Y035752D01*
X023895Y035706D01*
X023941Y035658D01*
X023983Y035607D01*
X024023Y035554D01*
X024060Y035499D01*
X024094Y035442D01*
X024124Y035383D01*
X024151Y035323D01*
X024175Y035261D01*
X024195Y035198D01*
X024211Y035134D01*
X024224Y035069D01*
X024234Y035003D01*
X024239Y034937D01*
X024241Y034871D01*
X024241Y001800D01*
X024239Y001734D01*
X024234Y001668D01*
X024224Y001602D01*
X024211Y001537D01*
X024195Y001473D01*
X024175Y001410D01*
X024151Y001348D01*
X024124Y001288D01*
X024094Y001229D01*
X024060Y001172D01*
X024023Y001117D01*
X023983Y001064D01*
X023941Y001013D01*
X023895Y000965D01*
X023847Y000919D01*
X023796Y000877D01*
X023743Y000837D01*
X023688Y000800D01*
X023631Y000766D01*
X023572Y000736D01*
X023512Y000709D01*
X023450Y000685D01*
X023387Y000665D01*
X023323Y000649D01*
X023258Y000636D01*
X023192Y000626D01*
X023126Y000621D01*
X023060Y000619D01*
X001800Y000619D01*
X001734Y000621D01*
X001668Y000626D01*
X001602Y000636D01*
X001537Y000649D01*
X001473Y000665D01*
X001410Y000685D01*
X001348Y000709D01*
X001288Y000736D01*
X001229Y000766D01*
X001172Y000800D01*
X001117Y000837D01*
X001064Y000877D01*
X001013Y000919D01*
X000965Y000965D01*
X000919Y001013D01*
X000877Y001064D01*
X000837Y001117D01*
X000800Y001172D01*
X000766Y001229D01*
X000736Y001288D01*
X000709Y001348D01*
X000685Y001410D01*
X000665Y001473D01*
X000649Y001537D01*
X000636Y001602D01*
X000626Y001668D01*
X000621Y001734D01*
X000619Y001800D01*
M02*
