G75*
G70*
%OFA0B0*%
%FSLAX24Y24*%
%IPPOS*%
%LPD*%
%AMOC8*
5,1,8,0,0,1.08239X$1,22.5*
%
%ADD10C,0.0000*%
D10*
X000213Y000394D02*
X008087Y000394D01*
X008087Y004331D01*
X005922Y016142D01*
X002378Y016142D01*
X000213Y004331D01*
X000213Y000394D01*
X000804Y001890D02*
X000804Y002363D01*
X000803Y002363D02*
X000805Y002402D01*
X000811Y002440D01*
X000820Y002477D01*
X000833Y002514D01*
X000850Y002549D01*
X000869Y002582D01*
X000892Y002613D01*
X000918Y002642D01*
X000947Y002668D01*
X000978Y002691D01*
X001011Y002710D01*
X001046Y002727D01*
X001083Y002740D01*
X001120Y002749D01*
X001158Y002755D01*
X001197Y002757D01*
X001197Y002756D02*
X001985Y002756D01*
X001984Y002756D02*
X001986Y002783D01*
X001991Y002809D01*
X002000Y002834D01*
X002013Y002858D01*
X002028Y002880D01*
X002047Y002900D01*
X002067Y002917D01*
X002090Y002931D01*
X002115Y002942D01*
X002141Y002949D01*
X002168Y002953D01*
X002194Y002953D01*
X002221Y002949D01*
X002247Y002942D01*
X002272Y002931D01*
X002295Y002917D01*
X002315Y002900D01*
X002334Y002880D01*
X002349Y002858D01*
X002362Y002834D01*
X002371Y002809D01*
X002376Y002783D01*
X002378Y002756D01*
X003559Y002756D01*
X003559Y003544D01*
X003561Y003583D01*
X003567Y003621D01*
X003576Y003658D01*
X003589Y003695D01*
X003606Y003730D01*
X003625Y003763D01*
X003648Y003794D01*
X003674Y003823D01*
X003703Y003849D01*
X003734Y003872D01*
X003767Y003891D01*
X003802Y003908D01*
X003839Y003921D01*
X003876Y003930D01*
X003914Y003936D01*
X003953Y003938D01*
X003953Y003937D02*
X004347Y003937D01*
X004347Y003938D02*
X004386Y003936D01*
X004424Y003930D01*
X004461Y003921D01*
X004498Y003908D01*
X004533Y003891D01*
X004566Y003872D01*
X004597Y003849D01*
X004626Y003823D01*
X004652Y003794D01*
X004675Y003763D01*
X004694Y003730D01*
X004711Y003695D01*
X004724Y003658D01*
X004733Y003621D01*
X004739Y003583D01*
X004741Y003544D01*
X004741Y002756D01*
X005922Y002756D01*
X005924Y002783D01*
X005929Y002809D01*
X005938Y002834D01*
X005951Y002858D01*
X005966Y002880D01*
X005985Y002900D01*
X006005Y002917D01*
X006028Y002931D01*
X006053Y002942D01*
X006079Y002949D01*
X006106Y002953D01*
X006132Y002953D01*
X006159Y002949D01*
X006185Y002942D01*
X006210Y002931D01*
X006233Y002917D01*
X006253Y002900D01*
X006272Y002880D01*
X006287Y002858D01*
X006300Y002834D01*
X006309Y002809D01*
X006314Y002783D01*
X006316Y002756D01*
X006315Y002756D02*
X007103Y002756D01*
X007103Y002757D02*
X007142Y002755D01*
X007180Y002749D01*
X007217Y002740D01*
X007254Y002727D01*
X007289Y002710D01*
X007322Y002691D01*
X007353Y002668D01*
X007382Y002642D01*
X007408Y002613D01*
X007431Y002582D01*
X007450Y002549D01*
X007467Y002514D01*
X007480Y002477D01*
X007489Y002440D01*
X007495Y002402D01*
X007497Y002363D01*
X007496Y002363D02*
X007496Y001890D01*
X007497Y001890D02*
X007495Y001851D01*
X007489Y001813D01*
X007480Y001776D01*
X007467Y001739D01*
X007450Y001704D01*
X007431Y001671D01*
X007408Y001640D01*
X007382Y001611D01*
X007353Y001585D01*
X007322Y001562D01*
X007289Y001543D01*
X007254Y001526D01*
X007217Y001513D01*
X007180Y001504D01*
X007142Y001498D01*
X007103Y001496D01*
X006315Y001496D01*
X006316Y001496D02*
X006314Y001469D01*
X006309Y001443D01*
X006300Y001418D01*
X006287Y001394D01*
X006272Y001372D01*
X006253Y001352D01*
X006233Y001335D01*
X006210Y001321D01*
X006185Y001310D01*
X006159Y001303D01*
X006132Y001299D01*
X006106Y001299D01*
X006079Y001303D01*
X006053Y001310D01*
X006028Y001321D01*
X006005Y001335D01*
X005985Y001352D01*
X005966Y001372D01*
X005951Y001394D01*
X005938Y001418D01*
X005929Y001443D01*
X005924Y001469D01*
X005922Y001496D01*
X002378Y001496D01*
X002376Y001469D01*
X002371Y001443D01*
X002362Y001418D01*
X002349Y001394D01*
X002334Y001372D01*
X002315Y001352D01*
X002295Y001335D01*
X002272Y001321D01*
X002247Y001310D01*
X002221Y001303D01*
X002194Y001299D01*
X002168Y001299D01*
X002141Y001303D01*
X002115Y001310D01*
X002090Y001321D01*
X002067Y001335D01*
X002047Y001352D01*
X002028Y001372D01*
X002013Y001394D01*
X002000Y001418D01*
X001991Y001443D01*
X001986Y001469D01*
X001984Y001496D01*
X001985Y001496D02*
X001197Y001496D01*
X001158Y001498D01*
X001120Y001504D01*
X001083Y001513D01*
X001046Y001526D01*
X001011Y001543D01*
X000978Y001562D01*
X000947Y001585D01*
X000918Y001611D01*
X000892Y001640D01*
X000869Y001671D01*
X000850Y001704D01*
X000833Y001739D01*
X000820Y001776D01*
X000811Y001813D01*
X000805Y001851D01*
X000803Y001890D01*
X003105Y014331D02*
X003107Y014365D01*
X003113Y014399D01*
X003123Y014432D01*
X003136Y014463D01*
X003154Y014493D01*
X003174Y014521D01*
X003198Y014546D01*
X003224Y014568D01*
X003252Y014586D01*
X003283Y014602D01*
X003315Y014614D01*
X003349Y014622D01*
X003383Y014626D01*
X003417Y014626D01*
X003451Y014622D01*
X003485Y014614D01*
X003517Y014602D01*
X003547Y014586D01*
X003576Y014568D01*
X003602Y014546D01*
X003626Y014521D01*
X003646Y014493D01*
X003664Y014463D01*
X003677Y014432D01*
X003687Y014399D01*
X003693Y014365D01*
X003695Y014331D01*
X003693Y014297D01*
X003687Y014263D01*
X003677Y014230D01*
X003664Y014199D01*
X003646Y014169D01*
X003626Y014141D01*
X003602Y014116D01*
X003576Y014094D01*
X003548Y014076D01*
X003517Y014060D01*
X003485Y014048D01*
X003451Y014040D01*
X003417Y014036D01*
X003383Y014036D01*
X003349Y014040D01*
X003315Y014048D01*
X003283Y014060D01*
X003252Y014076D01*
X003224Y014094D01*
X003198Y014116D01*
X003174Y014141D01*
X003154Y014169D01*
X003136Y014199D01*
X003123Y014230D01*
X003113Y014263D01*
X003107Y014297D01*
X003105Y014331D01*
X004605Y014331D02*
X004607Y014365D01*
X004613Y014399D01*
X004623Y014432D01*
X004636Y014463D01*
X004654Y014493D01*
X004674Y014521D01*
X004698Y014546D01*
X004724Y014568D01*
X004752Y014586D01*
X004783Y014602D01*
X004815Y014614D01*
X004849Y014622D01*
X004883Y014626D01*
X004917Y014626D01*
X004951Y014622D01*
X004985Y014614D01*
X005017Y014602D01*
X005047Y014586D01*
X005076Y014568D01*
X005102Y014546D01*
X005126Y014521D01*
X005146Y014493D01*
X005164Y014463D01*
X005177Y014432D01*
X005187Y014399D01*
X005193Y014365D01*
X005195Y014331D01*
X005193Y014297D01*
X005187Y014263D01*
X005177Y014230D01*
X005164Y014199D01*
X005146Y014169D01*
X005126Y014141D01*
X005102Y014116D01*
X005076Y014094D01*
X005048Y014076D01*
X005017Y014060D01*
X004985Y014048D01*
X004951Y014040D01*
X004917Y014036D01*
X004883Y014036D01*
X004849Y014040D01*
X004815Y014048D01*
X004783Y014060D01*
X004752Y014076D01*
X004724Y014094D01*
X004698Y014116D01*
X004674Y014141D01*
X004654Y014169D01*
X004636Y014199D01*
X004623Y014230D01*
X004613Y014263D01*
X004607Y014297D01*
X004605Y014331D01*
M02*
