%
M48
M72
T01C0.0197
T02C0.0320
T03C0.0400
T04C0.0520
T05C0.0551
T06C0.1260
%
T01
X7930Y6744
X9180Y5494
X9180Y2994
X11680Y9244
X13305Y11869
X15930Y11869
X16055Y12494
X16305Y12869
X16930Y14869
X17305Y15494
X16055Y15119
X17680Y13494
X18930Y14869
X19430Y11619
X12555Y17494
X10930Y19369
X9930Y19369
X10430Y22619
X8430Y22619
X5930Y22619
X3930Y22619
X4430Y16619
X5180Y16369
X5180Y15619
X4680Y14744
X6930Y12244
X6930Y11619
X9180Y11494
X9430Y10369
X12430Y21869
X12930Y22619
X14930Y22619
X17430Y22619
X19430Y22619
X19680Y28619
X19430Y29619
X18680Y28619
X17680Y28619
X16180Y28619
X15430Y29619
X15180Y28619
X14180Y28619
X13180Y28619
X11680Y28619
X11430Y29619
X10680Y28619
X9680Y28619
X8680Y28619
X7430Y29619
X7180Y28619
X6180Y28619
X5180Y28619
X4180Y28619
X4555Y30244
X2305Y31994
X1805Y31994
X1305Y31994
X20680Y28619
T02
X20430Y21619
X21430Y21619
X19430Y21619
X18430Y21619
X17430Y21619
X16430Y21619
X15430Y21619
X14430Y21619
X13430Y21619
X11430Y21619
X10430Y21619
X9430Y21619
X8430Y21619
X7430Y21619
X6430Y21619
X5430Y21619
X4430Y21619
X3430Y21619
X10930Y4869
X11930Y4869
X12930Y4869
X13930Y4869
X15930Y4869
X16930Y4869
X17930Y4869
X18930Y4869
X16930Y1869
X20680Y8619
X21680Y9619
X21680Y7619
X11930Y1869
T03
X7930Y2119
X6930Y2119
X5930Y2119
X5930Y4619
X6930Y4619
X7930Y4619
X2430Y8119
X2430Y9119
X2430Y11119
X2430Y12119
X2430Y13119
X2430Y17119
X2430Y18119
X3430Y18119
X3430Y17119
X4930Y31119
X4930Y32119
X5930Y32119
X5930Y31119
X6930Y31119
X6930Y32119
X7930Y32119
X7930Y31119
X8930Y31119
X8930Y32119
X9930Y32119
X9930Y31119
X10930Y31119
X10930Y32119
X11930Y32119
X11930Y31119
X12930Y31119
X12930Y32119
X13930Y32119
X13930Y31119
X14930Y31119
X14930Y32119
X15930Y32119
X15930Y31119
X16930Y31119
X16930Y32119
X17930Y32119
X17930Y31119
X18930Y31119
X18930Y32119
X19930Y32119
X19930Y31119
X22430Y16619
X22430Y15619
X22430Y14619
X22430Y13619
X22430Y12619
T04
X12055Y18869
T05
X11150Y7119
X13709Y7119
T06
X1800Y1800
X23060Y1800
X23060Y34871
X1800Y34871
M30
