G75*
G70*
%OFA0B0*%
%FSLAX24Y24*%
%IPPOS*%
%LPD*%
%AMOC8*
5,1,8,0,0,1.08239X$1,22.5*
%
%ADD10R,0.0740X0.0740*%
%ADD11C,0.0740*%
%ADD12C,0.0850*%
%ADD13R,0.0354X0.0591*%
%ADD14C,0.0520*%
%ADD15OC8,0.0600*%
%ADD16OC8,0.0520*%
%ADD17C,0.0827*%
%ADD18C,0.2300*%
%ADD19C,0.0100*%
%ADD20C,0.0357*%
%ADD21C,0.0240*%
%ADD22C,0.0160*%
%ADD23C,0.0120*%
D10*
X005930Y002119D03*
X005930Y004619D03*
X002430Y009119D03*
X002430Y013119D03*
X002430Y018119D03*
X003430Y018119D03*
X022430Y012619D03*
D11*
X022430Y013619D03*
X022430Y014619D03*
X022430Y015619D03*
X022430Y016619D03*
X007930Y004619D03*
X006930Y004619D03*
X006930Y002119D03*
X007930Y002119D03*
X002430Y008119D03*
X002430Y011119D03*
X002430Y012119D03*
X002430Y017119D03*
X003430Y017119D03*
D12*
X012055Y018869D03*
D13*
X011911Y029619D03*
X012699Y029619D03*
X015911Y029619D03*
X016699Y029619D03*
X019911Y029619D03*
X020699Y029619D03*
X008699Y029619D03*
X007911Y029619D03*
D14*
X007430Y021879D02*
X007430Y021359D01*
X008430Y021359D02*
X008430Y021879D01*
X009430Y021879D02*
X009430Y021359D01*
X010430Y021359D02*
X010430Y021879D01*
X011430Y021879D02*
X011430Y021359D01*
X013430Y021359D02*
X013430Y021879D01*
X014430Y021879D02*
X014430Y021359D01*
X015430Y021359D02*
X015430Y021879D01*
X016430Y021879D02*
X016430Y021359D01*
X017430Y021359D02*
X017430Y021879D01*
X018430Y021879D02*
X018430Y021359D01*
X019430Y021359D02*
X019430Y021879D01*
X020430Y021879D02*
X020430Y021359D01*
X021430Y021359D02*
X021430Y021879D01*
X018930Y005129D02*
X018930Y004609D01*
X017930Y004609D02*
X017930Y005129D01*
X016930Y005129D02*
X016930Y004609D01*
X015930Y004609D02*
X015930Y005129D01*
X013930Y005129D02*
X013930Y004609D01*
X012930Y004609D02*
X012930Y005129D01*
X011930Y005129D02*
X011930Y004609D01*
X010930Y004609D02*
X010930Y005129D01*
X011930Y002129D02*
X011930Y001609D01*
X016930Y001609D02*
X016930Y002129D01*
X006430Y021359D02*
X006430Y021879D01*
X005430Y021879D02*
X005430Y021359D01*
X004430Y021359D02*
X004430Y021879D01*
X003430Y021879D02*
X003430Y021359D01*
D15*
X004930Y031119D03*
X004930Y032119D03*
X005930Y032119D03*
X005930Y031119D03*
X006930Y031119D03*
X006930Y032119D03*
X007930Y032119D03*
X007930Y031119D03*
X008930Y031119D03*
X008930Y032119D03*
X009930Y032119D03*
X009930Y031119D03*
X010930Y031119D03*
X010930Y032119D03*
X011930Y032119D03*
X011930Y031119D03*
X012930Y031119D03*
X012930Y032119D03*
X013930Y032119D03*
X013930Y031119D03*
X014930Y031119D03*
X014930Y032119D03*
X015930Y032119D03*
X015930Y031119D03*
X016930Y031119D03*
X016930Y032119D03*
X017930Y032119D03*
X017930Y031119D03*
X018930Y031119D03*
X018930Y032119D03*
X019930Y032119D03*
X019930Y031119D03*
D16*
X021680Y009619D03*
X020680Y008619D03*
X021680Y007619D03*
D17*
X013709Y007119D03*
X011150Y007119D03*
D18*
X001800Y001800D03*
X023060Y001800D03*
X023060Y034871D03*
X001800Y034871D03*
D19*
X002666Y033813D02*
X022194Y033813D01*
X022225Y033783D02*
X022535Y033604D01*
X022881Y033511D01*
X023239Y033511D01*
X023585Y033604D01*
X023791Y033723D01*
X023791Y002948D01*
X023585Y003067D01*
X023239Y003160D01*
X022881Y003160D01*
X022535Y003067D01*
X022225Y002888D01*
X021972Y002635D01*
X021793Y002325D01*
X021700Y001979D01*
X021700Y001621D01*
X021793Y001275D01*
X021912Y001069D01*
X002948Y001069D01*
X003067Y001275D01*
X003160Y001621D01*
X003160Y001979D01*
X003067Y002325D01*
X002888Y002635D01*
X002635Y002888D01*
X002325Y003067D01*
X001979Y003160D01*
X001621Y003160D01*
X001275Y003067D01*
X001069Y002948D01*
X001069Y033723D01*
X001275Y033604D01*
X001621Y033511D01*
X001979Y033511D01*
X002325Y033604D01*
X002635Y033783D01*
X002888Y034036D01*
X003067Y034346D01*
X003160Y034692D01*
X003160Y035050D01*
X003067Y035396D01*
X002948Y035602D01*
X021912Y035602D01*
X021793Y035396D01*
X021700Y035050D01*
X021700Y034692D01*
X021793Y034346D01*
X021972Y034036D01*
X022225Y033783D01*
X022342Y033715D02*
X002518Y033715D01*
X002347Y033616D02*
X022513Y033616D01*
X022854Y033518D02*
X002006Y033518D01*
X001594Y033518D02*
X001069Y033518D01*
X001069Y033616D02*
X001253Y033616D01*
X001082Y033715D02*
X001069Y033715D01*
X001069Y033419D02*
X023791Y033419D01*
X023791Y033321D02*
X001069Y033321D01*
X001069Y033222D02*
X023791Y033222D01*
X023791Y033124D02*
X001069Y033124D01*
X001069Y033025D02*
X023791Y033025D01*
X023791Y032927D02*
X001069Y032927D01*
X001069Y032828D02*
X023791Y032828D01*
X023791Y032730D02*
X001069Y032730D01*
X001069Y032631D02*
X023791Y032631D01*
X023791Y032533D02*
X020152Y032533D01*
X020116Y032569D02*
X020380Y032305D01*
X020380Y032169D01*
X019980Y032169D01*
X019880Y032169D01*
X019880Y032569D01*
X019744Y032569D01*
X019480Y032305D01*
X019480Y032169D01*
X019880Y032169D01*
X019880Y032069D01*
X019480Y032069D01*
X019480Y031933D01*
X019744Y031669D01*
X019880Y031669D01*
X019880Y032069D01*
X019980Y032069D01*
X019980Y032169D01*
X019980Y032569D01*
X020116Y032569D01*
X019980Y032533D02*
X019880Y032533D01*
X019880Y032434D02*
X019980Y032434D01*
X019980Y032336D02*
X019880Y032336D01*
X019880Y032237D02*
X019980Y032237D01*
X019980Y032139D02*
X023791Y032139D01*
X023791Y032237D02*
X020380Y032237D01*
X020349Y032336D02*
X023791Y032336D01*
X023791Y032434D02*
X020251Y032434D01*
X020380Y032069D02*
X019980Y032069D01*
X019980Y031669D01*
X020116Y031669D01*
X020380Y031933D01*
X020380Y032069D01*
X020380Y032040D02*
X023791Y032040D01*
X023791Y031942D02*
X020380Y031942D01*
X020291Y031843D02*
X023791Y031843D01*
X023791Y031745D02*
X020192Y031745D01*
X020141Y031629D02*
X019719Y031629D01*
X019430Y031340D01*
X019141Y031629D01*
X018719Y031629D01*
X018430Y031340D01*
X018141Y031629D01*
X017719Y031629D01*
X017430Y031340D01*
X017141Y031629D01*
X016719Y031629D01*
X016430Y031340D01*
X016141Y031629D01*
X015719Y031629D01*
X015430Y031340D01*
X015141Y031629D01*
X014719Y031629D01*
X014430Y031340D01*
X014141Y031629D01*
X013719Y031629D01*
X013430Y031340D01*
X013141Y031629D01*
X012719Y031629D01*
X012430Y031340D01*
X012141Y031629D01*
X011719Y031629D01*
X011430Y031340D01*
X011141Y031629D01*
X010719Y031629D01*
X010430Y031340D01*
X010141Y031629D01*
X009719Y031629D01*
X009430Y031340D01*
X009141Y031629D01*
X008719Y031629D01*
X008430Y031340D01*
X008141Y031629D01*
X007719Y031629D01*
X007430Y031340D01*
X007141Y031629D01*
X006719Y031629D01*
X006430Y031340D01*
X006141Y031629D01*
X005719Y031629D01*
X005430Y031340D01*
X005141Y031629D01*
X004719Y031629D01*
X004420Y031330D01*
X004420Y030908D01*
X004719Y030609D01*
X005141Y030609D01*
X005430Y030898D01*
X005719Y030609D01*
X006141Y030609D01*
X006430Y030898D01*
X006719Y030609D01*
X007141Y030609D01*
X007430Y030898D01*
X007719Y030609D01*
X008141Y030609D01*
X008430Y030898D01*
X008719Y030609D01*
X009141Y030609D01*
X009430Y030898D01*
X009719Y030609D01*
X010141Y030609D01*
X010430Y030898D01*
X010719Y030609D01*
X011141Y030609D01*
X011430Y030898D01*
X011719Y030609D01*
X012141Y030609D01*
X012430Y030898D01*
X012719Y030609D01*
X013141Y030609D01*
X013430Y030898D01*
X013719Y030609D01*
X014141Y030609D01*
X014430Y030898D01*
X014719Y030609D01*
X015141Y030609D01*
X015430Y030898D01*
X015719Y030609D01*
X016141Y030609D01*
X016430Y030898D01*
X016719Y030609D01*
X017141Y030609D01*
X017430Y030898D01*
X017719Y030609D01*
X018141Y030609D01*
X018430Y030898D01*
X018719Y030609D01*
X019141Y030609D01*
X019430Y030898D01*
X019719Y030609D01*
X020141Y030609D01*
X020440Y030908D01*
X020440Y031330D01*
X020141Y031629D01*
X020222Y031548D02*
X023791Y031548D01*
X023791Y031646D02*
X001069Y031646D01*
X001069Y031548D02*
X004638Y031548D01*
X004539Y031449D02*
X001069Y031449D01*
X001069Y031351D02*
X004441Y031351D01*
X004420Y031252D02*
X001069Y031252D01*
X001069Y031154D02*
X004420Y031154D01*
X004420Y031055D02*
X001069Y031055D01*
X001069Y030957D02*
X004420Y030957D01*
X004469Y030858D02*
X001069Y030858D01*
X001069Y030760D02*
X004568Y030760D01*
X004666Y030661D02*
X001069Y030661D01*
X001069Y030563D02*
X004325Y030563D01*
X004335Y030573D02*
X004226Y030464D01*
X004166Y030321D01*
X004166Y030167D01*
X004226Y030024D01*
X004335Y029915D01*
X004478Y029855D01*
X004632Y029855D01*
X004773Y029914D01*
X007100Y029914D01*
X007100Y029837D01*
X007041Y029696D01*
X007041Y029542D01*
X007101Y029399D01*
X007210Y029290D01*
X007353Y029230D01*
X007507Y029230D01*
X007524Y029237D01*
X007647Y029114D01*
X008175Y029114D01*
X008298Y029237D01*
X008298Y029914D01*
X008371Y029914D01*
X008371Y029657D01*
X008660Y029657D01*
X008660Y029580D01*
X008737Y029580D01*
X008737Y029174D01*
X008896Y029174D01*
X008934Y029184D01*
X011577Y029184D01*
X011524Y029237D02*
X011647Y029114D01*
X012175Y029114D01*
X012298Y029237D01*
X012298Y029914D01*
X012371Y029914D01*
X012371Y029657D01*
X012660Y029657D01*
X012660Y029580D01*
X012737Y029580D01*
X012737Y029174D01*
X012896Y029174D01*
X012934Y029184D01*
X015577Y029184D01*
X015524Y029237D02*
X015647Y029114D01*
X016175Y029114D01*
X016298Y029237D01*
X016298Y029914D01*
X016371Y029914D01*
X016371Y029657D01*
X016660Y029657D01*
X016660Y029580D01*
X016737Y029580D01*
X016737Y029174D01*
X016896Y029174D01*
X016934Y029184D01*
X019577Y029184D01*
X019524Y029237D02*
X019647Y029114D01*
X020175Y029114D01*
X020298Y029237D01*
X020298Y030001D01*
X020175Y030124D01*
X019760Y030124D01*
X019760Y030310D01*
X019710Y030431D01*
X019617Y030524D01*
X019496Y030574D01*
X004773Y030574D01*
X004632Y030632D01*
X004478Y030632D01*
X004335Y030573D01*
X004226Y030464D02*
X001069Y030464D01*
X001069Y030366D02*
X004185Y030366D01*
X004166Y030267D02*
X001069Y030267D01*
X001069Y030169D02*
X004166Y030169D01*
X004206Y030070D02*
X001069Y030070D01*
X001069Y029972D02*
X004278Y029972D01*
X004434Y029873D02*
X001069Y029873D01*
X001069Y029775D02*
X007074Y029775D01*
X007100Y029873D02*
X004676Y029873D01*
X005194Y030661D02*
X005666Y030661D01*
X005568Y030760D02*
X005292Y030760D01*
X005391Y030858D02*
X005469Y030858D01*
X005441Y031351D02*
X005419Y031351D01*
X005321Y031449D02*
X005539Y031449D01*
X005638Y031548D02*
X005222Y031548D01*
X005116Y031669D02*
X005380Y031933D01*
X005380Y032069D01*
X004980Y032069D01*
X004980Y032169D01*
X004880Y032169D01*
X004880Y032569D01*
X004744Y032569D01*
X004480Y032305D01*
X004480Y032169D01*
X004880Y032169D01*
X004880Y032069D01*
X004480Y032069D01*
X004480Y031933D01*
X004744Y031669D01*
X004880Y031669D01*
X004880Y032069D01*
X004980Y032069D01*
X004980Y031669D01*
X005116Y031669D01*
X005192Y031745D02*
X005667Y031745D01*
X005744Y031669D02*
X005480Y031933D01*
X005480Y032069D01*
X005880Y032069D01*
X005880Y032169D01*
X005880Y032569D01*
X005744Y032569D01*
X005480Y032305D01*
X005480Y032169D01*
X005880Y032169D01*
X005980Y032169D01*
X005980Y032569D01*
X006116Y032569D01*
X006380Y032305D01*
X006380Y032169D01*
X005980Y032169D01*
X005980Y032069D01*
X006380Y032069D01*
X006380Y031933D01*
X006116Y031669D01*
X005980Y031669D01*
X005980Y032069D01*
X005880Y032069D01*
X005880Y031669D01*
X005744Y031669D01*
X005880Y031745D02*
X005980Y031745D01*
X005980Y031843D02*
X005880Y031843D01*
X005880Y031942D02*
X005980Y031942D01*
X005980Y032040D02*
X005880Y032040D01*
X005880Y032139D02*
X004980Y032139D01*
X004980Y032169D02*
X005380Y032169D01*
X005380Y032305D01*
X005116Y032569D01*
X004980Y032569D01*
X004980Y032169D01*
X004980Y032237D02*
X004880Y032237D01*
X004880Y032139D02*
X001069Y032139D01*
X001069Y032237D02*
X004480Y032237D01*
X004511Y032336D02*
X001069Y032336D01*
X001069Y032434D02*
X004609Y032434D01*
X004708Y032533D02*
X001069Y032533D01*
X001069Y032040D02*
X004480Y032040D01*
X004480Y031942D02*
X001069Y031942D01*
X001069Y031843D02*
X004569Y031843D01*
X004667Y031745D02*
X001069Y031745D01*
X001069Y029676D02*
X007041Y029676D01*
X007041Y029578D02*
X001069Y029578D01*
X001069Y029479D02*
X007067Y029479D01*
X007119Y029381D02*
X001069Y029381D01*
X001069Y029282D02*
X007227Y029282D01*
X007524Y029237D02*
X007524Y029237D01*
X007577Y029184D02*
X001069Y029184D01*
X001069Y029085D02*
X023791Y029085D01*
X023791Y028987D02*
X001069Y028987D01*
X001069Y028888D02*
X023791Y028888D01*
X023791Y028790D02*
X001069Y028790D01*
X001069Y028691D02*
X023791Y028691D01*
X023791Y028593D02*
X001069Y028593D01*
X001069Y028494D02*
X023791Y028494D01*
X023791Y028396D02*
X001069Y028396D01*
X001069Y028297D02*
X023791Y028297D01*
X023791Y028199D02*
X001069Y028199D01*
X001069Y028100D02*
X023791Y028100D01*
X023791Y028002D02*
X001069Y028002D01*
X001069Y027903D02*
X023791Y027903D01*
X023791Y027805D02*
X001069Y027805D01*
X001069Y027706D02*
X023791Y027706D01*
X023791Y027608D02*
X001069Y027608D01*
X001069Y027509D02*
X023791Y027509D01*
X023791Y027411D02*
X001069Y027411D01*
X001069Y027312D02*
X023791Y027312D01*
X023791Y027214D02*
X001069Y027214D01*
X001069Y027115D02*
X023791Y027115D01*
X023791Y027017D02*
X001069Y027017D01*
X001069Y026918D02*
X023791Y026918D01*
X023791Y026820D02*
X001069Y026820D01*
X001069Y026721D02*
X023791Y026721D01*
X023791Y026623D02*
X001069Y026623D01*
X001069Y026524D02*
X023791Y026524D01*
X023791Y026426D02*
X001069Y026426D01*
X001069Y026327D02*
X023791Y026327D01*
X023791Y026229D02*
X001069Y026229D01*
X001069Y026130D02*
X023791Y026130D01*
X023791Y026032D02*
X001069Y026032D01*
X001069Y025933D02*
X023791Y025933D01*
X023791Y025835D02*
X001069Y025835D01*
X001069Y025736D02*
X023791Y025736D01*
X023791Y025638D02*
X001069Y025638D01*
X001069Y025539D02*
X023791Y025539D01*
X023791Y025441D02*
X001069Y025441D01*
X001069Y025342D02*
X023791Y025342D01*
X023791Y025244D02*
X001069Y025244D01*
X001069Y025145D02*
X023791Y025145D01*
X023791Y025047D02*
X001069Y025047D01*
X001069Y024948D02*
X023791Y024948D01*
X023791Y024850D02*
X001069Y024850D01*
X001069Y024751D02*
X023791Y024751D01*
X023791Y024653D02*
X001069Y024653D01*
X001069Y024554D02*
X023791Y024554D01*
X023791Y024456D02*
X001069Y024456D01*
X001069Y024357D02*
X023791Y024357D01*
X023791Y024259D02*
X001069Y024259D01*
X001069Y024160D02*
X023791Y024160D01*
X023791Y024062D02*
X001069Y024062D01*
X001069Y023963D02*
X023791Y023963D01*
X023791Y023865D02*
X001069Y023865D01*
X001069Y023766D02*
X023791Y023766D01*
X023791Y023668D02*
X001069Y023668D01*
X001069Y023569D02*
X023791Y023569D01*
X023791Y023471D02*
X001069Y023471D01*
X001069Y023372D02*
X023791Y023372D01*
X023791Y023274D02*
X001069Y023274D01*
X001069Y023175D02*
X023791Y023175D01*
X023791Y023077D02*
X001069Y023077D01*
X001069Y022978D02*
X023791Y022978D01*
X023791Y022880D02*
X001069Y022880D01*
X001069Y022781D02*
X023791Y022781D01*
X023791Y022683D02*
X001069Y022683D01*
X001069Y022584D02*
X023791Y022584D01*
X023791Y022486D02*
X001069Y022486D01*
X001069Y022387D02*
X023791Y022387D01*
X023791Y022289D02*
X020668Y022289D01*
X020696Y022277D02*
X020523Y022349D01*
X020336Y022349D01*
X020164Y022277D01*
X020031Y022145D01*
X019960Y021972D01*
X019960Y021265D01*
X020031Y021093D01*
X020164Y020960D01*
X020336Y020889D01*
X020523Y020889D01*
X020696Y020960D01*
X020828Y021093D01*
X020900Y021265D01*
X020900Y021972D01*
X020828Y022145D01*
X020696Y022277D01*
X020783Y022190D02*
X021162Y022190D01*
X021163Y022192D02*
X021117Y022146D01*
X021079Y022094D01*
X021050Y022036D01*
X021030Y021975D01*
X021020Y021911D01*
X021020Y021649D01*
X021400Y021649D01*
X021400Y022289D01*
X021398Y022289D01*
X021334Y022279D01*
X021273Y022259D01*
X021215Y022230D01*
X021163Y022192D01*
X021078Y022092D02*
X020850Y022092D01*
X020891Y021993D02*
X021036Y021993D01*
X021020Y021895D02*
X020900Y021895D01*
X020900Y021796D02*
X021020Y021796D01*
X021020Y021698D02*
X020900Y021698D01*
X020900Y021599D02*
X021400Y021599D01*
X021400Y021589D02*
X021020Y021589D01*
X021020Y021327D01*
X021030Y021263D01*
X021050Y021202D01*
X021079Y021144D01*
X021117Y021092D01*
X021163Y021046D01*
X021215Y021008D01*
X021273Y020979D01*
X021334Y020959D01*
X021398Y020949D01*
X021400Y020949D01*
X021400Y021589D01*
X021400Y021649D01*
X021460Y021649D01*
X021460Y022289D01*
X021462Y022289D01*
X021526Y022279D01*
X021587Y022259D01*
X021645Y022230D01*
X021697Y022192D01*
X021743Y022146D01*
X021781Y022094D01*
X021810Y022036D01*
X021830Y021975D01*
X021840Y021911D01*
X021840Y021649D01*
X021460Y021649D01*
X021460Y021589D01*
X021840Y021589D01*
X021840Y021327D01*
X021830Y021263D01*
X021810Y021202D01*
X021781Y021144D01*
X021743Y021092D01*
X021697Y021046D01*
X021645Y021008D01*
X021587Y020979D01*
X021526Y020959D01*
X021462Y020949D01*
X021460Y020949D01*
X021460Y021589D01*
X021400Y021589D01*
X021460Y021599D02*
X023791Y021599D01*
X023791Y021501D02*
X021840Y021501D01*
X021840Y021402D02*
X023791Y021402D01*
X023791Y021304D02*
X021836Y021304D01*
X021811Y021205D02*
X023791Y021205D01*
X023791Y021107D02*
X021754Y021107D01*
X021645Y021008D02*
X023791Y021008D01*
X023791Y020910D02*
X020574Y020910D01*
X020744Y021008D02*
X021215Y021008D01*
X021106Y021107D02*
X020834Y021107D01*
X020875Y021205D02*
X021049Y021205D01*
X021024Y021304D02*
X020900Y021304D01*
X020900Y021402D02*
X021020Y021402D01*
X021020Y021501D02*
X020900Y021501D01*
X021400Y021501D02*
X021460Y021501D01*
X021460Y021402D02*
X021400Y021402D01*
X021400Y021304D02*
X021460Y021304D01*
X021460Y021205D02*
X021400Y021205D01*
X021400Y021107D02*
X021460Y021107D01*
X021460Y021008D02*
X021400Y021008D01*
X021400Y021698D02*
X021460Y021698D01*
X021460Y021796D02*
X021400Y021796D01*
X021400Y021895D02*
X021460Y021895D01*
X021460Y021993D02*
X021400Y021993D01*
X021400Y022092D02*
X021460Y022092D01*
X021460Y022190D02*
X021400Y022190D01*
X021698Y022190D02*
X023791Y022190D01*
X023791Y022092D02*
X021782Y022092D01*
X021824Y021993D02*
X023791Y021993D01*
X023791Y021895D02*
X021840Y021895D01*
X021840Y021796D02*
X023791Y021796D01*
X023791Y021698D02*
X021840Y021698D01*
X020286Y020910D02*
X019574Y020910D01*
X019523Y020889D02*
X019336Y020889D01*
X019164Y020960D01*
X019031Y021093D01*
X018960Y021265D01*
X018960Y021972D01*
X019031Y022145D01*
X019164Y022277D01*
X019336Y022349D01*
X019523Y022349D01*
X019696Y022277D01*
X019828Y022145D01*
X019900Y021972D01*
X019900Y021265D01*
X019828Y021093D01*
X019696Y020960D01*
X019523Y020889D01*
X019286Y020910D02*
X018574Y020910D01*
X018523Y020889D02*
X018336Y020889D01*
X018164Y020960D01*
X018031Y021093D01*
X017960Y021265D01*
X017960Y021972D01*
X018031Y022145D01*
X018164Y022277D01*
X018336Y022349D01*
X018523Y022349D01*
X018696Y022277D01*
X018828Y022145D01*
X018900Y021972D01*
X018900Y021265D01*
X018828Y021093D01*
X018696Y020960D01*
X018523Y020889D01*
X018286Y020910D02*
X017574Y020910D01*
X017523Y020889D02*
X017336Y020889D01*
X017164Y020960D01*
X017031Y021093D01*
X016960Y021265D01*
X016960Y021972D01*
X017031Y022145D01*
X017164Y022277D01*
X017336Y022349D01*
X017523Y022349D01*
X017696Y022277D01*
X017828Y022145D01*
X017900Y021972D01*
X017900Y021265D01*
X017828Y021093D01*
X017696Y020960D01*
X017523Y020889D01*
X017286Y020910D02*
X016574Y020910D01*
X016523Y020889D02*
X016336Y020889D01*
X016164Y020960D01*
X016031Y021093D01*
X015960Y021265D01*
X015960Y021972D01*
X016031Y022145D01*
X016164Y022277D01*
X016336Y022349D01*
X016523Y022349D01*
X016696Y022277D01*
X016828Y022145D01*
X016900Y021972D01*
X016900Y021265D01*
X016828Y021093D01*
X016696Y020960D01*
X016523Y020889D01*
X016286Y020910D02*
X015574Y020910D01*
X015523Y020889D02*
X015336Y020889D01*
X015164Y020960D01*
X015031Y021093D01*
X014960Y021265D01*
X014960Y021972D01*
X015031Y022145D01*
X015164Y022277D01*
X015336Y022349D01*
X015523Y022349D01*
X015696Y022277D01*
X015828Y022145D01*
X015900Y021972D01*
X015900Y021265D01*
X015828Y021093D01*
X015696Y020960D01*
X015523Y020889D01*
X015286Y020910D02*
X014574Y020910D01*
X014523Y020889D02*
X014336Y020889D01*
X014164Y020960D01*
X014031Y021093D01*
X013960Y021265D01*
X013960Y021972D01*
X014031Y022145D01*
X014164Y022277D01*
X014336Y022349D01*
X014523Y022349D01*
X014696Y022277D01*
X014828Y022145D01*
X014900Y021972D01*
X014900Y021265D01*
X014828Y021093D01*
X014696Y020960D01*
X014523Y020889D01*
X014286Y020910D02*
X013574Y020910D01*
X013523Y020889D02*
X013336Y020889D01*
X013164Y020960D01*
X013031Y021093D01*
X012960Y021265D01*
X012960Y021972D01*
X013031Y022145D01*
X013164Y022277D01*
X013336Y022349D01*
X013523Y022349D01*
X013696Y022277D01*
X013828Y022145D01*
X013900Y021972D01*
X013900Y021265D01*
X013828Y021093D01*
X013696Y020960D01*
X013523Y020889D01*
X013286Y020910D02*
X011574Y020910D01*
X011523Y020889D02*
X011336Y020889D01*
X011164Y020960D01*
X011031Y021093D01*
X010960Y021265D01*
X010960Y021972D01*
X011031Y022145D01*
X011164Y022277D01*
X011336Y022349D01*
X011523Y022349D01*
X011696Y022277D01*
X011828Y022145D01*
X011900Y021972D01*
X011900Y021265D01*
X011828Y021093D01*
X011696Y020960D01*
X011523Y020889D01*
X011286Y020910D02*
X010574Y020910D01*
X010523Y020889D02*
X010336Y020889D01*
X010164Y020960D01*
X010031Y021093D01*
X009960Y021265D01*
X009960Y021972D01*
X010031Y022145D01*
X010164Y022277D01*
X010336Y022349D01*
X010523Y022349D01*
X010696Y022277D01*
X010828Y022145D01*
X010900Y021972D01*
X010900Y021265D01*
X010828Y021093D01*
X010696Y020960D01*
X010523Y020889D01*
X010286Y020910D02*
X009574Y020910D01*
X009523Y020889D02*
X009336Y020889D01*
X009164Y020960D01*
X009031Y021093D01*
X008960Y021265D01*
X008960Y021972D01*
X009031Y022145D01*
X009164Y022277D01*
X009336Y022349D01*
X009523Y022349D01*
X009696Y022277D01*
X009828Y022145D01*
X009900Y021972D01*
X009900Y021265D01*
X009828Y021093D01*
X009696Y020960D01*
X009523Y020889D01*
X009286Y020910D02*
X008574Y020910D01*
X008523Y020889D02*
X008696Y020960D01*
X008828Y021093D01*
X008900Y021265D01*
X008900Y021972D01*
X008828Y022145D01*
X008696Y022277D01*
X008523Y022349D01*
X008336Y022349D01*
X008164Y022277D01*
X008031Y022145D01*
X007960Y021972D01*
X007960Y021265D01*
X008031Y021093D01*
X008164Y020960D01*
X008336Y020889D01*
X008523Y020889D01*
X008286Y020910D02*
X007574Y020910D01*
X007523Y020889D02*
X007696Y020960D01*
X007828Y021093D01*
X007900Y021265D01*
X007900Y021972D01*
X007828Y022145D01*
X007696Y022277D01*
X007523Y022349D01*
X007336Y022349D01*
X007164Y022277D01*
X007031Y022145D01*
X006960Y021972D01*
X006960Y021265D01*
X007031Y021093D01*
X007164Y020960D01*
X007336Y020889D01*
X007523Y020889D01*
X007286Y020910D02*
X006574Y020910D01*
X006523Y020889D02*
X006696Y020960D01*
X006828Y021093D01*
X006900Y021265D01*
X006900Y021972D01*
X006828Y022145D01*
X006696Y022277D01*
X006523Y022349D01*
X006336Y022349D01*
X006164Y022277D01*
X006031Y022145D01*
X005960Y021972D01*
X005960Y021265D01*
X006031Y021093D01*
X006164Y020960D01*
X006336Y020889D01*
X006523Y020889D01*
X006286Y020910D02*
X005574Y020910D01*
X005523Y020889D02*
X005696Y020960D01*
X005828Y021093D01*
X005900Y021265D01*
X005900Y021972D01*
X005828Y022145D01*
X005696Y022277D01*
X005523Y022349D01*
X005336Y022349D01*
X005164Y022277D01*
X005031Y022145D01*
X004960Y021972D01*
X004960Y021265D01*
X005031Y021093D01*
X005164Y020960D01*
X005336Y020889D01*
X005523Y020889D01*
X005286Y020910D02*
X004574Y020910D01*
X004523Y020889D02*
X004696Y020960D01*
X004828Y021093D01*
X004900Y021265D01*
X004900Y021972D01*
X004828Y022145D01*
X004696Y022277D01*
X004523Y022349D01*
X004336Y022349D01*
X004164Y022277D01*
X004031Y022145D01*
X003960Y021972D01*
X003960Y021265D01*
X004031Y021093D01*
X004164Y020960D01*
X004336Y020889D01*
X004523Y020889D01*
X004286Y020910D02*
X001069Y020910D01*
X001069Y021008D02*
X003215Y021008D01*
X003273Y020979D01*
X003334Y020959D01*
X003398Y020949D01*
X003400Y020949D01*
X003400Y021589D01*
X003020Y021589D01*
X003020Y021327D01*
X003030Y021263D01*
X003050Y021202D01*
X003079Y021144D01*
X003117Y021092D01*
X003163Y021046D01*
X003215Y021008D01*
X003106Y021107D02*
X001069Y021107D01*
X001069Y021205D02*
X003049Y021205D01*
X003024Y021304D02*
X001069Y021304D01*
X001069Y021402D02*
X003020Y021402D01*
X003020Y021501D02*
X001069Y021501D01*
X001069Y021599D02*
X003400Y021599D01*
X003400Y021589D02*
X003400Y021649D01*
X003400Y022289D01*
X003398Y022289D01*
X003334Y022279D01*
X003273Y022259D01*
X003215Y022230D01*
X003163Y022192D01*
X003117Y022146D01*
X003079Y022094D01*
X003050Y022036D01*
X003030Y021975D01*
X003020Y021911D01*
X003020Y021649D01*
X003400Y021649D01*
X003460Y021649D01*
X003460Y022289D01*
X003462Y022289D01*
X003526Y022279D01*
X003587Y022259D01*
X003645Y022230D01*
X003697Y022192D01*
X003743Y022146D01*
X003781Y022094D01*
X003810Y022036D01*
X003830Y021975D01*
X003840Y021911D01*
X003840Y021649D01*
X003460Y021649D01*
X003460Y021589D01*
X003840Y021589D01*
X003840Y021327D01*
X003830Y021263D01*
X003810Y021202D01*
X003781Y021144D01*
X003743Y021092D01*
X003697Y021046D01*
X003645Y021008D01*
X003587Y020979D01*
X003526Y020959D01*
X003462Y020949D01*
X003460Y020949D01*
X003460Y021589D01*
X003400Y021589D01*
X003460Y021599D02*
X003960Y021599D01*
X003960Y021501D02*
X003840Y021501D01*
X003840Y021402D02*
X003960Y021402D01*
X003960Y021304D02*
X003836Y021304D01*
X003811Y021205D02*
X003985Y021205D01*
X004026Y021107D02*
X003754Y021107D01*
X003645Y021008D02*
X004116Y021008D01*
X003960Y021698D02*
X003840Y021698D01*
X003840Y021796D02*
X003960Y021796D01*
X003960Y021895D02*
X003840Y021895D01*
X003824Y021993D02*
X003969Y021993D01*
X004009Y022092D02*
X003782Y022092D01*
X003698Y022190D02*
X004077Y022190D01*
X004192Y022289D02*
X001069Y022289D01*
X001069Y022190D02*
X003162Y022190D01*
X003078Y022092D02*
X001069Y022092D01*
X001069Y021993D02*
X003036Y021993D01*
X003020Y021895D02*
X001069Y021895D01*
X001069Y021796D02*
X003020Y021796D01*
X003020Y021698D02*
X001069Y021698D01*
X001069Y020811D02*
X023791Y020811D01*
X023791Y020713D02*
X001069Y020713D01*
X001069Y020614D02*
X023791Y020614D01*
X023791Y020516D02*
X001069Y020516D01*
X001069Y020417D02*
X023791Y020417D01*
X023791Y020319D02*
X001069Y020319D01*
X001069Y020220D02*
X023791Y020220D01*
X023791Y020122D02*
X001069Y020122D01*
X001069Y020023D02*
X023791Y020023D01*
X023791Y019925D02*
X001069Y019925D01*
X001069Y019826D02*
X023791Y019826D01*
X023791Y019728D02*
X001069Y019728D01*
X001069Y019629D02*
X023791Y019629D01*
X023791Y019531D02*
X001069Y019531D01*
X001069Y019432D02*
X011756Y019432D01*
X011695Y019407D02*
X011517Y019229D01*
X011420Y018995D01*
X011420Y018743D01*
X001069Y018743D01*
X001069Y018841D02*
X011420Y018841D01*
X011420Y018743D02*
X011517Y018509D01*
X011695Y018331D01*
X011929Y018234D01*
X012181Y018234D01*
X012415Y018331D01*
X012593Y018509D01*
X012690Y018743D01*
X023791Y018743D01*
X023791Y018841D02*
X012690Y018841D01*
X012690Y018743D02*
X012690Y018995D01*
X012593Y019229D01*
X012415Y019407D01*
X012181Y019504D01*
X011929Y019504D01*
X011695Y019407D01*
X011622Y019334D02*
X001069Y019334D01*
X001069Y019235D02*
X011523Y019235D01*
X011479Y019137D02*
X001069Y019137D01*
X001069Y019038D02*
X011438Y019038D01*
X011420Y018940D02*
X001069Y018940D01*
X001069Y018644D02*
X001918Y018644D01*
X001973Y018699D02*
X001850Y018576D01*
X001850Y017662D01*
X001973Y017539D01*
X002123Y017539D01*
X002091Y017516D01*
X002033Y017458D01*
X001985Y017391D01*
X001948Y017319D01*
X001923Y017241D01*
X001911Y017169D01*
X002380Y017169D01*
X002380Y017069D01*
X001911Y017069D01*
X001923Y016997D01*
X001948Y016919D01*
X001985Y016846D01*
X002033Y016780D01*
X002091Y016722D01*
X002157Y016674D01*
X002230Y016637D01*
X002308Y016612D01*
X002380Y016600D01*
X002380Y017069D01*
X002480Y017069D01*
X002480Y017169D01*
X003380Y017169D01*
X003380Y017069D01*
X002911Y017069D01*
X002480Y017069D01*
X002480Y016600D01*
X002552Y016612D01*
X002630Y016637D01*
X002702Y016674D01*
X002769Y016722D01*
X002827Y016780D01*
X002875Y016846D01*
X002912Y016919D01*
X002930Y016975D01*
X002948Y016919D01*
X002985Y016846D01*
X003033Y016780D01*
X003091Y016722D01*
X003157Y016674D01*
X003230Y016637D01*
X003308Y016612D01*
X003380Y016600D01*
X003380Y017069D01*
X003480Y017069D01*
X003480Y017169D01*
X003948Y017169D01*
X003937Y017241D01*
X003912Y017319D01*
X003875Y017391D01*
X003827Y017458D01*
X003769Y017516D01*
X003737Y017539D01*
X003887Y017539D01*
X004010Y017662D01*
X004010Y018576D01*
X003887Y018699D01*
X002973Y018699D01*
X002930Y018656D01*
X002887Y018699D01*
X001973Y018699D01*
X001850Y018546D02*
X001069Y018546D01*
X001069Y018447D02*
X001850Y018447D01*
X001850Y018349D02*
X001069Y018349D01*
X001069Y018250D02*
X001850Y018250D01*
X001850Y018152D02*
X001069Y018152D01*
X001069Y018053D02*
X001850Y018053D01*
X001850Y017955D02*
X001069Y017955D01*
X001069Y017856D02*
X001850Y017856D01*
X001850Y017758D02*
X001069Y017758D01*
X001069Y017659D02*
X001852Y017659D01*
X001951Y017561D02*
X001069Y017561D01*
X001069Y017462D02*
X002038Y017462D01*
X001971Y017364D02*
X001069Y017364D01*
X001069Y017265D02*
X001931Y017265D01*
X001911Y017068D02*
X001069Y017068D01*
X001069Y016970D02*
X001932Y016970D01*
X001972Y016871D02*
X001069Y016871D01*
X001069Y016773D02*
X002040Y016773D01*
X002157Y016674D02*
X001069Y016674D01*
X001069Y016576D02*
X021850Y016576D01*
X021850Y016504D02*
X021938Y016290D01*
X022101Y016127D01*
X022121Y016119D01*
X022101Y016111D01*
X021938Y015947D01*
X021850Y015734D01*
X021850Y015504D01*
X021938Y015290D01*
X022101Y015127D01*
X022201Y015086D01*
X022157Y015064D01*
X022091Y015016D01*
X022033Y014958D01*
X021985Y014891D01*
X021948Y014819D01*
X021923Y014741D01*
X021911Y014669D01*
X022380Y014669D01*
X022380Y014569D01*
X021911Y014569D01*
X021923Y014497D01*
X021948Y014419D01*
X021985Y014346D01*
X022033Y014280D01*
X022091Y014222D01*
X022157Y014174D01*
X022201Y014152D01*
X022101Y014111D01*
X021938Y013947D01*
X021907Y013871D01*
X021891Y013865D01*
X019935Y011909D01*
X019689Y011909D01*
X019650Y011948D01*
X019507Y012007D01*
X019353Y012007D01*
X019210Y011948D01*
X019101Y011839D01*
X019041Y011696D01*
X019041Y011667D01*
X017970Y012739D01*
X017970Y013235D01*
X018009Y013274D01*
X018068Y013417D01*
X018068Y013571D01*
X018009Y013714D01*
X017900Y013823D01*
X017757Y013882D01*
X017603Y013882D01*
X017575Y013871D01*
X017575Y015215D01*
X017634Y015274D01*
X017693Y015417D01*
X017693Y015571D01*
X017634Y015714D01*
X017525Y015823D01*
X017382Y015882D01*
X017228Y015882D01*
X017085Y015823D01*
X016976Y015714D01*
X016916Y015571D01*
X016916Y015417D01*
X016976Y015274D01*
X016992Y015257D01*
X016853Y015257D01*
X016710Y015198D01*
X016601Y015089D01*
X016541Y014946D01*
X016541Y014792D01*
X016601Y014649D01*
X016660Y014590D01*
X016660Y013481D01*
X016421Y013241D01*
X016382Y013257D01*
X016228Y013257D01*
X016085Y013198D01*
X015976Y013089D01*
X015916Y012946D01*
X015916Y012857D01*
X015835Y012823D01*
X015726Y012714D01*
X015666Y012571D01*
X015666Y012417D01*
X015726Y012274D01*
X015775Y012225D01*
X015710Y012198D01*
X015671Y012159D01*
X013564Y012159D01*
X013525Y012198D01*
X013382Y012257D01*
X013228Y012257D01*
X013085Y012198D01*
X012976Y012089D01*
X012916Y011946D01*
X012916Y011792D01*
X012976Y011649D01*
X013085Y011540D01*
X013228Y011480D01*
X013382Y011480D01*
X013525Y011540D01*
X013564Y011579D01*
X015671Y011579D01*
X015710Y011540D01*
X015853Y011480D01*
X016007Y011480D01*
X016150Y011540D01*
X016259Y011649D01*
X016318Y011792D01*
X016318Y011946D01*
X016259Y012089D01*
X016210Y012138D01*
X016275Y012165D01*
X016334Y012224D01*
X016609Y012224D01*
X016708Y012265D01*
X016958Y012515D01*
X017390Y012947D01*
X017390Y012561D01*
X017434Y012455D01*
X018809Y011080D01*
X020390Y009499D01*
X020390Y008994D01*
X020210Y008814D01*
X020210Y008424D01*
X020485Y008149D01*
X020875Y008149D01*
X021150Y008424D01*
X021150Y008814D01*
X020970Y008994D01*
X020970Y009677D01*
X020926Y009783D01*
X020844Y009865D01*
X019478Y011230D01*
X019507Y011230D01*
X019650Y011290D01*
X019689Y011329D01*
X019942Y011329D01*
X021389Y009993D01*
X021210Y009814D01*
X021210Y009424D01*
X021485Y009149D01*
X021875Y009149D01*
X022150Y009424D01*
X022150Y009814D01*
X021970Y009994D01*
X021970Y010067D01*
X021972Y010073D01*
X021970Y010125D01*
X021970Y010177D01*
X021968Y010182D01*
X021967Y010188D01*
X021946Y010235D01*
X021926Y010283D01*
X021922Y010287D01*
X021919Y010293D01*
X021881Y010328D01*
X021844Y010365D01*
X021839Y010367D01*
X020473Y011627D01*
X021850Y013004D01*
X021850Y012162D01*
X021973Y012039D01*
X022887Y012039D01*
X023010Y012162D01*
X023010Y013076D01*
X022887Y013199D01*
X022830Y013199D01*
X022922Y013290D01*
X023010Y013504D01*
X023010Y013734D01*
X022922Y013947D01*
X022758Y014111D01*
X022659Y014152D01*
X022702Y014174D01*
X022769Y014222D01*
X022827Y014280D01*
X022875Y014346D01*
X022912Y014419D01*
X022937Y014497D01*
X022948Y014569D01*
X022480Y014569D01*
X022480Y014669D01*
X022948Y014669D01*
X022937Y014741D01*
X022912Y014819D01*
X022875Y014891D01*
X022827Y014958D01*
X022769Y015016D01*
X022702Y015064D01*
X022659Y015086D01*
X022758Y015127D01*
X022922Y015290D01*
X023010Y015504D01*
X023010Y015734D01*
X022922Y015947D01*
X022758Y016111D01*
X022738Y016119D01*
X022758Y016127D01*
X022922Y016290D01*
X023010Y016504D01*
X023010Y016734D01*
X022922Y016947D01*
X022758Y017111D01*
X022545Y017199D01*
X022315Y017199D01*
X022101Y017111D01*
X021938Y016947D01*
X021850Y016734D01*
X021850Y016504D01*
X021861Y016477D02*
X001069Y016477D01*
X001069Y016379D02*
X021902Y016379D01*
X021948Y016280D02*
X001069Y016280D01*
X001069Y016182D02*
X022047Y016182D01*
X022074Y016083D02*
X001069Y016083D01*
X001069Y015985D02*
X021976Y015985D01*
X021913Y015886D02*
X001069Y015886D01*
X001069Y015788D02*
X017050Y015788D01*
X016965Y015689D02*
X001069Y015689D01*
X001069Y015591D02*
X016925Y015591D01*
X016916Y015492D02*
X001069Y015492D01*
X001069Y015394D02*
X016926Y015394D01*
X016967Y015295D02*
X001069Y015295D01*
X001069Y015197D02*
X016709Y015197D01*
X016610Y015098D02*
X001069Y015098D01*
X001069Y015000D02*
X016564Y015000D01*
X016541Y014901D02*
X001069Y014901D01*
X001069Y014803D02*
X016541Y014803D01*
X016578Y014704D02*
X001069Y014704D01*
X001069Y014606D02*
X016644Y014606D01*
X016660Y014507D02*
X001069Y014507D01*
X001069Y014409D02*
X016660Y014409D01*
X016660Y014310D02*
X001069Y014310D01*
X001069Y014212D02*
X016660Y014212D01*
X016660Y014113D02*
X001069Y014113D01*
X001069Y014015D02*
X016660Y014015D01*
X016660Y013916D02*
X001069Y013916D01*
X001069Y013818D02*
X016660Y013818D01*
X016660Y013719D02*
X001069Y013719D01*
X001069Y013621D02*
X001989Y013621D01*
X002002Y013629D02*
X001968Y013609D01*
X001940Y013581D01*
X001920Y013547D01*
X001910Y013509D01*
X001910Y013169D01*
X002380Y013169D01*
X002380Y013639D01*
X002040Y013639D01*
X002002Y013629D01*
X001914Y013522D02*
X001069Y013522D01*
X001069Y013424D02*
X001910Y013424D01*
X001910Y013325D02*
X001069Y013325D01*
X001069Y013227D02*
X001910Y013227D01*
X001910Y013069D02*
X001910Y012729D01*
X001920Y012691D01*
X001940Y012657D01*
X001968Y012629D01*
X002002Y012609D01*
X002040Y012599D01*
X002090Y012599D01*
X001938Y012447D01*
X001850Y012234D01*
X001850Y012004D01*
X001938Y011790D01*
X002101Y011627D01*
X002121Y011619D01*
X002101Y011611D01*
X001938Y011447D01*
X001850Y011234D01*
X001850Y011004D01*
X001938Y010790D01*
X002101Y010627D01*
X002315Y010539D01*
X002545Y010539D01*
X002758Y010627D01*
X002922Y010790D01*
X003010Y011004D01*
X003010Y011234D01*
X002922Y011447D01*
X002758Y011611D01*
X002738Y011619D01*
X002758Y011627D01*
X002922Y011790D01*
X003010Y012004D01*
X003010Y012234D01*
X002922Y012447D01*
X002770Y012599D01*
X002820Y012599D01*
X002858Y012609D01*
X002892Y012629D01*
X002920Y012657D01*
X002940Y012691D01*
X002950Y012729D01*
X002950Y013069D01*
X002480Y013069D01*
X002480Y013169D01*
X002380Y013169D01*
X002380Y013069D01*
X001910Y013069D01*
X001910Y013030D02*
X001069Y013030D01*
X001069Y013128D02*
X002380Y013128D01*
X002380Y013227D02*
X002480Y013227D01*
X002480Y013169D02*
X002480Y013639D01*
X002820Y013639D01*
X002858Y013629D01*
X002892Y013609D01*
X002920Y013581D01*
X002940Y013547D01*
X002950Y013509D01*
X002950Y013169D01*
X002480Y013169D01*
X002480Y013128D02*
X016015Y013128D01*
X015951Y013030D02*
X002950Y013030D01*
X002950Y012931D02*
X015916Y012931D01*
X015858Y012833D02*
X002950Y012833D01*
X002950Y012734D02*
X015746Y012734D01*
X015693Y012636D02*
X002899Y012636D01*
X002832Y012537D02*
X006674Y012537D01*
X006710Y012573D02*
X006601Y012464D01*
X006541Y012321D01*
X006541Y012167D01*
X006601Y012024D01*
X006693Y011931D01*
X006601Y011839D01*
X006541Y011696D01*
X006541Y011542D01*
X006601Y011399D01*
X006710Y011290D01*
X006853Y011230D01*
X006937Y011230D01*
X007951Y010216D01*
X008027Y010140D01*
X008126Y010099D01*
X009151Y010099D01*
X009210Y010040D01*
X009353Y009980D01*
X009507Y009980D01*
X009650Y010040D01*
X009759Y010149D01*
X009818Y010292D01*
X009818Y010446D01*
X009759Y010589D01*
X009650Y010698D01*
X009507Y010757D01*
X009353Y010757D01*
X009210Y010698D01*
X009151Y010639D01*
X008292Y010639D01*
X007800Y011130D01*
X007876Y011099D01*
X009109Y011099D01*
X009124Y011105D01*
X009257Y011105D01*
X009400Y011165D01*
X009509Y011274D01*
X009568Y011417D01*
X009568Y011571D01*
X009509Y011714D01*
X009400Y011823D01*
X009257Y011882D01*
X009103Y011882D01*
X008960Y011823D01*
X008851Y011714D01*
X008820Y011639D01*
X008042Y011639D01*
X007289Y012391D01*
X007259Y012464D01*
X007150Y012573D01*
X007007Y012632D01*
X006853Y012632D01*
X006710Y012573D01*
X006590Y012439D02*
X002925Y012439D01*
X002966Y012340D02*
X006549Y012340D01*
X006541Y012242D02*
X003007Y012242D01*
X003010Y012143D02*
X006551Y012143D01*
X006592Y012045D02*
X003010Y012045D01*
X002986Y011946D02*
X006678Y011946D01*
X006610Y011848D02*
X002945Y011848D01*
X002881Y011749D02*
X006564Y011749D01*
X006541Y011651D02*
X002782Y011651D01*
X002817Y011552D02*
X006541Y011552D01*
X006578Y011454D02*
X002915Y011454D01*
X002960Y011355D02*
X006644Y011355D01*
X006789Y011257D02*
X003001Y011257D01*
X003010Y011158D02*
X007009Y011158D01*
X007107Y011060D02*
X003010Y011060D01*
X002992Y010961D02*
X007206Y010961D01*
X007304Y010863D02*
X002952Y010863D01*
X002896Y010764D02*
X007403Y010764D01*
X007501Y010666D02*
X002797Y010666D01*
X002614Y010567D02*
X007600Y010567D01*
X007698Y010469D02*
X001069Y010469D01*
X001069Y010567D02*
X002246Y010567D01*
X002063Y010666D02*
X001069Y010666D01*
X001069Y010764D02*
X001964Y010764D01*
X001908Y010863D02*
X001069Y010863D01*
X001069Y010961D02*
X001867Y010961D01*
X001850Y011060D02*
X001069Y011060D01*
X001069Y011158D02*
X001850Y011158D01*
X001859Y011257D02*
X001069Y011257D01*
X001069Y011355D02*
X001900Y011355D01*
X001945Y011454D02*
X001069Y011454D01*
X001069Y011552D02*
X002043Y011552D01*
X002078Y011651D02*
X001069Y011651D01*
X001069Y011749D02*
X001979Y011749D01*
X001914Y011848D02*
X001069Y011848D01*
X001069Y011946D02*
X001874Y011946D01*
X001850Y012045D02*
X001069Y012045D01*
X001069Y012143D02*
X001850Y012143D01*
X001853Y012242D02*
X001069Y012242D01*
X001069Y012340D02*
X001894Y012340D01*
X001935Y012439D02*
X001069Y012439D01*
X001069Y012537D02*
X002028Y012537D01*
X001961Y012636D02*
X001069Y012636D01*
X001069Y012734D02*
X001910Y012734D01*
X001910Y012833D02*
X001069Y012833D01*
X001069Y012931D02*
X001910Y012931D01*
X002380Y013325D02*
X002480Y013325D01*
X002480Y013424D02*
X002380Y013424D01*
X002380Y013522D02*
X002480Y013522D01*
X002480Y013621D02*
X002380Y013621D01*
X002871Y013621D02*
X016660Y013621D01*
X016660Y013522D02*
X002946Y013522D01*
X002950Y013424D02*
X016603Y013424D01*
X016505Y013325D02*
X002950Y013325D01*
X002950Y013227D02*
X016154Y013227D01*
X015666Y012537D02*
X007186Y012537D01*
X007270Y012439D02*
X015666Y012439D01*
X015698Y012340D02*
X007340Y012340D01*
X007439Y012242D02*
X013190Y012242D01*
X013030Y012143D02*
X007537Y012143D01*
X007636Y012045D02*
X012957Y012045D01*
X012917Y011946D02*
X007734Y011946D01*
X007833Y011848D02*
X009020Y011848D01*
X008886Y011749D02*
X007931Y011749D01*
X008030Y011651D02*
X008825Y011651D01*
X009340Y011848D02*
X012916Y011848D01*
X012934Y011749D02*
X009474Y011749D01*
X009535Y011651D02*
X012975Y011651D01*
X013072Y011552D02*
X009568Y011552D01*
X009568Y011454D02*
X018435Y011454D01*
X018533Y011355D02*
X009543Y011355D01*
X009492Y011257D02*
X018632Y011257D01*
X018730Y011158D02*
X009385Y011158D01*
X009178Y010666D02*
X008265Y010666D01*
X008166Y010764D02*
X019124Y010764D01*
X019223Y010666D02*
X009682Y010666D01*
X009768Y010567D02*
X019321Y010567D01*
X019420Y010469D02*
X009809Y010469D01*
X009818Y010370D02*
X019518Y010370D01*
X019617Y010272D02*
X009810Y010272D01*
X009769Y010173D02*
X019715Y010173D01*
X019814Y010075D02*
X009685Y010075D01*
X009175Y010075D02*
X001069Y010075D01*
X001069Y010173D02*
X007994Y010173D01*
X007895Y010272D02*
X001069Y010272D01*
X001069Y010370D02*
X007797Y010370D01*
X008068Y010863D02*
X019026Y010863D01*
X018927Y010961D02*
X007969Y010961D01*
X007871Y011060D02*
X018829Y011060D01*
X018336Y011552D02*
X016163Y011552D01*
X016260Y011651D02*
X018238Y011651D01*
X018139Y011749D02*
X016301Y011749D01*
X016318Y011848D02*
X018041Y011848D01*
X017942Y011946D02*
X016318Y011946D01*
X016277Y012045D02*
X017844Y012045D01*
X017745Y012143D02*
X016224Y012143D01*
X016652Y012242D02*
X017647Y012242D01*
X017548Y012340D02*
X016783Y012340D01*
X016882Y012439D02*
X017450Y012439D01*
X017400Y012537D02*
X016980Y012537D01*
X017079Y012636D02*
X017390Y012636D01*
X017390Y012734D02*
X017177Y012734D01*
X017276Y012833D02*
X017390Y012833D01*
X017390Y012931D02*
X017374Y012931D01*
X017575Y013916D02*
X021925Y013916D01*
X021844Y013818D02*
X017905Y013818D01*
X018004Y013719D02*
X021745Y013719D01*
X021647Y013621D02*
X018048Y013621D01*
X018068Y013522D02*
X021548Y013522D01*
X021450Y013424D02*
X018068Y013424D01*
X018031Y013325D02*
X021351Y013325D01*
X021253Y013227D02*
X017970Y013227D01*
X017970Y013128D02*
X021154Y013128D01*
X021056Y013030D02*
X017970Y013030D01*
X017970Y012931D02*
X020957Y012931D01*
X020859Y012833D02*
X017970Y012833D01*
X017975Y012734D02*
X020760Y012734D01*
X020662Y012636D02*
X018073Y012636D01*
X018172Y012537D02*
X020563Y012537D01*
X020465Y012439D02*
X018270Y012439D01*
X018369Y012340D02*
X020366Y012340D01*
X020268Y012242D02*
X018467Y012242D01*
X018566Y012143D02*
X020169Y012143D01*
X020071Y012045D02*
X018664Y012045D01*
X018763Y011946D02*
X019208Y011946D01*
X019110Y011848D02*
X018861Y011848D01*
X018960Y011749D02*
X019064Y011749D01*
X019571Y011257D02*
X020020Y011257D01*
X020126Y011158D02*
X019551Y011158D01*
X019649Y011060D02*
X020233Y011060D01*
X020340Y010961D02*
X019748Y010961D01*
X019846Y010863D02*
X020446Y010863D01*
X020553Y010764D02*
X019945Y010764D01*
X020043Y010666D02*
X020660Y010666D01*
X020766Y010567D02*
X020142Y010567D01*
X020240Y010469D02*
X020873Y010469D01*
X020980Y010370D02*
X020339Y010370D01*
X020437Y010272D02*
X021087Y010272D01*
X021193Y010173D02*
X020536Y010173D01*
X020634Y010075D02*
X021300Y010075D01*
X021373Y009976D02*
X020733Y009976D01*
X020831Y009878D02*
X021274Y009878D01*
X021210Y009779D02*
X020927Y009779D01*
X020968Y009681D02*
X021210Y009681D01*
X021210Y009582D02*
X020970Y009582D01*
X020970Y009484D02*
X021210Y009484D01*
X021249Y009385D02*
X020970Y009385D01*
X020970Y009287D02*
X021347Y009287D01*
X021446Y009188D02*
X020970Y009188D01*
X020970Y009090D02*
X023791Y009090D01*
X023791Y009188D02*
X021914Y009188D01*
X022013Y009287D02*
X023791Y009287D01*
X023791Y009385D02*
X022111Y009385D01*
X022150Y009484D02*
X023791Y009484D01*
X023791Y009582D02*
X022150Y009582D01*
X022150Y009681D02*
X023791Y009681D01*
X023791Y009779D02*
X022150Y009779D01*
X022086Y009878D02*
X023791Y009878D01*
X023791Y009976D02*
X021987Y009976D01*
X021972Y010075D02*
X023791Y010075D01*
X023791Y010173D02*
X021970Y010173D01*
X021930Y010272D02*
X023791Y010272D01*
X023791Y010370D02*
X021835Y010370D01*
X021728Y010469D02*
X023791Y010469D01*
X023791Y010567D02*
X021622Y010567D01*
X021515Y010666D02*
X023791Y010666D01*
X023791Y010764D02*
X021408Y010764D01*
X021301Y010863D02*
X023791Y010863D01*
X023791Y010961D02*
X021195Y010961D01*
X021088Y011060D02*
X023791Y011060D01*
X023791Y011158D02*
X020981Y011158D01*
X020875Y011257D02*
X023791Y011257D01*
X023791Y011355D02*
X020768Y011355D01*
X020661Y011454D02*
X023791Y011454D01*
X023791Y011552D02*
X020554Y011552D01*
X020497Y011651D02*
X023791Y011651D01*
X023791Y011749D02*
X020596Y011749D01*
X020694Y011848D02*
X023791Y011848D01*
X023791Y011946D02*
X020793Y011946D01*
X020891Y012045D02*
X021967Y012045D01*
X021868Y012143D02*
X020990Y012143D01*
X021088Y012242D02*
X021850Y012242D01*
X021850Y012340D02*
X021187Y012340D01*
X021285Y012439D02*
X021850Y012439D01*
X021850Y012537D02*
X021384Y012537D01*
X021482Y012636D02*
X021850Y012636D01*
X021850Y012734D02*
X021581Y012734D01*
X021679Y012833D02*
X021850Y012833D01*
X021850Y012931D02*
X021778Y012931D01*
X022006Y014015D02*
X017575Y014015D01*
X017575Y014113D02*
X022108Y014113D01*
X022105Y014212D02*
X017575Y014212D01*
X017575Y014310D02*
X022011Y014310D01*
X021953Y014409D02*
X017575Y014409D01*
X017575Y014507D02*
X021921Y014507D01*
X021917Y014704D02*
X017575Y014704D01*
X017575Y014606D02*
X022380Y014606D01*
X022480Y014606D02*
X023791Y014606D01*
X023791Y014704D02*
X022943Y014704D01*
X022917Y014803D02*
X023791Y014803D01*
X023791Y014901D02*
X022867Y014901D01*
X022784Y015000D02*
X023791Y015000D01*
X023791Y015098D02*
X022689Y015098D01*
X022828Y015197D02*
X023791Y015197D01*
X023791Y015295D02*
X022924Y015295D01*
X022965Y015394D02*
X023791Y015394D01*
X023791Y015492D02*
X023005Y015492D01*
X023010Y015591D02*
X023791Y015591D01*
X023791Y015689D02*
X023010Y015689D01*
X022988Y015788D02*
X023791Y015788D01*
X023791Y015886D02*
X022947Y015886D01*
X022884Y015985D02*
X023791Y015985D01*
X023791Y016083D02*
X022786Y016083D01*
X022813Y016182D02*
X023791Y016182D01*
X023791Y016280D02*
X022912Y016280D01*
X022958Y016379D02*
X023791Y016379D01*
X023791Y016477D02*
X022999Y016477D01*
X023010Y016576D02*
X023791Y016576D01*
X023791Y016674D02*
X023010Y016674D01*
X022994Y016773D02*
X023791Y016773D01*
X023791Y016871D02*
X022953Y016871D01*
X022899Y016970D02*
X023791Y016970D01*
X023791Y017068D02*
X022801Y017068D01*
X022622Y017167D02*
X023791Y017167D01*
X023791Y017265D02*
X003929Y017265D01*
X003889Y017364D02*
X023791Y017364D01*
X023791Y017462D02*
X003822Y017462D01*
X003909Y017561D02*
X023791Y017561D01*
X023791Y017659D02*
X004007Y017659D01*
X004010Y017758D02*
X023791Y017758D01*
X023791Y017856D02*
X004010Y017856D01*
X004010Y017955D02*
X023791Y017955D01*
X023791Y018053D02*
X004010Y018053D01*
X004010Y018152D02*
X023791Y018152D01*
X023791Y018250D02*
X012221Y018250D01*
X012433Y018349D02*
X023791Y018349D01*
X023791Y018447D02*
X012531Y018447D01*
X012608Y018546D02*
X023791Y018546D01*
X023791Y018644D02*
X012649Y018644D01*
X012690Y018940D02*
X023791Y018940D01*
X023791Y019038D02*
X012672Y019038D01*
X012631Y019137D02*
X023791Y019137D01*
X023791Y019235D02*
X012586Y019235D01*
X012488Y019334D02*
X023791Y019334D01*
X023791Y019432D02*
X012354Y019432D01*
X011461Y018644D02*
X003941Y018644D01*
X004010Y018546D02*
X011501Y018546D01*
X011578Y018447D02*
X004010Y018447D01*
X004010Y018349D02*
X011677Y018349D01*
X011889Y018250D02*
X004010Y018250D01*
X003948Y017069D02*
X003480Y017069D01*
X003480Y016600D01*
X003552Y016612D01*
X003630Y016637D01*
X003702Y016674D01*
X003769Y016722D01*
X003827Y016780D01*
X003875Y016846D01*
X003912Y016919D01*
X003937Y016997D01*
X003948Y017069D01*
X003948Y017068D02*
X022059Y017068D01*
X021961Y016970D02*
X003928Y016970D01*
X003887Y016871D02*
X021907Y016871D01*
X021866Y016773D02*
X003819Y016773D01*
X003703Y016674D02*
X021850Y016674D01*
X022237Y017167D02*
X003480Y017167D01*
X003480Y017068D02*
X003380Y017068D01*
X003380Y016970D02*
X003480Y016970D01*
X003480Y016871D02*
X003380Y016871D01*
X003380Y016773D02*
X003480Y016773D01*
X003480Y016674D02*
X003380Y016674D01*
X003157Y016674D02*
X002703Y016674D01*
X002819Y016773D02*
X003040Y016773D01*
X002972Y016871D02*
X002887Y016871D01*
X002928Y016970D02*
X002932Y016970D01*
X002480Y016970D02*
X002380Y016970D01*
X002380Y017068D02*
X002480Y017068D01*
X002480Y017167D02*
X003380Y017167D01*
X002480Y016871D02*
X002380Y016871D01*
X002380Y016773D02*
X002480Y016773D01*
X002480Y016674D02*
X002380Y016674D01*
X002380Y017167D02*
X001069Y017167D01*
X003400Y021008D02*
X003460Y021008D01*
X003460Y021107D02*
X003400Y021107D01*
X003400Y021205D02*
X003460Y021205D01*
X003460Y021304D02*
X003400Y021304D01*
X003400Y021402D02*
X003460Y021402D01*
X003460Y021501D02*
X003400Y021501D01*
X003400Y021698D02*
X003460Y021698D01*
X003460Y021796D02*
X003400Y021796D01*
X003400Y021895D02*
X003460Y021895D01*
X003460Y021993D02*
X003400Y021993D01*
X003400Y022092D02*
X003460Y022092D01*
X003460Y022190D02*
X003400Y022190D01*
X004668Y022289D02*
X005192Y022289D01*
X005077Y022190D02*
X004783Y022190D01*
X004850Y022092D02*
X005009Y022092D01*
X004969Y021993D02*
X004891Y021993D01*
X004900Y021895D02*
X004960Y021895D01*
X004960Y021796D02*
X004900Y021796D01*
X004900Y021698D02*
X004960Y021698D01*
X004960Y021599D02*
X004900Y021599D01*
X004900Y021501D02*
X004960Y021501D01*
X004960Y021402D02*
X004900Y021402D01*
X004900Y021304D02*
X004960Y021304D01*
X004985Y021205D02*
X004875Y021205D01*
X004834Y021107D02*
X005026Y021107D01*
X005116Y021008D02*
X004744Y021008D01*
X005668Y022289D02*
X006192Y022289D01*
X006077Y022190D02*
X005783Y022190D01*
X005850Y022092D02*
X006009Y022092D01*
X005969Y021993D02*
X005891Y021993D01*
X005900Y021895D02*
X005960Y021895D01*
X005960Y021796D02*
X005900Y021796D01*
X005900Y021698D02*
X005960Y021698D01*
X005960Y021599D02*
X005900Y021599D01*
X005900Y021501D02*
X005960Y021501D01*
X005960Y021402D02*
X005900Y021402D01*
X005900Y021304D02*
X005960Y021304D01*
X005985Y021205D02*
X005875Y021205D01*
X005834Y021107D02*
X006026Y021107D01*
X006116Y021008D02*
X005744Y021008D01*
X006668Y022289D02*
X007192Y022289D01*
X007077Y022190D02*
X006783Y022190D01*
X006850Y022092D02*
X007009Y022092D01*
X006969Y021993D02*
X006891Y021993D01*
X006900Y021895D02*
X006960Y021895D01*
X006960Y021796D02*
X006900Y021796D01*
X006900Y021698D02*
X006960Y021698D01*
X006960Y021599D02*
X006900Y021599D01*
X006900Y021501D02*
X006960Y021501D01*
X006960Y021402D02*
X006900Y021402D01*
X006900Y021304D02*
X006960Y021304D01*
X006985Y021205D02*
X006875Y021205D01*
X006834Y021107D02*
X007026Y021107D01*
X007116Y021008D02*
X006744Y021008D01*
X007668Y022289D02*
X008192Y022289D01*
X008077Y022190D02*
X007783Y022190D01*
X007850Y022092D02*
X008009Y022092D01*
X007969Y021993D02*
X007891Y021993D01*
X007900Y021895D02*
X007960Y021895D01*
X007960Y021796D02*
X007900Y021796D01*
X007900Y021698D02*
X007960Y021698D01*
X007960Y021599D02*
X007900Y021599D01*
X007900Y021501D02*
X007960Y021501D01*
X007960Y021402D02*
X007900Y021402D01*
X007900Y021304D02*
X007960Y021304D01*
X007985Y021205D02*
X007875Y021205D01*
X007834Y021107D02*
X008026Y021107D01*
X008116Y021008D02*
X007744Y021008D01*
X008668Y022289D02*
X009192Y022289D01*
X009077Y022190D02*
X008783Y022190D01*
X008850Y022092D02*
X009009Y022092D01*
X008969Y021993D02*
X008891Y021993D01*
X008900Y021895D02*
X008960Y021895D01*
X008960Y021796D02*
X008900Y021796D01*
X008900Y021698D02*
X008960Y021698D01*
X008960Y021599D02*
X008900Y021599D01*
X008900Y021501D02*
X008960Y021501D01*
X008960Y021402D02*
X008900Y021402D01*
X008900Y021304D02*
X008960Y021304D01*
X008985Y021205D02*
X008875Y021205D01*
X008834Y021107D02*
X009026Y021107D01*
X009116Y021008D02*
X008744Y021008D01*
X009668Y022289D02*
X010192Y022289D01*
X010077Y022190D02*
X009783Y022190D01*
X009850Y022092D02*
X010009Y022092D01*
X009969Y021993D02*
X009891Y021993D01*
X009900Y021895D02*
X009960Y021895D01*
X009960Y021796D02*
X009900Y021796D01*
X009900Y021698D02*
X009960Y021698D01*
X009960Y021599D02*
X009900Y021599D01*
X009900Y021501D02*
X009960Y021501D01*
X009960Y021402D02*
X009900Y021402D01*
X009900Y021304D02*
X009960Y021304D01*
X009985Y021205D02*
X009875Y021205D01*
X009834Y021107D02*
X010026Y021107D01*
X010116Y021008D02*
X009744Y021008D01*
X010668Y022289D02*
X011192Y022289D01*
X011077Y022190D02*
X010783Y022190D01*
X010850Y022092D02*
X011009Y022092D01*
X010969Y021993D02*
X010891Y021993D01*
X010900Y021895D02*
X010960Y021895D01*
X010960Y021796D02*
X010900Y021796D01*
X010900Y021698D02*
X010960Y021698D01*
X010960Y021599D02*
X010900Y021599D01*
X010900Y021501D02*
X010960Y021501D01*
X010960Y021402D02*
X010900Y021402D01*
X010900Y021304D02*
X010960Y021304D01*
X010985Y021205D02*
X010875Y021205D01*
X010834Y021107D02*
X011026Y021107D01*
X011116Y021008D02*
X010744Y021008D01*
X011668Y022289D02*
X013192Y022289D01*
X013077Y022190D02*
X011783Y022190D01*
X011850Y022092D02*
X013009Y022092D01*
X012969Y021993D02*
X011891Y021993D01*
X011900Y021895D02*
X012960Y021895D01*
X012960Y021796D02*
X011900Y021796D01*
X011900Y021698D02*
X012960Y021698D01*
X012960Y021599D02*
X011900Y021599D01*
X011900Y021501D02*
X012960Y021501D01*
X012960Y021402D02*
X011900Y021402D01*
X011900Y021304D02*
X012960Y021304D01*
X012985Y021205D02*
X011875Y021205D01*
X011834Y021107D02*
X013026Y021107D01*
X013116Y021008D02*
X011744Y021008D01*
X013668Y022289D02*
X014192Y022289D01*
X014077Y022190D02*
X013783Y022190D01*
X013850Y022092D02*
X014009Y022092D01*
X013969Y021993D02*
X013891Y021993D01*
X013900Y021895D02*
X013960Y021895D01*
X013960Y021796D02*
X013900Y021796D01*
X013900Y021698D02*
X013960Y021698D01*
X013960Y021599D02*
X013900Y021599D01*
X013900Y021501D02*
X013960Y021501D01*
X013960Y021402D02*
X013900Y021402D01*
X013900Y021304D02*
X013960Y021304D01*
X013985Y021205D02*
X013875Y021205D01*
X013834Y021107D02*
X014026Y021107D01*
X014116Y021008D02*
X013744Y021008D01*
X014744Y021008D02*
X015116Y021008D01*
X015026Y021107D02*
X014834Y021107D01*
X014875Y021205D02*
X014985Y021205D01*
X014960Y021304D02*
X014900Y021304D01*
X014900Y021402D02*
X014960Y021402D01*
X014960Y021501D02*
X014900Y021501D01*
X014900Y021599D02*
X014960Y021599D01*
X014960Y021698D02*
X014900Y021698D01*
X014900Y021796D02*
X014960Y021796D01*
X014960Y021895D02*
X014900Y021895D01*
X014891Y021993D02*
X014969Y021993D01*
X015009Y022092D02*
X014850Y022092D01*
X014783Y022190D02*
X015077Y022190D01*
X015192Y022289D02*
X014668Y022289D01*
X015668Y022289D02*
X016192Y022289D01*
X016077Y022190D02*
X015783Y022190D01*
X015850Y022092D02*
X016009Y022092D01*
X015969Y021993D02*
X015891Y021993D01*
X015900Y021895D02*
X015960Y021895D01*
X015960Y021796D02*
X015900Y021796D01*
X015900Y021698D02*
X015960Y021698D01*
X015960Y021599D02*
X015900Y021599D01*
X015900Y021501D02*
X015960Y021501D01*
X015960Y021402D02*
X015900Y021402D01*
X015900Y021304D02*
X015960Y021304D01*
X015985Y021205D02*
X015875Y021205D01*
X015834Y021107D02*
X016026Y021107D01*
X016116Y021008D02*
X015744Y021008D01*
X016744Y021008D02*
X017116Y021008D01*
X017026Y021107D02*
X016834Y021107D01*
X016875Y021205D02*
X016985Y021205D01*
X016960Y021304D02*
X016900Y021304D01*
X016900Y021402D02*
X016960Y021402D01*
X016960Y021501D02*
X016900Y021501D01*
X016900Y021599D02*
X016960Y021599D01*
X016960Y021698D02*
X016900Y021698D01*
X016900Y021796D02*
X016960Y021796D01*
X016960Y021895D02*
X016900Y021895D01*
X016891Y021993D02*
X016969Y021993D01*
X017009Y022092D02*
X016850Y022092D01*
X016783Y022190D02*
X017077Y022190D01*
X017192Y022289D02*
X016668Y022289D01*
X017668Y022289D02*
X018192Y022289D01*
X018077Y022190D02*
X017783Y022190D01*
X017850Y022092D02*
X018009Y022092D01*
X017969Y021993D02*
X017891Y021993D01*
X017900Y021895D02*
X017960Y021895D01*
X017960Y021796D02*
X017900Y021796D01*
X017900Y021698D02*
X017960Y021698D01*
X017960Y021599D02*
X017900Y021599D01*
X017900Y021501D02*
X017960Y021501D01*
X017960Y021402D02*
X017900Y021402D01*
X017900Y021304D02*
X017960Y021304D01*
X017985Y021205D02*
X017875Y021205D01*
X017834Y021107D02*
X018026Y021107D01*
X018116Y021008D02*
X017744Y021008D01*
X018744Y021008D02*
X019116Y021008D01*
X019026Y021107D02*
X018834Y021107D01*
X018875Y021205D02*
X018985Y021205D01*
X018960Y021304D02*
X018900Y021304D01*
X018900Y021402D02*
X018960Y021402D01*
X018960Y021501D02*
X018900Y021501D01*
X018900Y021599D02*
X018960Y021599D01*
X018960Y021698D02*
X018900Y021698D01*
X018900Y021796D02*
X018960Y021796D01*
X018960Y021895D02*
X018900Y021895D01*
X018891Y021993D02*
X018969Y021993D01*
X019009Y022092D02*
X018850Y022092D01*
X018783Y022190D02*
X019077Y022190D01*
X019192Y022289D02*
X018668Y022289D01*
X019668Y022289D02*
X020192Y022289D01*
X020077Y022190D02*
X019783Y022190D01*
X019850Y022092D02*
X020009Y022092D01*
X019969Y021993D02*
X019891Y021993D01*
X019900Y021895D02*
X019960Y021895D01*
X019960Y021796D02*
X019900Y021796D01*
X019900Y021698D02*
X019960Y021698D01*
X019960Y021599D02*
X019900Y021599D01*
X019900Y021501D02*
X019960Y021501D01*
X019960Y021402D02*
X019900Y021402D01*
X019900Y021304D02*
X019960Y021304D01*
X019985Y021205D02*
X019875Y021205D01*
X019834Y021107D02*
X020026Y021107D01*
X020116Y021008D02*
X019744Y021008D01*
X021872Y015788D02*
X017560Y015788D01*
X017644Y015689D02*
X021850Y015689D01*
X021850Y015591D02*
X017685Y015591D01*
X017693Y015492D02*
X021855Y015492D01*
X021895Y015394D02*
X017684Y015394D01*
X017643Y015295D02*
X021936Y015295D01*
X022032Y015197D02*
X017575Y015197D01*
X017575Y015098D02*
X022171Y015098D01*
X022076Y015000D02*
X017575Y015000D01*
X017575Y014901D02*
X021992Y014901D01*
X021943Y014803D02*
X017575Y014803D01*
X015758Y012242D02*
X013419Y012242D01*
X013538Y011552D02*
X015697Y011552D01*
X014063Y007647D02*
X013833Y007742D01*
X013585Y007742D01*
X013356Y007647D01*
X013181Y007472D01*
X013086Y007243D01*
X013086Y006995D01*
X013181Y006766D01*
X013356Y006590D01*
X013585Y006496D01*
X013833Y006496D01*
X014063Y006590D01*
X014238Y006766D01*
X014333Y006995D01*
X014333Y007243D01*
X014238Y007472D01*
X014063Y007647D01*
X014098Y007612D02*
X021650Y007612D01*
X021650Y007589D02*
X021270Y007589D01*
X021270Y007449D01*
X021510Y007209D01*
X021650Y007209D01*
X021650Y007589D01*
X021650Y007649D01*
X021650Y008029D01*
X021510Y008029D01*
X021270Y007789D01*
X021270Y007649D01*
X021650Y007649D01*
X021710Y007649D01*
X021710Y008029D01*
X021850Y008029D01*
X022090Y007789D01*
X022090Y007649D01*
X021710Y007649D01*
X021710Y007589D01*
X022090Y007589D01*
X022090Y007449D01*
X021850Y007209D01*
X021710Y007209D01*
X021710Y007589D01*
X021650Y007589D01*
X021710Y007612D02*
X023791Y007612D01*
X023791Y007514D02*
X022090Y007514D01*
X022056Y007415D02*
X023791Y007415D01*
X023791Y007317D02*
X021958Y007317D01*
X021859Y007218D02*
X023791Y007218D01*
X023791Y007120D02*
X014333Y007120D01*
X014333Y007218D02*
X021501Y007218D01*
X021402Y007317D02*
X014302Y007317D01*
X014261Y007415D02*
X021304Y007415D01*
X021270Y007514D02*
X014196Y007514D01*
X014333Y007021D02*
X023791Y007021D01*
X023791Y006923D02*
X014303Y006923D01*
X014262Y006824D02*
X023791Y006824D01*
X023791Y006726D02*
X014198Y006726D01*
X014100Y006627D02*
X023791Y006627D01*
X023791Y006529D02*
X013914Y006529D01*
X013505Y006529D02*
X001069Y006529D01*
X001069Y006627D02*
X010874Y006627D01*
X010855Y006637D02*
X010934Y006597D01*
X011018Y006569D01*
X011100Y006556D01*
X011100Y007069D01*
X010588Y007069D01*
X010601Y006987D01*
X010628Y006903D01*
X010669Y006824D01*
X010721Y006752D01*
X010783Y006689D01*
X010855Y006637D01*
X010747Y006726D02*
X001069Y006726D01*
X001069Y006824D02*
X010668Y006824D01*
X010622Y006923D02*
X001069Y006923D01*
X001069Y007021D02*
X010595Y007021D01*
X010588Y007169D02*
X011100Y007169D01*
X011100Y007069D01*
X011200Y007069D01*
X011200Y006556D01*
X011282Y006569D01*
X011367Y006597D01*
X011446Y006637D01*
X011517Y006689D01*
X011580Y006752D01*
X011632Y006824D01*
X011673Y006903D01*
X011700Y006987D01*
X011713Y007069D01*
X011200Y007069D01*
X011200Y007169D01*
X011100Y007169D01*
X011100Y007681D01*
X011018Y007668D01*
X010934Y007641D01*
X010855Y007601D01*
X010783Y007549D01*
X010721Y007486D01*
X010669Y007414D01*
X010628Y007335D01*
X010601Y007251D01*
X010588Y007169D01*
X010596Y007218D02*
X001069Y007218D01*
X001069Y007120D02*
X011100Y007120D01*
X011100Y007218D02*
X011200Y007218D01*
X011200Y007169D02*
X011200Y007681D01*
X011282Y007668D01*
X011367Y007641D01*
X011446Y007601D01*
X011517Y007549D01*
X011580Y007486D01*
X011632Y007414D01*
X011673Y007335D01*
X011700Y007251D01*
X011713Y007169D01*
X011200Y007169D01*
X011200Y007120D02*
X013086Y007120D01*
X013086Y007218D02*
X011705Y007218D01*
X011678Y007317D02*
X013117Y007317D01*
X013158Y007415D02*
X011631Y007415D01*
X011552Y007514D02*
X013223Y007514D01*
X013321Y007612D02*
X011423Y007612D01*
X011200Y007612D02*
X011100Y007612D01*
X011100Y007514D02*
X011200Y007514D01*
X011200Y007415D02*
X011100Y007415D01*
X011100Y007317D02*
X011200Y007317D01*
X011200Y007021D02*
X011100Y007021D01*
X011100Y006923D02*
X011200Y006923D01*
X011200Y006824D02*
X011100Y006824D01*
X011100Y006726D02*
X011200Y006726D01*
X011200Y006627D02*
X011100Y006627D01*
X011427Y006627D02*
X013319Y006627D01*
X013221Y006726D02*
X011554Y006726D01*
X011633Y006824D02*
X013157Y006824D01*
X013116Y006923D02*
X011679Y006923D01*
X011705Y007021D02*
X013086Y007021D01*
X013510Y007711D02*
X002842Y007711D01*
X002922Y007790D02*
X003010Y008004D01*
X003010Y008234D01*
X002922Y008447D01*
X002830Y008539D01*
X002887Y008539D01*
X003010Y008662D01*
X003010Y009576D01*
X002887Y009699D01*
X001973Y009699D01*
X001850Y009576D01*
X001850Y008662D01*
X001973Y008539D01*
X002030Y008539D01*
X001938Y008447D01*
X001850Y008234D01*
X001850Y008004D01*
X001938Y007790D01*
X002101Y007627D01*
X002315Y007539D01*
X002545Y007539D01*
X002758Y007627D01*
X002922Y007790D01*
X002930Y007809D02*
X021291Y007809D01*
X021270Y007711D02*
X013909Y007711D01*
X013900Y005539D02*
X013898Y005539D01*
X013834Y005529D01*
X013773Y005509D01*
X013715Y005480D01*
X013663Y005442D01*
X013617Y005396D01*
X013579Y005344D01*
X013550Y005286D01*
X013530Y005225D01*
X013520Y005161D01*
X013520Y004899D01*
X013900Y004899D01*
X013900Y005539D01*
X013960Y005539D02*
X013960Y004899D01*
X013900Y004899D01*
X013900Y004839D01*
X013520Y004839D01*
X013520Y004577D01*
X013530Y004513D01*
X013550Y004452D01*
X013579Y004394D01*
X013617Y004342D01*
X013663Y004296D01*
X013715Y004258D01*
X013773Y004229D01*
X013834Y004209D01*
X013898Y004199D01*
X013900Y004199D01*
X013900Y004839D01*
X013960Y004839D01*
X013960Y004899D01*
X014340Y004899D01*
X014340Y005161D01*
X014330Y005225D01*
X014310Y005286D01*
X014281Y005344D01*
X014243Y005396D01*
X014197Y005442D01*
X014145Y005480D01*
X014087Y005509D01*
X014026Y005529D01*
X013962Y005539D01*
X013960Y005539D01*
X013960Y005445D02*
X013900Y005445D01*
X013900Y005347D02*
X013960Y005347D01*
X013960Y005248D02*
X013900Y005248D01*
X013900Y005150D02*
X013960Y005150D01*
X013960Y005051D02*
X013900Y005051D01*
X013900Y004953D02*
X013960Y004953D01*
X013960Y004854D02*
X015460Y004854D01*
X015460Y004756D02*
X014340Y004756D01*
X014340Y004839D02*
X014340Y004577D01*
X014330Y004513D01*
X014310Y004452D01*
X014281Y004394D01*
X014243Y004342D01*
X014197Y004296D01*
X014145Y004258D01*
X014087Y004229D01*
X014026Y004209D01*
X013962Y004199D01*
X013960Y004199D01*
X013960Y004839D01*
X014340Y004839D01*
X014340Y004953D02*
X015460Y004953D01*
X015460Y005051D02*
X014340Y005051D01*
X014340Y005150D02*
X015460Y005150D01*
X015460Y005222D02*
X015460Y004515D01*
X015531Y004343D01*
X015664Y004210D01*
X015836Y004139D01*
X016023Y004139D01*
X016196Y004210D01*
X016328Y004343D01*
X016400Y004515D01*
X016400Y005222D01*
X016328Y005395D01*
X016196Y005527D01*
X016023Y005599D01*
X015836Y005599D01*
X015664Y005527D01*
X015531Y005395D01*
X015460Y005222D01*
X015471Y005248D02*
X014322Y005248D01*
X014278Y005347D02*
X015512Y005347D01*
X015582Y005445D02*
X014192Y005445D01*
X013900Y004854D02*
X012960Y004854D01*
X012960Y004839D02*
X012960Y004899D01*
X012900Y004899D01*
X012900Y005539D01*
X012898Y005539D01*
X012834Y005529D01*
X012773Y005509D01*
X012715Y005480D01*
X012663Y005442D01*
X012617Y005396D01*
X012579Y005344D01*
X012550Y005286D01*
X012530Y005225D01*
X012520Y005161D01*
X012520Y004899D01*
X012900Y004899D01*
X012900Y004839D01*
X012520Y004839D01*
X012520Y004577D01*
X012530Y004513D01*
X012550Y004452D01*
X012579Y004394D01*
X012617Y004342D01*
X012663Y004296D01*
X012715Y004258D01*
X012773Y004229D01*
X012834Y004209D01*
X012898Y004199D01*
X012900Y004199D01*
X012900Y004839D01*
X012960Y004839D01*
X013340Y004839D01*
X013340Y004577D01*
X013330Y004513D01*
X013310Y004452D01*
X013281Y004394D01*
X013243Y004342D01*
X013197Y004296D01*
X013145Y004258D01*
X013087Y004229D01*
X013026Y004209D01*
X012962Y004199D01*
X012960Y004199D01*
X012960Y004839D01*
X012960Y004899D02*
X013340Y004899D01*
X013340Y005161D01*
X013330Y005225D01*
X013310Y005286D01*
X013281Y005344D01*
X013243Y005396D01*
X013197Y005442D01*
X013145Y005480D01*
X013087Y005509D01*
X013026Y005529D01*
X012962Y005539D01*
X012960Y005539D01*
X012960Y004899D01*
X012960Y004953D02*
X012900Y004953D01*
X012900Y005051D02*
X012960Y005051D01*
X012960Y005150D02*
X012900Y005150D01*
X012900Y005248D02*
X012960Y005248D01*
X012960Y005347D02*
X012900Y005347D01*
X012900Y005445D02*
X012960Y005445D01*
X013192Y005445D02*
X013668Y005445D01*
X013582Y005347D02*
X013278Y005347D01*
X013322Y005248D02*
X013538Y005248D01*
X013520Y005150D02*
X013340Y005150D01*
X013340Y005051D02*
X013520Y005051D01*
X013520Y004953D02*
X013340Y004953D01*
X013340Y004756D02*
X013520Y004756D01*
X013520Y004657D02*
X013340Y004657D01*
X013337Y004559D02*
X013523Y004559D01*
X013547Y004460D02*
X013313Y004460D01*
X013257Y004362D02*
X013603Y004362D01*
X013708Y004263D02*
X013152Y004263D01*
X012960Y004263D02*
X012900Y004263D01*
X012900Y004362D02*
X012960Y004362D01*
X012960Y004460D02*
X012900Y004460D01*
X012900Y004559D02*
X012960Y004559D01*
X012960Y004657D02*
X012900Y004657D01*
X012900Y004756D02*
X012960Y004756D01*
X012900Y004854D02*
X012400Y004854D01*
X012400Y004756D02*
X012520Y004756D01*
X012520Y004657D02*
X012400Y004657D01*
X012400Y004559D02*
X012523Y004559D01*
X012547Y004460D02*
X012377Y004460D01*
X012400Y004515D02*
X012328Y004343D01*
X012196Y004210D01*
X012023Y004139D01*
X011836Y004139D01*
X011664Y004210D01*
X011531Y004343D01*
X011460Y004515D01*
X011460Y005222D01*
X011531Y005395D01*
X011664Y005527D01*
X011836Y005599D01*
X012023Y005599D01*
X012196Y005527D01*
X012328Y005395D01*
X012400Y005222D01*
X012400Y004515D01*
X012336Y004362D02*
X012603Y004362D01*
X012708Y004263D02*
X012249Y004263D01*
X012086Y004165D02*
X015774Y004165D01*
X015611Y004263D02*
X014152Y004263D01*
X014257Y004362D02*
X015524Y004362D01*
X015483Y004460D02*
X014313Y004460D01*
X014337Y004559D02*
X015460Y004559D01*
X015460Y004657D02*
X014340Y004657D01*
X013960Y004657D02*
X013900Y004657D01*
X013900Y004559D02*
X013960Y004559D01*
X013960Y004460D02*
X013900Y004460D01*
X013900Y004362D02*
X013960Y004362D01*
X013960Y004263D02*
X013900Y004263D01*
X013900Y004756D02*
X013960Y004756D01*
X012520Y004953D02*
X012400Y004953D01*
X012400Y005051D02*
X012520Y005051D01*
X012520Y005150D02*
X012400Y005150D01*
X012389Y005248D02*
X012538Y005248D01*
X012582Y005347D02*
X012348Y005347D01*
X012278Y005445D02*
X012668Y005445D01*
X012156Y005544D02*
X015704Y005544D01*
X016156Y005544D02*
X016704Y005544D01*
X016664Y005527D02*
X016531Y005395D01*
X016460Y005222D01*
X016460Y004515D01*
X016531Y004343D01*
X016664Y004210D01*
X016836Y004139D01*
X017023Y004139D01*
X017196Y004210D01*
X017328Y004343D01*
X017400Y004515D01*
X017400Y005222D01*
X017328Y005395D01*
X017196Y005527D01*
X017023Y005599D01*
X016836Y005599D01*
X016664Y005527D01*
X016582Y005445D02*
X016278Y005445D01*
X016348Y005347D02*
X016512Y005347D01*
X016471Y005248D02*
X016389Y005248D01*
X016400Y005150D02*
X016460Y005150D01*
X016460Y005051D02*
X016400Y005051D01*
X016400Y004953D02*
X016460Y004953D01*
X016460Y004854D02*
X016400Y004854D01*
X016400Y004756D02*
X016460Y004756D01*
X016460Y004657D02*
X016400Y004657D01*
X016400Y004559D02*
X016460Y004559D01*
X016483Y004460D02*
X016377Y004460D01*
X016336Y004362D02*
X016524Y004362D01*
X016611Y004263D02*
X016249Y004263D01*
X016086Y004165D02*
X016774Y004165D01*
X017086Y004165D02*
X017774Y004165D01*
X017836Y004139D02*
X018023Y004139D01*
X018196Y004210D01*
X018328Y004343D01*
X018400Y004515D01*
X018400Y005222D01*
X018328Y005395D01*
X018196Y005527D01*
X018023Y005599D01*
X017836Y005599D01*
X017664Y005527D01*
X017531Y005395D01*
X017460Y005222D01*
X017460Y004515D01*
X017531Y004343D01*
X017664Y004210D01*
X017836Y004139D01*
X018086Y004165D02*
X018774Y004165D01*
X018836Y004139D02*
X019023Y004139D01*
X019196Y004210D01*
X019328Y004343D01*
X019400Y004515D01*
X019400Y005222D01*
X019328Y005395D01*
X019196Y005527D01*
X019023Y005599D01*
X018836Y005599D01*
X018664Y005527D01*
X018531Y005395D01*
X018460Y005222D01*
X018460Y004515D01*
X018531Y004343D01*
X018664Y004210D01*
X018836Y004139D01*
X019086Y004165D02*
X023791Y004165D01*
X023791Y004263D02*
X019249Y004263D01*
X019336Y004362D02*
X023791Y004362D01*
X023791Y004460D02*
X019377Y004460D01*
X019400Y004559D02*
X023791Y004559D01*
X023791Y004657D02*
X019400Y004657D01*
X019400Y004756D02*
X023791Y004756D01*
X023791Y004854D02*
X019400Y004854D01*
X019400Y004953D02*
X023791Y004953D01*
X023791Y005051D02*
X019400Y005051D01*
X019400Y005150D02*
X023791Y005150D01*
X023791Y005248D02*
X019389Y005248D01*
X019348Y005347D02*
X023791Y005347D01*
X023791Y005445D02*
X019278Y005445D01*
X019156Y005544D02*
X023791Y005544D01*
X023791Y005642D02*
X001069Y005642D01*
X001069Y005544D02*
X010704Y005544D01*
X010664Y005527D02*
X010836Y005599D01*
X011023Y005599D01*
X011196Y005527D01*
X011328Y005395D01*
X011400Y005222D01*
X011400Y004515D01*
X011328Y004343D01*
X011196Y004210D01*
X011023Y004139D01*
X010836Y004139D01*
X010664Y004210D01*
X010531Y004343D01*
X010460Y004515D01*
X010460Y005222D01*
X010531Y005395D01*
X010664Y005527D01*
X010582Y005445D02*
X001069Y005445D01*
X001069Y005347D02*
X010512Y005347D01*
X010471Y005248D02*
X001069Y005248D01*
X001069Y005150D02*
X005424Y005150D01*
X005473Y005199D02*
X005350Y005076D01*
X005350Y004162D01*
X005473Y004039D01*
X006387Y004039D01*
X006510Y004162D01*
X006510Y004219D01*
X006601Y004127D01*
X006815Y004039D01*
X007045Y004039D01*
X007258Y004127D01*
X007422Y004290D01*
X007430Y004310D01*
X007438Y004290D01*
X007601Y004127D01*
X007815Y004039D01*
X008045Y004039D01*
X008258Y004127D01*
X008422Y004290D01*
X008510Y004504D01*
X008510Y004734D01*
X008422Y004947D01*
X008258Y005111D01*
X008045Y005199D01*
X007815Y005199D01*
X007601Y005111D01*
X007438Y004947D01*
X007430Y004927D01*
X007422Y004947D01*
X007258Y005111D01*
X007045Y005199D01*
X006815Y005199D01*
X006601Y005111D01*
X006510Y005019D01*
X006510Y005076D01*
X006387Y005199D01*
X005473Y005199D01*
X005350Y005051D02*
X001069Y005051D01*
X001069Y004953D02*
X005350Y004953D01*
X005350Y004854D02*
X001069Y004854D01*
X001069Y004756D02*
X005350Y004756D01*
X005350Y004657D02*
X001069Y004657D01*
X001069Y004559D02*
X005350Y004559D01*
X005350Y004460D02*
X001069Y004460D01*
X001069Y004362D02*
X005350Y004362D01*
X005350Y004263D02*
X001069Y004263D01*
X001069Y004165D02*
X005350Y004165D01*
X005445Y004066D02*
X001069Y004066D01*
X001069Y003968D02*
X023791Y003968D01*
X023791Y004066D02*
X008112Y004066D01*
X008296Y004165D02*
X010774Y004165D01*
X010611Y004263D02*
X008395Y004263D01*
X008451Y004362D02*
X010524Y004362D01*
X010483Y004460D02*
X008492Y004460D01*
X008510Y004559D02*
X010460Y004559D01*
X010460Y004657D02*
X008510Y004657D01*
X008501Y004756D02*
X010460Y004756D01*
X010460Y004854D02*
X008460Y004854D01*
X008416Y004953D02*
X010460Y004953D01*
X010460Y005051D02*
X008318Y005051D01*
X008164Y005150D02*
X010460Y005150D01*
X011156Y005544D02*
X011704Y005544D01*
X011582Y005445D02*
X011278Y005445D01*
X011348Y005347D02*
X011512Y005347D01*
X011471Y005248D02*
X011389Y005248D01*
X011400Y005150D02*
X011460Y005150D01*
X011460Y005051D02*
X011400Y005051D01*
X011400Y004953D02*
X011460Y004953D01*
X011460Y004854D02*
X011400Y004854D01*
X011400Y004756D02*
X011460Y004756D01*
X011460Y004657D02*
X011400Y004657D01*
X011400Y004559D02*
X011460Y004559D01*
X011483Y004460D02*
X011377Y004460D01*
X011336Y004362D02*
X011524Y004362D01*
X011611Y004263D02*
X011249Y004263D01*
X011086Y004165D02*
X011774Y004165D01*
X011898Y002539D02*
X011834Y002529D01*
X011773Y002509D01*
X011715Y002480D01*
X011663Y002442D01*
X011617Y002396D01*
X011579Y002344D01*
X011550Y002286D01*
X011530Y002225D01*
X011520Y002161D01*
X011520Y001899D01*
X011900Y001899D01*
X011900Y002539D01*
X011898Y002539D01*
X011900Y002490D02*
X011960Y002490D01*
X011960Y002539D02*
X011960Y001899D01*
X011900Y001899D01*
X011900Y001839D01*
X011520Y001839D01*
X011520Y001577D01*
X011530Y001513D01*
X011550Y001452D01*
X011579Y001394D01*
X011617Y001342D01*
X011663Y001296D01*
X011715Y001258D01*
X011773Y001229D01*
X011834Y001209D01*
X011898Y001199D01*
X011900Y001199D01*
X011900Y001839D01*
X011960Y001839D01*
X011960Y001899D01*
X012340Y001899D01*
X012340Y002161D01*
X012330Y002225D01*
X012310Y002286D01*
X012281Y002344D01*
X012243Y002396D01*
X012197Y002442D01*
X012145Y002480D01*
X012087Y002509D01*
X012026Y002529D01*
X011962Y002539D01*
X011960Y002539D01*
X011960Y002392D02*
X011900Y002392D01*
X011900Y002293D02*
X011960Y002293D01*
X011960Y002195D02*
X011900Y002195D01*
X011900Y002096D02*
X011960Y002096D01*
X011960Y001998D02*
X011900Y001998D01*
X011900Y001899D02*
X011960Y001899D01*
X011960Y001839D02*
X012340Y001839D01*
X012340Y001577D01*
X012330Y001513D01*
X012310Y001452D01*
X012281Y001394D01*
X012243Y001342D01*
X012197Y001296D01*
X012145Y001258D01*
X012087Y001229D01*
X012026Y001209D01*
X011962Y001199D01*
X011960Y001199D01*
X011960Y001839D01*
X011960Y001801D02*
X011900Y001801D01*
X011900Y001702D02*
X011960Y001702D01*
X011960Y001604D02*
X011900Y001604D01*
X011900Y001505D02*
X011960Y001505D01*
X011960Y001407D02*
X011900Y001407D01*
X011900Y001308D02*
X011960Y001308D01*
X011960Y001210D02*
X011900Y001210D01*
X011831Y001210D02*
X003030Y001210D01*
X003076Y001308D02*
X011651Y001308D01*
X011573Y001407D02*
X003103Y001407D01*
X003129Y001505D02*
X011532Y001505D01*
X011520Y001604D02*
X008202Y001604D01*
X008258Y001627D02*
X008045Y001539D01*
X007815Y001539D01*
X007601Y001627D01*
X007438Y001790D01*
X007430Y001810D01*
X007422Y001790D01*
X007258Y001627D01*
X007045Y001539D01*
X006815Y001539D01*
X006601Y001627D01*
X006510Y001719D01*
X006510Y001662D01*
X006387Y001539D01*
X005473Y001539D01*
X005350Y001662D01*
X005350Y002576D01*
X005473Y002699D01*
X006387Y002699D01*
X006510Y002576D01*
X006510Y002519D01*
X006601Y002611D01*
X006815Y002699D01*
X007045Y002699D01*
X007258Y002611D01*
X007422Y002447D01*
X007430Y002427D01*
X007438Y002447D01*
X007601Y002611D01*
X007815Y002699D01*
X008045Y002699D01*
X008258Y002611D01*
X008422Y002447D01*
X008510Y002234D01*
X008510Y002004D01*
X008422Y001790D01*
X008258Y001627D01*
X008334Y001702D02*
X011520Y001702D01*
X011520Y001801D02*
X008426Y001801D01*
X008467Y001899D02*
X011520Y001899D01*
X011520Y001998D02*
X008508Y001998D01*
X008510Y002096D02*
X011520Y002096D01*
X011525Y002195D02*
X008510Y002195D01*
X008485Y002293D02*
X011554Y002293D01*
X011614Y002392D02*
X008445Y002392D01*
X008379Y002490D02*
X011736Y002490D01*
X012124Y002490D02*
X016736Y002490D01*
X016715Y002480D02*
X016663Y002442D01*
X016617Y002396D01*
X016579Y002344D01*
X016550Y002286D01*
X016530Y002225D01*
X016520Y002161D01*
X016520Y001899D01*
X016900Y001899D01*
X016900Y002539D01*
X016898Y002539D01*
X016834Y002529D01*
X016773Y002509D01*
X016715Y002480D01*
X016614Y002392D02*
X012246Y002392D01*
X012306Y002293D02*
X016554Y002293D01*
X016525Y002195D02*
X012335Y002195D01*
X012340Y002096D02*
X016520Y002096D01*
X016520Y001998D02*
X012340Y001998D01*
X012340Y001899D02*
X016520Y001899D01*
X016520Y001839D02*
X016520Y001577D01*
X016530Y001513D01*
X016550Y001452D01*
X016579Y001394D01*
X016617Y001342D01*
X016663Y001296D01*
X016715Y001258D01*
X016773Y001229D01*
X016834Y001209D01*
X016898Y001199D01*
X016900Y001199D01*
X016900Y001839D01*
X016520Y001839D01*
X016520Y001801D02*
X012340Y001801D01*
X012340Y001702D02*
X016520Y001702D01*
X016520Y001604D02*
X012340Y001604D01*
X012327Y001505D02*
X016532Y001505D01*
X016573Y001407D02*
X012287Y001407D01*
X012209Y001308D02*
X016651Y001308D01*
X016831Y001210D02*
X012029Y001210D01*
X008280Y002589D02*
X021945Y002589D01*
X021888Y002490D02*
X017124Y002490D01*
X017145Y002480D02*
X017087Y002509D01*
X017026Y002529D01*
X016962Y002539D01*
X016960Y002539D01*
X016960Y001899D01*
X016900Y001899D01*
X016900Y001839D01*
X016960Y001839D01*
X016960Y001899D01*
X017340Y001899D01*
X017340Y002161D01*
X017330Y002225D01*
X017310Y002286D01*
X017281Y002344D01*
X017243Y002396D01*
X017197Y002442D01*
X017145Y002480D01*
X017246Y002392D02*
X021831Y002392D01*
X021784Y002293D02*
X017306Y002293D01*
X017335Y002195D02*
X021758Y002195D01*
X021731Y002096D02*
X017340Y002096D01*
X017340Y001998D02*
X021705Y001998D01*
X021700Y001899D02*
X017340Y001899D01*
X017340Y001839D02*
X016960Y001839D01*
X016960Y001199D01*
X016962Y001199D01*
X017026Y001209D01*
X017087Y001229D01*
X017145Y001258D01*
X017197Y001296D01*
X017243Y001342D01*
X017281Y001394D01*
X017310Y001452D01*
X017330Y001513D01*
X017340Y001577D01*
X017340Y001839D01*
X017340Y001801D02*
X021700Y001801D01*
X021700Y001702D02*
X017340Y001702D01*
X017340Y001604D02*
X021704Y001604D01*
X021731Y001505D02*
X017327Y001505D01*
X017287Y001407D02*
X021757Y001407D01*
X021784Y001308D02*
X017209Y001308D01*
X017029Y001210D02*
X021830Y001210D01*
X021887Y001111D02*
X002973Y001111D01*
X003155Y001604D02*
X005408Y001604D01*
X005350Y001702D02*
X003160Y001702D01*
X003160Y001801D02*
X005350Y001801D01*
X005350Y001899D02*
X003160Y001899D01*
X003155Y001998D02*
X005350Y001998D01*
X005350Y002096D02*
X003129Y002096D01*
X003102Y002195D02*
X005350Y002195D01*
X005350Y002293D02*
X003076Y002293D01*
X003029Y002392D02*
X005350Y002392D01*
X005350Y002490D02*
X002972Y002490D01*
X002915Y002589D02*
X005363Y002589D01*
X005461Y002687D02*
X002836Y002687D01*
X002737Y002786D02*
X022122Y002786D01*
X022024Y002687D02*
X008073Y002687D01*
X007787Y002687D02*
X007073Y002687D01*
X007280Y002589D02*
X007580Y002589D01*
X007481Y002490D02*
X007379Y002490D01*
X006787Y002687D02*
X006398Y002687D01*
X006497Y002589D02*
X006580Y002589D01*
X006526Y001702D02*
X006510Y001702D01*
X006452Y001604D02*
X006658Y001604D01*
X007202Y001604D02*
X007658Y001604D01*
X007526Y001702D02*
X007334Y001702D01*
X007426Y001801D02*
X007434Y001801D01*
X007748Y004066D02*
X007112Y004066D01*
X007296Y004165D02*
X007564Y004165D01*
X007465Y004263D02*
X007395Y004263D01*
X006748Y004066D02*
X006414Y004066D01*
X006510Y004165D02*
X006564Y004165D01*
X006542Y005051D02*
X006510Y005051D01*
X006436Y005150D02*
X006696Y005150D01*
X007164Y005150D02*
X007696Y005150D01*
X007542Y005051D02*
X007318Y005051D01*
X007416Y004953D02*
X007444Y004953D01*
X010622Y007317D02*
X001069Y007317D01*
X001069Y007415D02*
X010669Y007415D01*
X010749Y007514D02*
X001069Y007514D01*
X001069Y007612D02*
X002137Y007612D01*
X002018Y007711D02*
X001069Y007711D01*
X001069Y007809D02*
X001930Y007809D01*
X001890Y007908D02*
X001069Y007908D01*
X001069Y008006D02*
X001850Y008006D01*
X001850Y008105D02*
X001069Y008105D01*
X001069Y008203D02*
X001850Y008203D01*
X001878Y008302D02*
X001069Y008302D01*
X001069Y008400D02*
X001919Y008400D01*
X001990Y008499D02*
X001069Y008499D01*
X001069Y008597D02*
X001914Y008597D01*
X001850Y008696D02*
X001069Y008696D01*
X001069Y008794D02*
X001850Y008794D01*
X001850Y008893D02*
X001069Y008893D01*
X001069Y008991D02*
X001850Y008991D01*
X001850Y009090D02*
X001069Y009090D01*
X001069Y009188D02*
X001850Y009188D01*
X001850Y009287D02*
X001069Y009287D01*
X001069Y009385D02*
X001850Y009385D01*
X001850Y009484D02*
X001069Y009484D01*
X001069Y009582D02*
X001856Y009582D01*
X001955Y009681D02*
X001069Y009681D01*
X001069Y009779D02*
X020109Y009779D01*
X020208Y009681D02*
X002905Y009681D01*
X003003Y009582D02*
X020306Y009582D01*
X020390Y009484D02*
X003010Y009484D01*
X003010Y009385D02*
X020390Y009385D01*
X020390Y009287D02*
X003010Y009287D01*
X003010Y009188D02*
X020390Y009188D01*
X020390Y009090D02*
X003010Y009090D01*
X003010Y008991D02*
X020388Y008991D01*
X020289Y008893D02*
X003010Y008893D01*
X003010Y008794D02*
X020210Y008794D01*
X020210Y008696D02*
X003010Y008696D01*
X002945Y008597D02*
X020210Y008597D01*
X020210Y008499D02*
X002870Y008499D01*
X002941Y008400D02*
X020234Y008400D01*
X020332Y008302D02*
X002982Y008302D01*
X003010Y008203D02*
X020431Y008203D01*
X020929Y008203D02*
X023791Y008203D01*
X023791Y008105D02*
X003010Y008105D01*
X003010Y008006D02*
X021488Y008006D01*
X021389Y007908D02*
X002970Y007908D01*
X002723Y007612D02*
X010878Y007612D01*
X016900Y002490D02*
X016960Y002490D01*
X016960Y002392D02*
X016900Y002392D01*
X016900Y002293D02*
X016960Y002293D01*
X016960Y002195D02*
X016900Y002195D01*
X016900Y002096D02*
X016960Y002096D01*
X016960Y001998D02*
X016900Y001998D01*
X016900Y001899D02*
X016960Y001899D01*
X016960Y001801D02*
X016900Y001801D01*
X016900Y001702D02*
X016960Y001702D01*
X016960Y001604D02*
X016900Y001604D01*
X016900Y001505D02*
X016960Y001505D01*
X016960Y001407D02*
X016900Y001407D01*
X016900Y001308D02*
X016960Y001308D01*
X016960Y001210D02*
X016900Y001210D01*
X017249Y004263D02*
X017611Y004263D01*
X017524Y004362D02*
X017336Y004362D01*
X017377Y004460D02*
X017483Y004460D01*
X017460Y004559D02*
X017400Y004559D01*
X017400Y004657D02*
X017460Y004657D01*
X017460Y004756D02*
X017400Y004756D01*
X017400Y004854D02*
X017460Y004854D01*
X017460Y004953D02*
X017400Y004953D01*
X017400Y005051D02*
X017460Y005051D01*
X017460Y005150D02*
X017400Y005150D01*
X017389Y005248D02*
X017471Y005248D01*
X017512Y005347D02*
X017348Y005347D01*
X017278Y005445D02*
X017582Y005445D01*
X017704Y005544D02*
X017156Y005544D01*
X018156Y005544D02*
X018704Y005544D01*
X018582Y005445D02*
X018278Y005445D01*
X018348Y005347D02*
X018512Y005347D01*
X018471Y005248D02*
X018389Y005248D01*
X018400Y005150D02*
X018460Y005150D01*
X018460Y005051D02*
X018400Y005051D01*
X018400Y004953D02*
X018460Y004953D01*
X018460Y004854D02*
X018400Y004854D01*
X018400Y004756D02*
X018460Y004756D01*
X018460Y004657D02*
X018400Y004657D01*
X018400Y004559D02*
X018460Y004559D01*
X018483Y004460D02*
X018377Y004460D01*
X018336Y004362D02*
X018524Y004362D01*
X018611Y004263D02*
X018249Y004263D01*
X021028Y008302D02*
X023791Y008302D01*
X023791Y008400D02*
X021126Y008400D01*
X021150Y008499D02*
X023791Y008499D01*
X023791Y008597D02*
X021150Y008597D01*
X021150Y008696D02*
X023791Y008696D01*
X023791Y008794D02*
X021150Y008794D01*
X021071Y008893D02*
X023791Y008893D01*
X023791Y008991D02*
X020972Y008991D01*
X021650Y008006D02*
X021710Y008006D01*
X021710Y007908D02*
X021650Y007908D01*
X021650Y007809D02*
X021710Y007809D01*
X021710Y007711D02*
X021650Y007711D01*
X021650Y007514D02*
X021710Y007514D01*
X021710Y007415D02*
X021650Y007415D01*
X021650Y007317D02*
X021710Y007317D01*
X021710Y007218D02*
X021650Y007218D01*
X022090Y007711D02*
X023791Y007711D01*
X023791Y007809D02*
X022069Y007809D01*
X021971Y007908D02*
X023791Y007908D01*
X023791Y008006D02*
X021872Y008006D01*
X020011Y009878D02*
X001069Y009878D01*
X001069Y009976D02*
X019912Y009976D01*
X019972Y011946D02*
X019652Y011946D01*
X022858Y013227D02*
X023791Y013227D01*
X023791Y013325D02*
X022936Y013325D01*
X022977Y013424D02*
X023791Y013424D01*
X023791Y013522D02*
X023010Y013522D01*
X023010Y013621D02*
X023791Y013621D01*
X023791Y013719D02*
X023010Y013719D01*
X022975Y013818D02*
X023791Y013818D01*
X023791Y013916D02*
X022934Y013916D01*
X022854Y014015D02*
X023791Y014015D01*
X023791Y014113D02*
X022752Y014113D01*
X022754Y014212D02*
X023791Y014212D01*
X023791Y014310D02*
X022849Y014310D01*
X022907Y014409D02*
X023791Y014409D01*
X023791Y014507D02*
X022939Y014507D01*
X022957Y013128D02*
X023791Y013128D01*
X023791Y013030D02*
X023010Y013030D01*
X023010Y012931D02*
X023791Y012931D01*
X023791Y012833D02*
X023010Y012833D01*
X023010Y012734D02*
X023791Y012734D01*
X023791Y012636D02*
X023010Y012636D01*
X023010Y012537D02*
X023791Y012537D01*
X023791Y012439D02*
X023010Y012439D01*
X023010Y012340D02*
X023791Y012340D01*
X023791Y012242D02*
X023010Y012242D01*
X022991Y012143D02*
X023791Y012143D01*
X023791Y012045D02*
X022893Y012045D01*
X023791Y006430D02*
X001069Y006430D01*
X001069Y006332D02*
X023791Y006332D01*
X023791Y006233D02*
X001069Y006233D01*
X001069Y006135D02*
X023791Y006135D01*
X023791Y006036D02*
X001069Y006036D01*
X001069Y005938D02*
X023791Y005938D01*
X023791Y005839D02*
X001069Y005839D01*
X001069Y005741D02*
X023791Y005741D01*
X023791Y003869D02*
X001069Y003869D01*
X001069Y003771D02*
X023791Y003771D01*
X023791Y003672D02*
X001069Y003672D01*
X001069Y003574D02*
X023791Y003574D01*
X023791Y003475D02*
X001069Y003475D01*
X001069Y003377D02*
X023791Y003377D01*
X023791Y003278D02*
X001069Y003278D01*
X001069Y003180D02*
X023791Y003180D01*
X023791Y003081D02*
X023532Y003081D01*
X023731Y002983D02*
X023791Y002983D01*
X022587Y003081D02*
X002272Y003081D01*
X002471Y002983D02*
X022389Y002983D01*
X022221Y002884D02*
X002639Y002884D01*
X001328Y003081D02*
X001069Y003081D01*
X001069Y002983D02*
X001129Y002983D01*
X008246Y029184D02*
X008463Y029184D01*
X008464Y029184D02*
X008502Y029174D01*
X008660Y029174D01*
X008660Y029580D01*
X008371Y029580D01*
X008371Y029304D01*
X008382Y029266D01*
X008401Y029232D01*
X008429Y029204D01*
X008464Y029184D01*
X008377Y029282D02*
X008298Y029282D01*
X008298Y029381D02*
X008371Y029381D01*
X008371Y029479D02*
X008298Y029479D01*
X008298Y029578D02*
X008371Y029578D01*
X008371Y029676D02*
X008298Y029676D01*
X008298Y029775D02*
X008371Y029775D01*
X008371Y029873D02*
X008298Y029873D01*
X008660Y029578D02*
X008737Y029578D01*
X008737Y029580D02*
X008737Y029657D01*
X009026Y029657D01*
X009026Y029914D01*
X011100Y029914D01*
X011100Y029837D01*
X011041Y029696D01*
X011041Y029542D01*
X011101Y029399D01*
X011210Y029290D01*
X011353Y029230D01*
X011507Y029230D01*
X011524Y029237D01*
X011524Y029237D01*
X011227Y029282D02*
X009020Y029282D01*
X009016Y029266D02*
X009026Y029304D01*
X009026Y029580D01*
X008737Y029580D01*
X008737Y029479D02*
X008660Y029479D01*
X008660Y029381D02*
X008737Y029381D01*
X008737Y029282D02*
X008660Y029282D01*
X008660Y029184D02*
X008737Y029184D01*
X008934Y029184D02*
X008968Y029204D01*
X008996Y029232D01*
X009016Y029266D01*
X009026Y029381D02*
X011119Y029381D01*
X011067Y029479D02*
X009026Y029479D01*
X009026Y029578D02*
X011041Y029578D01*
X011041Y029676D02*
X009026Y029676D01*
X009026Y029775D02*
X011074Y029775D01*
X011100Y029873D02*
X009026Y029873D01*
X009194Y030661D02*
X009666Y030661D01*
X009568Y030760D02*
X009292Y030760D01*
X009391Y030858D02*
X009469Y030858D01*
X009441Y031351D02*
X009419Y031351D01*
X009321Y031449D02*
X009539Y031449D01*
X009638Y031548D02*
X009222Y031548D01*
X009116Y031669D02*
X009380Y031933D01*
X009380Y032069D01*
X008980Y032069D01*
X008980Y032169D01*
X008880Y032169D01*
X008880Y032569D01*
X008744Y032569D01*
X008480Y032305D01*
X008480Y032169D01*
X008880Y032169D01*
X008880Y032069D01*
X008480Y032069D01*
X008480Y031933D01*
X008744Y031669D01*
X008880Y031669D01*
X008880Y032069D01*
X008980Y032069D01*
X008980Y031669D01*
X009116Y031669D01*
X009192Y031745D02*
X009667Y031745D01*
X009744Y031669D02*
X009480Y031933D01*
X009480Y032069D01*
X009880Y032069D01*
X009880Y032169D01*
X009880Y032569D01*
X009744Y032569D01*
X009480Y032305D01*
X009480Y032169D01*
X009880Y032169D01*
X009980Y032169D01*
X009980Y032569D01*
X010116Y032569D01*
X010380Y032305D01*
X010380Y032169D01*
X009980Y032169D01*
X009980Y032069D01*
X010380Y032069D01*
X010380Y031933D01*
X010116Y031669D01*
X009980Y031669D01*
X009980Y032069D01*
X009880Y032069D01*
X009880Y031669D01*
X009744Y031669D01*
X009880Y031745D02*
X009980Y031745D01*
X009980Y031843D02*
X009880Y031843D01*
X009880Y031942D02*
X009980Y031942D01*
X009980Y032040D02*
X009880Y032040D01*
X009880Y032139D02*
X008980Y032139D01*
X008980Y032169D02*
X009380Y032169D01*
X009380Y032305D01*
X009116Y032569D01*
X008980Y032569D01*
X008980Y032169D01*
X008980Y032237D02*
X008880Y032237D01*
X008880Y032139D02*
X007980Y032139D01*
X007980Y032169D02*
X008380Y032169D01*
X008380Y032305D01*
X008116Y032569D01*
X007980Y032569D01*
X007980Y032169D01*
X007880Y032169D01*
X007880Y032569D01*
X007744Y032569D01*
X007480Y032305D01*
X007480Y032169D01*
X007880Y032169D01*
X007880Y032069D01*
X007480Y032069D01*
X007480Y031933D01*
X007744Y031669D01*
X007880Y031669D01*
X007880Y032069D01*
X007980Y032069D01*
X007980Y032169D01*
X007980Y032237D02*
X007880Y032237D01*
X007880Y032139D02*
X006980Y032139D01*
X006980Y032169D02*
X007380Y032169D01*
X007380Y032305D01*
X007116Y032569D01*
X006980Y032569D01*
X006980Y032169D01*
X006880Y032169D01*
X006880Y032569D01*
X006744Y032569D01*
X006480Y032305D01*
X006480Y032169D01*
X006880Y032169D01*
X006880Y032069D01*
X006480Y032069D01*
X006480Y031933D01*
X006744Y031669D01*
X006880Y031669D01*
X006880Y032069D01*
X006980Y032069D01*
X006980Y032169D01*
X006980Y032237D02*
X006880Y032237D01*
X006880Y032139D02*
X005980Y032139D01*
X005980Y032237D02*
X005880Y032237D01*
X005880Y032336D02*
X005980Y032336D01*
X005980Y032434D02*
X005880Y032434D01*
X005880Y032533D02*
X005980Y032533D01*
X006152Y032533D02*
X006708Y032533D01*
X006609Y032434D02*
X006251Y032434D01*
X006349Y032336D02*
X006511Y032336D01*
X006480Y032237D02*
X006380Y032237D01*
X006380Y032040D02*
X006480Y032040D01*
X006480Y031942D02*
X006380Y031942D01*
X006291Y031843D02*
X006569Y031843D01*
X006667Y031745D02*
X006192Y031745D01*
X006222Y031548D02*
X006638Y031548D01*
X006539Y031449D02*
X006321Y031449D01*
X006419Y031351D02*
X006441Y031351D01*
X006469Y030858D02*
X006391Y030858D01*
X006292Y030760D02*
X006568Y030760D01*
X006666Y030661D02*
X006194Y030661D01*
X006880Y031745D02*
X006980Y031745D01*
X006980Y031669D02*
X007116Y031669D01*
X007380Y031933D01*
X007380Y032069D01*
X006980Y032069D01*
X006980Y031669D01*
X006980Y031843D02*
X006880Y031843D01*
X006880Y031942D02*
X006980Y031942D01*
X006980Y032040D02*
X006880Y032040D01*
X006880Y032336D02*
X006980Y032336D01*
X006980Y032434D02*
X006880Y032434D01*
X006880Y032533D02*
X006980Y032533D01*
X007152Y032533D02*
X007708Y032533D01*
X007609Y032434D02*
X007251Y032434D01*
X007349Y032336D02*
X007511Y032336D01*
X007480Y032237D02*
X007380Y032237D01*
X007380Y032040D02*
X007480Y032040D01*
X007480Y031942D02*
X007380Y031942D01*
X007291Y031843D02*
X007569Y031843D01*
X007667Y031745D02*
X007192Y031745D01*
X007222Y031548D02*
X007638Y031548D01*
X007539Y031449D02*
X007321Y031449D01*
X007419Y031351D02*
X007441Y031351D01*
X007469Y030858D02*
X007391Y030858D01*
X007292Y030760D02*
X007568Y030760D01*
X007666Y030661D02*
X007194Y030661D01*
X007880Y031745D02*
X007980Y031745D01*
X007980Y031669D02*
X008116Y031669D01*
X008380Y031933D01*
X008380Y032069D01*
X007980Y032069D01*
X007980Y031669D01*
X007980Y031843D02*
X007880Y031843D01*
X007880Y031942D02*
X007980Y031942D01*
X007980Y032040D02*
X007880Y032040D01*
X007880Y032336D02*
X007980Y032336D01*
X007980Y032434D02*
X007880Y032434D01*
X007880Y032533D02*
X007980Y032533D01*
X008152Y032533D02*
X008708Y032533D01*
X008609Y032434D02*
X008251Y032434D01*
X008349Y032336D02*
X008511Y032336D01*
X008480Y032237D02*
X008380Y032237D01*
X008380Y032040D02*
X008480Y032040D01*
X008480Y031942D02*
X008380Y031942D01*
X008291Y031843D02*
X008569Y031843D01*
X008667Y031745D02*
X008192Y031745D01*
X008222Y031548D02*
X008638Y031548D01*
X008539Y031449D02*
X008321Y031449D01*
X008419Y031351D02*
X008441Y031351D01*
X008469Y030858D02*
X008391Y030858D01*
X008292Y030760D02*
X008568Y030760D01*
X008666Y030661D02*
X008194Y030661D01*
X008880Y031745D02*
X008980Y031745D01*
X008980Y031843D02*
X008880Y031843D01*
X008880Y031942D02*
X008980Y031942D01*
X008980Y032040D02*
X008880Y032040D01*
X008880Y032336D02*
X008980Y032336D01*
X008980Y032434D02*
X008880Y032434D01*
X008880Y032533D02*
X008980Y032533D01*
X009152Y032533D02*
X009708Y032533D01*
X009609Y032434D02*
X009251Y032434D01*
X009349Y032336D02*
X009511Y032336D01*
X009480Y032237D02*
X009380Y032237D01*
X009380Y032040D02*
X009480Y032040D01*
X009480Y031942D02*
X009380Y031942D01*
X009291Y031843D02*
X009569Y031843D01*
X009880Y032237D02*
X009980Y032237D01*
X009980Y032139D02*
X010880Y032139D01*
X010880Y032169D02*
X010880Y032069D01*
X010480Y032069D01*
X010480Y031933D01*
X010744Y031669D01*
X010880Y031669D01*
X010880Y032069D01*
X010980Y032069D01*
X010980Y032169D01*
X010880Y032169D01*
X010880Y032569D01*
X010744Y032569D01*
X010480Y032305D01*
X010480Y032169D01*
X010880Y032169D01*
X010880Y032237D02*
X010980Y032237D01*
X010980Y032169D02*
X010980Y032569D01*
X011116Y032569D01*
X011380Y032305D01*
X011380Y032169D01*
X010980Y032169D01*
X010980Y032139D02*
X011880Y032139D01*
X011880Y032169D02*
X011880Y032069D01*
X011480Y032069D01*
X011480Y031933D01*
X011744Y031669D01*
X011880Y031669D01*
X011880Y032069D01*
X011980Y032069D01*
X011980Y032169D01*
X011880Y032169D01*
X011880Y032569D01*
X011744Y032569D01*
X011480Y032305D01*
X011480Y032169D01*
X011880Y032169D01*
X011880Y032237D02*
X011980Y032237D01*
X011980Y032169D02*
X011980Y032569D01*
X012116Y032569D01*
X012380Y032305D01*
X012380Y032169D01*
X011980Y032169D01*
X011980Y032139D02*
X012880Y032139D01*
X012880Y032169D02*
X012880Y032069D01*
X012480Y032069D01*
X012480Y031933D01*
X012744Y031669D01*
X012880Y031669D01*
X012880Y032069D01*
X012980Y032069D01*
X012980Y032169D01*
X012880Y032169D01*
X012880Y032569D01*
X012744Y032569D01*
X012480Y032305D01*
X012480Y032169D01*
X012880Y032169D01*
X012880Y032237D02*
X012980Y032237D01*
X012980Y032169D02*
X012980Y032569D01*
X013116Y032569D01*
X013380Y032305D01*
X013380Y032169D01*
X012980Y032169D01*
X012980Y032139D02*
X013880Y032139D01*
X013880Y032169D02*
X013880Y032069D01*
X013480Y032069D01*
X013480Y031933D01*
X013744Y031669D01*
X013880Y031669D01*
X013880Y032069D01*
X013980Y032069D01*
X013980Y032169D01*
X013880Y032169D01*
X013880Y032569D01*
X013744Y032569D01*
X013480Y032305D01*
X013480Y032169D01*
X013880Y032169D01*
X013880Y032237D02*
X013980Y032237D01*
X013980Y032169D02*
X013980Y032569D01*
X014116Y032569D01*
X014380Y032305D01*
X014380Y032169D01*
X013980Y032169D01*
X013980Y032139D02*
X014880Y032139D01*
X014880Y032169D02*
X014880Y032069D01*
X014480Y032069D01*
X014480Y031933D01*
X014744Y031669D01*
X014880Y031669D01*
X014880Y032069D01*
X014980Y032069D01*
X014980Y032169D01*
X014880Y032169D01*
X014880Y032569D01*
X014744Y032569D01*
X014480Y032305D01*
X014480Y032169D01*
X014880Y032169D01*
X014880Y032237D02*
X014980Y032237D01*
X014980Y032169D02*
X014980Y032569D01*
X015116Y032569D01*
X015380Y032305D01*
X015380Y032169D01*
X014980Y032169D01*
X014980Y032139D02*
X015880Y032139D01*
X015880Y032169D02*
X015880Y032069D01*
X015480Y032069D01*
X015480Y031933D01*
X015744Y031669D01*
X015880Y031669D01*
X015880Y032069D01*
X015980Y032069D01*
X015980Y032169D01*
X015880Y032169D01*
X015880Y032569D01*
X015744Y032569D01*
X015480Y032305D01*
X015480Y032169D01*
X015880Y032169D01*
X015880Y032237D02*
X015980Y032237D01*
X015980Y032169D02*
X015980Y032569D01*
X016116Y032569D01*
X016380Y032305D01*
X016380Y032169D01*
X015980Y032169D01*
X015980Y032139D02*
X016880Y032139D01*
X016880Y032169D02*
X016880Y032069D01*
X016480Y032069D01*
X016480Y031933D01*
X016744Y031669D01*
X016880Y031669D01*
X016880Y032069D01*
X016980Y032069D01*
X016980Y032169D01*
X016880Y032169D01*
X016880Y032569D01*
X016744Y032569D01*
X016480Y032305D01*
X016480Y032169D01*
X016880Y032169D01*
X016880Y032237D02*
X016980Y032237D01*
X016980Y032169D02*
X016980Y032569D01*
X017116Y032569D01*
X017380Y032305D01*
X017380Y032169D01*
X016980Y032169D01*
X016980Y032139D02*
X017880Y032139D01*
X017880Y032169D02*
X017880Y032069D01*
X017480Y032069D01*
X017480Y031933D01*
X017744Y031669D01*
X017880Y031669D01*
X017880Y032069D01*
X017980Y032069D01*
X017980Y032169D01*
X017880Y032169D01*
X017880Y032569D01*
X017744Y032569D01*
X017480Y032305D01*
X017480Y032169D01*
X017880Y032169D01*
X017880Y032237D02*
X017980Y032237D01*
X017980Y032169D02*
X017980Y032569D01*
X018116Y032569D01*
X018380Y032305D01*
X018380Y032169D01*
X017980Y032169D01*
X017980Y032139D02*
X018880Y032139D01*
X018880Y032169D02*
X018880Y032069D01*
X018480Y032069D01*
X018480Y031933D01*
X018744Y031669D01*
X018880Y031669D01*
X018880Y032069D01*
X018980Y032069D01*
X018980Y032169D01*
X018880Y032169D01*
X018880Y032569D01*
X018744Y032569D01*
X018480Y032305D01*
X018480Y032169D01*
X018880Y032169D01*
X018880Y032237D02*
X018980Y032237D01*
X018980Y032169D02*
X018980Y032569D01*
X019116Y032569D01*
X019380Y032305D01*
X019380Y032169D01*
X018980Y032169D01*
X018980Y032139D02*
X019880Y032139D01*
X019880Y032040D02*
X019980Y032040D01*
X019980Y031942D02*
X019880Y031942D01*
X019880Y031843D02*
X019980Y031843D01*
X019980Y031745D02*
X019880Y031745D01*
X019667Y031745D02*
X019192Y031745D01*
X019116Y031669D02*
X019380Y031933D01*
X019380Y032069D01*
X018980Y032069D01*
X018980Y031669D01*
X019116Y031669D01*
X018980Y031745D02*
X018880Y031745D01*
X018880Y031843D02*
X018980Y031843D01*
X018980Y031942D02*
X018880Y031942D01*
X018880Y032040D02*
X018980Y032040D01*
X018980Y032336D02*
X018880Y032336D01*
X018880Y032434D02*
X018980Y032434D01*
X018980Y032533D02*
X018880Y032533D01*
X018708Y032533D02*
X018152Y032533D01*
X018251Y032434D02*
X018609Y032434D01*
X018511Y032336D02*
X018349Y032336D01*
X018380Y032237D02*
X018480Y032237D01*
X018380Y032069D02*
X017980Y032069D01*
X017980Y031669D01*
X018116Y031669D01*
X018380Y031933D01*
X018380Y032069D01*
X018380Y032040D02*
X018480Y032040D01*
X018480Y031942D02*
X018380Y031942D01*
X018291Y031843D02*
X018569Y031843D01*
X018667Y031745D02*
X018192Y031745D01*
X018222Y031548D02*
X018638Y031548D01*
X018539Y031449D02*
X018321Y031449D01*
X018419Y031351D02*
X018441Y031351D01*
X018469Y030858D02*
X018391Y030858D01*
X018292Y030760D02*
X018568Y030760D01*
X018666Y030661D02*
X018194Y030661D01*
X017666Y030661D02*
X017194Y030661D01*
X017292Y030760D02*
X017568Y030760D01*
X017469Y030858D02*
X017391Y030858D01*
X017419Y031351D02*
X017441Y031351D01*
X017539Y031449D02*
X017321Y031449D01*
X017222Y031548D02*
X017638Y031548D01*
X017667Y031745D02*
X017192Y031745D01*
X017116Y031669D02*
X017380Y031933D01*
X017380Y032069D01*
X016980Y032069D01*
X016980Y031669D01*
X017116Y031669D01*
X016980Y031745D02*
X016880Y031745D01*
X016880Y031843D02*
X016980Y031843D01*
X016980Y031942D02*
X016880Y031942D01*
X016880Y032040D02*
X016980Y032040D01*
X016980Y032336D02*
X016880Y032336D01*
X016880Y032434D02*
X016980Y032434D01*
X016980Y032533D02*
X016880Y032533D01*
X016708Y032533D02*
X016152Y032533D01*
X016251Y032434D02*
X016609Y032434D01*
X016511Y032336D02*
X016349Y032336D01*
X016380Y032237D02*
X016480Y032237D01*
X016380Y032069D02*
X015980Y032069D01*
X015980Y031669D01*
X016116Y031669D01*
X016380Y031933D01*
X016380Y032069D01*
X016380Y032040D02*
X016480Y032040D01*
X016480Y031942D02*
X016380Y031942D01*
X016291Y031843D02*
X016569Y031843D01*
X016667Y031745D02*
X016192Y031745D01*
X016222Y031548D02*
X016638Y031548D01*
X016539Y031449D02*
X016321Y031449D01*
X016419Y031351D02*
X016441Y031351D01*
X016469Y030858D02*
X016391Y030858D01*
X016292Y030760D02*
X016568Y030760D01*
X016666Y030661D02*
X016194Y030661D01*
X015666Y030661D02*
X015194Y030661D01*
X015292Y030760D02*
X015568Y030760D01*
X015469Y030858D02*
X015391Y030858D01*
X015419Y031351D02*
X015441Y031351D01*
X015539Y031449D02*
X015321Y031449D01*
X015222Y031548D02*
X015638Y031548D01*
X015667Y031745D02*
X015192Y031745D01*
X015116Y031669D02*
X015380Y031933D01*
X015380Y032069D01*
X014980Y032069D01*
X014980Y031669D01*
X015116Y031669D01*
X014980Y031745D02*
X014880Y031745D01*
X014880Y031843D02*
X014980Y031843D01*
X014980Y031942D02*
X014880Y031942D01*
X014880Y032040D02*
X014980Y032040D01*
X014980Y032336D02*
X014880Y032336D01*
X014880Y032434D02*
X014980Y032434D01*
X014980Y032533D02*
X014880Y032533D01*
X014708Y032533D02*
X014152Y032533D01*
X014251Y032434D02*
X014609Y032434D01*
X014511Y032336D02*
X014349Y032336D01*
X014380Y032237D02*
X014480Y032237D01*
X014380Y032069D02*
X013980Y032069D01*
X013980Y031669D01*
X014116Y031669D01*
X014380Y031933D01*
X014380Y032069D01*
X014380Y032040D02*
X014480Y032040D01*
X014480Y031942D02*
X014380Y031942D01*
X014291Y031843D02*
X014569Y031843D01*
X014667Y031745D02*
X014192Y031745D01*
X014222Y031548D02*
X014638Y031548D01*
X014539Y031449D02*
X014321Y031449D01*
X014419Y031351D02*
X014441Y031351D01*
X014469Y030858D02*
X014391Y030858D01*
X014292Y030760D02*
X014568Y030760D01*
X014666Y030661D02*
X014194Y030661D01*
X013666Y030661D02*
X013194Y030661D01*
X013292Y030760D02*
X013568Y030760D01*
X013469Y030858D02*
X013391Y030858D01*
X013419Y031351D02*
X013441Y031351D01*
X013539Y031449D02*
X013321Y031449D01*
X013222Y031548D02*
X013638Y031548D01*
X013667Y031745D02*
X013192Y031745D01*
X013116Y031669D02*
X013380Y031933D01*
X013380Y032069D01*
X012980Y032069D01*
X012980Y031669D01*
X013116Y031669D01*
X012980Y031745D02*
X012880Y031745D01*
X012880Y031843D02*
X012980Y031843D01*
X012980Y031942D02*
X012880Y031942D01*
X012880Y032040D02*
X012980Y032040D01*
X012980Y032336D02*
X012880Y032336D01*
X012880Y032434D02*
X012980Y032434D01*
X012980Y032533D02*
X012880Y032533D01*
X012708Y032533D02*
X012152Y032533D01*
X012251Y032434D02*
X012609Y032434D01*
X012511Y032336D02*
X012349Y032336D01*
X012380Y032237D02*
X012480Y032237D01*
X012380Y032069D02*
X011980Y032069D01*
X011980Y031669D01*
X012116Y031669D01*
X012380Y031933D01*
X012380Y032069D01*
X012380Y032040D02*
X012480Y032040D01*
X012480Y031942D02*
X012380Y031942D01*
X012291Y031843D02*
X012569Y031843D01*
X012667Y031745D02*
X012192Y031745D01*
X012222Y031548D02*
X012638Y031548D01*
X012539Y031449D02*
X012321Y031449D01*
X012419Y031351D02*
X012441Y031351D01*
X012469Y030858D02*
X012391Y030858D01*
X012292Y030760D02*
X012568Y030760D01*
X012666Y030661D02*
X012194Y030661D01*
X012298Y029873D02*
X012371Y029873D01*
X012371Y029775D02*
X012298Y029775D01*
X012298Y029676D02*
X012371Y029676D01*
X012371Y029580D02*
X012371Y029304D01*
X012382Y029266D01*
X012401Y029232D01*
X012429Y029204D01*
X012464Y029184D01*
X012502Y029174D01*
X012660Y029174D01*
X012660Y029580D01*
X012371Y029580D01*
X012371Y029578D02*
X012298Y029578D01*
X012298Y029479D02*
X012371Y029479D01*
X012371Y029381D02*
X012298Y029381D01*
X012298Y029282D02*
X012377Y029282D01*
X012463Y029184D02*
X012246Y029184D01*
X012660Y029184D02*
X012737Y029184D01*
X012737Y029282D02*
X012660Y029282D01*
X012660Y029381D02*
X012737Y029381D01*
X012737Y029479D02*
X012660Y029479D01*
X012660Y029578D02*
X012737Y029578D01*
X012737Y029580D02*
X012737Y029657D01*
X013026Y029657D01*
X013026Y029914D01*
X015100Y029914D01*
X015100Y029837D01*
X015041Y029696D01*
X015041Y029542D01*
X015101Y029399D01*
X015210Y029290D01*
X015353Y029230D01*
X015507Y029230D01*
X015524Y029237D01*
X015524Y029237D01*
X015227Y029282D02*
X013020Y029282D01*
X013016Y029266D02*
X013026Y029304D01*
X013026Y029580D01*
X012737Y029580D01*
X013026Y029578D02*
X015041Y029578D01*
X015041Y029676D02*
X013026Y029676D01*
X013026Y029775D02*
X015074Y029775D01*
X015100Y029873D02*
X013026Y029873D01*
X013026Y029479D02*
X015067Y029479D01*
X015119Y029381D02*
X013026Y029381D01*
X013016Y029266D02*
X012996Y029232D01*
X012968Y029204D01*
X012934Y029184D01*
X011666Y030661D02*
X011194Y030661D01*
X011292Y030760D02*
X011568Y030760D01*
X011469Y030858D02*
X011391Y030858D01*
X011419Y031351D02*
X011441Y031351D01*
X011539Y031449D02*
X011321Y031449D01*
X011222Y031548D02*
X011638Y031548D01*
X011667Y031745D02*
X011192Y031745D01*
X011116Y031669D02*
X011380Y031933D01*
X011380Y032069D01*
X010980Y032069D01*
X010980Y031669D01*
X011116Y031669D01*
X010980Y031745D02*
X010880Y031745D01*
X010880Y031843D02*
X010980Y031843D01*
X010980Y031942D02*
X010880Y031942D01*
X010880Y032040D02*
X010980Y032040D01*
X010980Y032336D02*
X010880Y032336D01*
X010880Y032434D02*
X010980Y032434D01*
X010980Y032533D02*
X010880Y032533D01*
X010708Y032533D02*
X010152Y032533D01*
X010251Y032434D02*
X010609Y032434D01*
X010511Y032336D02*
X010349Y032336D01*
X010380Y032237D02*
X010480Y032237D01*
X010480Y032040D02*
X010380Y032040D01*
X010380Y031942D02*
X010480Y031942D01*
X010569Y031843D02*
X010291Y031843D01*
X010192Y031745D02*
X010667Y031745D01*
X010638Y031548D02*
X010222Y031548D01*
X010321Y031449D02*
X010539Y031449D01*
X010441Y031351D02*
X010419Y031351D01*
X010391Y030858D02*
X010469Y030858D01*
X010568Y030760D02*
X010292Y030760D01*
X010194Y030661D02*
X010666Y030661D01*
X011291Y031843D02*
X011569Y031843D01*
X011480Y031942D02*
X011380Y031942D01*
X011380Y032040D02*
X011480Y032040D01*
X011480Y032237D02*
X011380Y032237D01*
X011349Y032336D02*
X011511Y032336D01*
X011609Y032434D02*
X011251Y032434D01*
X011152Y032533D02*
X011708Y032533D01*
X011880Y032533D02*
X011980Y032533D01*
X011980Y032434D02*
X011880Y032434D01*
X011880Y032336D02*
X011980Y032336D01*
X011980Y032040D02*
X011880Y032040D01*
X011880Y031942D02*
X011980Y031942D01*
X011980Y031843D02*
X011880Y031843D01*
X011880Y031745D02*
X011980Y031745D01*
X013152Y032533D02*
X013708Y032533D01*
X013609Y032434D02*
X013251Y032434D01*
X013349Y032336D02*
X013511Y032336D01*
X013480Y032237D02*
X013380Y032237D01*
X013380Y032040D02*
X013480Y032040D01*
X013480Y031942D02*
X013380Y031942D01*
X013291Y031843D02*
X013569Y031843D01*
X013880Y031843D02*
X013980Y031843D01*
X013980Y031745D02*
X013880Y031745D01*
X013880Y031942D02*
X013980Y031942D01*
X013980Y032040D02*
X013880Y032040D01*
X013880Y032336D02*
X013980Y032336D01*
X013980Y032434D02*
X013880Y032434D01*
X013880Y032533D02*
X013980Y032533D01*
X015152Y032533D02*
X015708Y032533D01*
X015609Y032434D02*
X015251Y032434D01*
X015349Y032336D02*
X015511Y032336D01*
X015480Y032237D02*
X015380Y032237D01*
X015380Y032040D02*
X015480Y032040D01*
X015480Y031942D02*
X015380Y031942D01*
X015291Y031843D02*
X015569Y031843D01*
X015880Y031843D02*
X015980Y031843D01*
X015980Y031745D02*
X015880Y031745D01*
X015880Y031942D02*
X015980Y031942D01*
X015980Y032040D02*
X015880Y032040D01*
X015880Y032336D02*
X015980Y032336D01*
X015980Y032434D02*
X015880Y032434D01*
X015880Y032533D02*
X015980Y032533D01*
X017152Y032533D02*
X017708Y032533D01*
X017609Y032434D02*
X017251Y032434D01*
X017349Y032336D02*
X017511Y032336D01*
X017480Y032237D02*
X017380Y032237D01*
X017380Y032040D02*
X017480Y032040D01*
X017480Y031942D02*
X017380Y031942D01*
X017291Y031843D02*
X017569Y031843D01*
X017880Y031843D02*
X017980Y031843D01*
X017980Y031745D02*
X017880Y031745D01*
X017880Y031942D02*
X017980Y031942D01*
X017980Y032040D02*
X017880Y032040D01*
X017880Y032336D02*
X017980Y032336D01*
X017980Y032434D02*
X017880Y032434D01*
X017880Y032533D02*
X017980Y032533D01*
X019152Y032533D02*
X019708Y032533D01*
X019609Y032434D02*
X019251Y032434D01*
X019349Y032336D02*
X019511Y032336D01*
X019480Y032237D02*
X019380Y032237D01*
X019380Y032040D02*
X019480Y032040D01*
X019480Y031942D02*
X019380Y031942D01*
X019291Y031843D02*
X019569Y031843D01*
X019638Y031548D02*
X019222Y031548D01*
X019321Y031449D02*
X019539Y031449D01*
X019441Y031351D02*
X019419Y031351D01*
X019391Y030858D02*
X019469Y030858D01*
X019568Y030760D02*
X019292Y030760D01*
X019194Y030661D02*
X019666Y030661D01*
X019522Y030563D02*
X023791Y030563D01*
X023791Y030661D02*
X020194Y030661D01*
X020292Y030760D02*
X023791Y030760D01*
X023791Y030858D02*
X020391Y030858D01*
X020440Y030957D02*
X023791Y030957D01*
X023791Y031055D02*
X020440Y031055D01*
X020440Y031154D02*
X023791Y031154D01*
X023791Y031252D02*
X020440Y031252D01*
X020419Y031351D02*
X023791Y031351D01*
X023791Y031449D02*
X020321Y031449D01*
X019676Y030464D02*
X023791Y030464D01*
X023791Y030366D02*
X019737Y030366D01*
X019760Y030267D02*
X023791Y030267D01*
X023791Y030169D02*
X019760Y030169D01*
X020229Y030070D02*
X023791Y030070D01*
X023791Y029972D02*
X021016Y029972D01*
X020996Y030006D01*
X020968Y030034D01*
X020934Y030054D01*
X020896Y030064D01*
X020737Y030064D01*
X020737Y029657D01*
X021026Y029657D01*
X021026Y029934D01*
X021016Y029972D01*
X021026Y029873D02*
X023791Y029873D01*
X023791Y029775D02*
X021026Y029775D01*
X021026Y029676D02*
X023791Y029676D01*
X023791Y029578D02*
X021026Y029578D01*
X021026Y029580D02*
X020737Y029580D01*
X020737Y029174D01*
X020896Y029174D01*
X020934Y029184D01*
X023791Y029184D01*
X023791Y029282D02*
X021020Y029282D01*
X021016Y029266D02*
X021026Y029304D01*
X021026Y029580D01*
X021026Y029479D02*
X023791Y029479D01*
X023791Y029381D02*
X021026Y029381D01*
X021016Y029266D02*
X020996Y029232D01*
X020968Y029204D01*
X020934Y029184D01*
X020737Y029184D02*
X020660Y029184D01*
X020660Y029174D02*
X020660Y029580D01*
X020737Y029580D01*
X020737Y029657D01*
X020660Y029657D01*
X020660Y029580D01*
X020371Y029580D01*
X020371Y029304D01*
X020382Y029266D01*
X020401Y029232D01*
X020429Y029204D01*
X020464Y029184D01*
X020502Y029174D01*
X020660Y029174D01*
X020660Y029282D02*
X020737Y029282D01*
X020737Y029381D02*
X020660Y029381D01*
X020660Y029479D02*
X020737Y029479D01*
X020737Y029578D02*
X020660Y029578D01*
X020660Y029657D02*
X020371Y029657D01*
X020371Y029934D01*
X020382Y029972D01*
X020401Y030006D01*
X020429Y030034D01*
X020464Y030054D01*
X020502Y030064D01*
X020660Y030064D01*
X020660Y029657D01*
X020660Y029676D02*
X020737Y029676D01*
X020737Y029775D02*
X020660Y029775D01*
X020660Y029873D02*
X020737Y029873D01*
X020737Y029972D02*
X020660Y029972D01*
X020382Y029972D02*
X020298Y029972D01*
X020298Y029873D02*
X020371Y029873D01*
X020371Y029775D02*
X020298Y029775D01*
X020298Y029676D02*
X020371Y029676D01*
X020371Y029578D02*
X020298Y029578D01*
X020298Y029479D02*
X020371Y029479D01*
X020371Y029381D02*
X020298Y029381D01*
X020298Y029282D02*
X020377Y029282D01*
X020463Y029184D02*
X020246Y029184D01*
X019524Y029237D02*
X019524Y029237D01*
X019507Y029230D01*
X019353Y029230D01*
X019210Y029290D01*
X019101Y029399D01*
X019041Y029542D01*
X019041Y029696D01*
X019100Y029837D01*
X019100Y029914D01*
X017026Y029914D01*
X017026Y029657D01*
X016737Y029657D01*
X016737Y029580D01*
X017026Y029580D01*
X017026Y029304D01*
X017016Y029266D01*
X016996Y029232D01*
X016968Y029204D01*
X016934Y029184D01*
X017020Y029282D02*
X019227Y029282D01*
X019119Y029381D02*
X017026Y029381D01*
X017026Y029479D02*
X019067Y029479D01*
X019041Y029578D02*
X017026Y029578D01*
X017026Y029676D02*
X019041Y029676D01*
X019074Y029775D02*
X017026Y029775D01*
X017026Y029873D02*
X019100Y029873D01*
X016737Y029578D02*
X016660Y029578D01*
X016660Y029580D02*
X016660Y029174D01*
X016502Y029174D01*
X016464Y029184D01*
X016429Y029204D01*
X016401Y029232D01*
X016382Y029266D01*
X016371Y029304D01*
X016371Y029580D01*
X016660Y029580D01*
X016660Y029479D02*
X016737Y029479D01*
X016737Y029381D02*
X016660Y029381D01*
X016660Y029282D02*
X016737Y029282D01*
X016737Y029184D02*
X016660Y029184D01*
X016463Y029184D02*
X016246Y029184D01*
X016298Y029282D02*
X016377Y029282D01*
X016371Y029381D02*
X016298Y029381D01*
X016298Y029479D02*
X016371Y029479D01*
X016371Y029578D02*
X016298Y029578D01*
X016298Y029676D02*
X016371Y029676D01*
X016371Y029775D02*
X016298Y029775D01*
X016298Y029873D02*
X016371Y029873D01*
X015911Y029619D02*
X015855Y029619D01*
X015501Y029619D01*
X015430Y029619D01*
X009980Y032336D02*
X009880Y032336D01*
X009880Y032434D02*
X009980Y032434D01*
X009980Y032533D02*
X009880Y032533D01*
X005708Y032533D02*
X005152Y032533D01*
X005251Y032434D02*
X005609Y032434D01*
X005511Y032336D02*
X005349Y032336D01*
X005380Y032237D02*
X005480Y032237D01*
X005480Y032040D02*
X005380Y032040D01*
X005380Y031942D02*
X005480Y031942D01*
X005569Y031843D02*
X005291Y031843D01*
X004980Y031843D02*
X004880Y031843D01*
X004880Y031745D02*
X004980Y031745D01*
X004980Y031942D02*
X004880Y031942D01*
X004880Y032040D02*
X004980Y032040D01*
X004980Y032336D02*
X004880Y032336D01*
X004880Y032434D02*
X004980Y032434D01*
X004980Y032533D02*
X004880Y032533D01*
X002987Y034207D02*
X021872Y034207D01*
X021929Y034109D02*
X002931Y034109D01*
X002863Y034010D02*
X021997Y034010D01*
X022095Y033912D02*
X002764Y033912D01*
X003044Y034306D02*
X021816Y034306D01*
X021777Y034404D02*
X003083Y034404D01*
X003109Y034503D02*
X021750Y034503D01*
X021724Y034601D02*
X003136Y034601D01*
X003160Y034700D02*
X021700Y034700D01*
X021700Y034798D02*
X003160Y034798D01*
X003160Y034897D02*
X021700Y034897D01*
X021700Y034995D02*
X003160Y034995D01*
X003148Y035094D02*
X021712Y035094D01*
X021738Y035192D02*
X003122Y035192D01*
X003095Y035291D02*
X021764Y035291D01*
X021791Y035389D02*
X003069Y035389D01*
X003014Y035488D02*
X021846Y035488D01*
X021903Y035586D02*
X002957Y035586D01*
X023265Y033518D02*
X023791Y033518D01*
X023791Y033616D02*
X023607Y033616D01*
X023778Y033715D02*
X023791Y033715D01*
D20*
X020680Y028619D03*
X019680Y028619D03*
X019430Y029619D03*
X018680Y028619D03*
X017680Y028619D03*
X016180Y028619D03*
X015430Y029619D03*
X015180Y028619D03*
X014180Y028619D03*
X013180Y028619D03*
X011680Y028619D03*
X011430Y029619D03*
X010680Y028619D03*
X009680Y028619D03*
X008680Y028619D03*
X007430Y029619D03*
X007180Y028619D03*
X006180Y028619D03*
X005180Y028619D03*
X004180Y028619D03*
X004555Y030244D03*
X002305Y031994D03*
X001805Y031994D03*
X001305Y031994D03*
X003930Y022494D03*
X005930Y022494D03*
X008430Y022494D03*
X010430Y022494D03*
X012430Y021869D03*
X012930Y022494D03*
X014930Y022494D03*
X017430Y022494D03*
X019430Y022494D03*
X017305Y015494D03*
X016930Y014869D03*
X016055Y015119D03*
X016305Y012869D03*
X016055Y012494D03*
X015930Y011869D03*
X017680Y013494D03*
X018930Y014869D03*
X019430Y011619D03*
X013305Y011869D03*
X011680Y009244D03*
X009430Y010369D03*
X009180Y011494D03*
X006930Y011619D03*
X006930Y012244D03*
X004680Y014744D03*
X005180Y015619D03*
X005180Y016369D03*
X004430Y016619D03*
X009930Y019369D03*
X010930Y019369D03*
X012555Y017494D03*
X007930Y006744D03*
X009180Y005494D03*
X009180Y002994D03*
D21*
X007911Y029619D02*
X007430Y029619D01*
X007430Y030244D01*
X011430Y030244D01*
X015430Y030244D01*
X019430Y030244D01*
X019430Y029619D01*
X019911Y029619D01*
X015430Y029619D02*
X015430Y030244D01*
X011911Y029619D02*
X011430Y029619D01*
X011430Y030244D01*
X007430Y030244D02*
X004555Y030244D01*
D22*
X016305Y012869D02*
X016430Y012869D01*
X015930Y011869D02*
X013305Y011869D01*
X017680Y012619D02*
X019055Y011244D01*
X020680Y009619D01*
X020680Y008619D01*
X021680Y009619D02*
X021680Y010119D01*
X020055Y011619D01*
X022055Y013619D01*
X022430Y013619D01*
X020055Y011619D02*
X019430Y011619D01*
X017680Y012619D02*
X017680Y012744D01*
X017680Y013494D01*
D23*
X017305Y013244D02*
X017305Y015494D01*
X016930Y014869D02*
X016930Y014619D01*
X016930Y013369D01*
X016430Y012869D01*
X016555Y012494D02*
X016805Y012744D01*
X017305Y013244D01*
X016555Y012494D02*
X016055Y012494D01*
X009430Y010369D02*
X008180Y010369D01*
X006930Y011619D01*
X006930Y012244D02*
X007055Y012244D01*
X007930Y011369D01*
X009055Y011369D01*
X009180Y011494D01*
M02*
