%
T01C0.017700
X7562Y9187
X5937Y10437
X4937Y12562
X4312Y10562
X7187Y8437
X16436Y9187
X14811Y10437
X13811Y12562
X13186Y10562
X16061Y8437
X25310Y9187
X23685Y10437
X22685Y12562
X22060Y10562
X24935Y8437
X34184Y9187
X32559Y10437
X31559Y12562
X30934Y10562
X33809Y8437
X7562Y25935
X5937Y27185
X4937Y29310
X4312Y27310
X7187Y25185
X16436Y25935
X14811Y27185
X13811Y29310
X13186Y27310
X16061Y25185
X25310Y25935
X23685Y27185
X22685Y29310
X22060Y27310
X24935Y25185
X34184Y25935
X32559Y27185
X31559Y29310
X30934Y27310
X33809Y25185
X7562Y42683
X5937Y43933
X4937Y46058
X4312Y44058
X7187Y41933
X16436Y42683
X14811Y43933
X13811Y46058
X13186Y44058
X16061Y41933
X25310Y42683
X23685Y43933
X22685Y46058
X22060Y44058
X24935Y41933
X34184Y42683
X32559Y43933
X31559Y46058
X30934Y44058
X33809Y41933
X7562Y59431
X5937Y60681
X4937Y62806
X4312Y60806
X7187Y58681
X16436Y59431
X14811Y60681
X13811Y62806
X13186Y60806
X16061Y58681
X25310Y59431
X23685Y60681
X22685Y62806
X22060Y60806
X24935Y58681
X34184Y59431
X32559Y60681
X31559Y62806
X30934Y60806
X33809Y58681
X31308Y76303
X32558Y77553
X35058Y77553
X28808Y80053
X26183Y81678
X26183Y84303
X25558Y84428
X25183Y84678
X23183Y85303
X22558Y85678
X22933Y84428
X24558Y86053
X23183Y87303
X26433Y87803
X20558Y80928
X18683Y79303
X18683Y78303
X15558Y78803
X15558Y76803
X15558Y74303
X15558Y72303
X21433Y72803
X21683Y73553
X22433Y73553
X23308Y73053
X25808Y75303
X26433Y75303
X26558Y77553
X27683Y77803
X16183Y80803
X15558Y81303
X15558Y83303
X15558Y85803
X15558Y87803
X9433Y88053
X8433Y87803
X9433Y87053
X9433Y86053
X9433Y84553
X8433Y83803
X9433Y83553
X9433Y82553
X9433Y81553
X9433Y80053
X8433Y79803
X9433Y79053
X9433Y78053
X9433Y77053
X8433Y75803
X9433Y75553
X9433Y74553
X9433Y73553
X9433Y72553
X7808Y72928
X6058Y70678
X6058Y70178
X6058Y69678
X9433Y89053
T02C0.023600
X2687Y5062
X2812Y6437
X3937Y5437
X4687Y5062
X3312Y8937
X3812Y11937
X4187Y13937
X4937Y14937
X5937Y14937
X6937Y14937
X7687Y13937
X7937Y11937
X7937Y11437
X8312Y10437
X9062Y6437
X9187Y5062
X7937Y5437
X7187Y5062
X6937Y16937
X5937Y16937
X4937Y16937
X11561Y5062
X11686Y6437
X12811Y5437
X13561Y5062
X12186Y8937
X12686Y11937
X13061Y13937
X13811Y14937
X14811Y14937
X15811Y14937
X16561Y13937
X16811Y11937
X16811Y11437
X17186Y10437
X17936Y6437
X18061Y5062
X16811Y5437
X16061Y5062
X15811Y16937
X14811Y16937
X13811Y16937
X20435Y5062
X20560Y6437
X21685Y5437
X22435Y5062
X21060Y8937
X21560Y11937
X21935Y13937
X22685Y14937
X23685Y14937
X24685Y14937
X25435Y13937
X25685Y11937
X25685Y11437
X26060Y10437
X26810Y6437
X26935Y5062
X25685Y5437
X24935Y5062
X24685Y16937
X23685Y16937
X22685Y16937
X29309Y5062
X29434Y6437
X30559Y5437
X31309Y5062
X29934Y8937
X30434Y11937
X30809Y13937
X31559Y14937
X32559Y14937
X33559Y14937
X34309Y13937
X34559Y11937
X34559Y11437
X34934Y10437
X35684Y6437
X35809Y5062
X34559Y5437
X33809Y5062
X33559Y16937
X32559Y16937
X31559Y16937
X2687Y21810
X2812Y23185
X3937Y22185
X4687Y21810
X3312Y25685
X3812Y28685
X4187Y30685
X4937Y31685
X5937Y31685
X6937Y31685
X7687Y30685
X7937Y28685
X7937Y28185
X8312Y27185
X9062Y23185
X9187Y21810
X7937Y22185
X7187Y21810
X6937Y33685
X5937Y33685
X4937Y33685
X11561Y21810
X11686Y23185
X12811Y22185
X13561Y21810
X12186Y25685
X12686Y28685
X13061Y30685
X13811Y31685
X14811Y31685
X15811Y31685
X16561Y30685
X16811Y28685
X16811Y28185
X17186Y27185
X17936Y23185
X18061Y21810
X16811Y22185
X16061Y21810
X15811Y33685
X14811Y33685
X13811Y33685
X20435Y21810
X20560Y23185
X21685Y22185
X22435Y21810
X21060Y25685
X21560Y28685
X21935Y30685
X22685Y31685
X23685Y31685
X24685Y31685
X25435Y30685
X25685Y28685
X25685Y28185
X26060Y27185
X26810Y23185
X26935Y21810
X25685Y22185
X24935Y21810
X24685Y33685
X23685Y33685
X22685Y33685
X29309Y21810
X29434Y23185
X30559Y22185
X31309Y21810
X29934Y25685
X30434Y28685
X30809Y30685
X31559Y31685
X32559Y31685
X33559Y31685
X34309Y30685
X34559Y28685
X34559Y28185
X34934Y27185
X35684Y23185
X35809Y21810
X34559Y22185
X33809Y21810
X33559Y33685
X32559Y33685
X31559Y33685
X2687Y38558
X2812Y39933
X3937Y38933
X4687Y38558
X3312Y42433
X3812Y45433
X4187Y47433
X4937Y48433
X5937Y48433
X6937Y48433
X7687Y47433
X7937Y45433
X7937Y44933
X8312Y43933
X9062Y39933
X9187Y38558
X7937Y38933
X7187Y38558
X6937Y50433
X5937Y50433
X4937Y50433
X11561Y38558
X11686Y39933
X12811Y38933
X13561Y38558
X12186Y42433
X12686Y45433
X13061Y47433
X13811Y48433
X14811Y48433
X15811Y48433
X16561Y47433
X16811Y45433
X16811Y44933
X17186Y43933
X17936Y39933
X18061Y38558
X16811Y38933
X16061Y38558
X15811Y50433
X14811Y50433
X13811Y50433
X20435Y38558
X20560Y39933
X21685Y38933
X22435Y38558
X21060Y42433
X21560Y45433
X21935Y47433
X22685Y48433
X23685Y48433
X24685Y48433
X25435Y47433
X25685Y45433
X25685Y44933
X26060Y43933
X26810Y39933
X26935Y38558
X25685Y38933
X24935Y38558
X24685Y50433
X23685Y50433
X22685Y50433
X29309Y38558
X29434Y39933
X30559Y38933
X31309Y38558
X29934Y42433
X30434Y45433
X30809Y47433
X31559Y48433
X32559Y48433
X33559Y48433
X34309Y47433
X34559Y45433
X34559Y44933
X34934Y43933
X35684Y39933
X35809Y38558
X34559Y38933
X33809Y38558
X33559Y50433
X32559Y50433
X31559Y50433
X2687Y55306
X2812Y56681
X3937Y55681
X4687Y55306
X3312Y59181
X3812Y62181
X4187Y64181
X4937Y65181
X5937Y65181
X6937Y65181
X7687Y64181
X7937Y62181
X7937Y61681
X8312Y60681
X9062Y56681
X9187Y55306
X7937Y55681
X7187Y55306
X6937Y67181
X5937Y67181
X4937Y67181
X11561Y55306
X11686Y56681
X12811Y55681
X13561Y55306
X12186Y59181
X12686Y62181
X13061Y64181
X13811Y65181
X14811Y65181
X15811Y65181
X16561Y64181
X16811Y62181
X16811Y61681
X17186Y60681
X17936Y56681
X18061Y55306
X16811Y55681
X16061Y55306
X15811Y67181
X14811Y67181
X13811Y67181
X20435Y55306
X20560Y56681
X21685Y55681
X22435Y55306
X21060Y59181
X21560Y62181
X21935Y64181
X22685Y65181
X23685Y65181
X24685Y65181
X25435Y64181
X25685Y62181
X25685Y61681
X26060Y60681
X26810Y56681
X26935Y55306
X25685Y55681
X24935Y55306
X24685Y67181
X23685Y67181
X22685Y67181
X29309Y55306
X29434Y56681
X30559Y55681
X31309Y55306
X29934Y59181
X30434Y62181
X30809Y64181
X31559Y65181
X32559Y65181
X33559Y65181
X34309Y64181
X34559Y62181
X34559Y61681
X34934Y60681
X35684Y56681
X35809Y55306
X34559Y55681
X33809Y55306
X33559Y67181
X32559Y67181
X31559Y67181
T03C0.032000
X16433Y88803
X16433Y89803
X16433Y87803
X16433Y86803
X16433Y85803
X16433Y84803
X16433Y83803
X16433Y82803
X16433Y81803
X16433Y79803
X16433Y78803
X16433Y77803
X16433Y76803
X16433Y75803
X16433Y74803
X16433Y73803
X16433Y72803
X16433Y71803
X33183Y79303
X33183Y80303
X33183Y81303
X33183Y82303
X33183Y84303
X33183Y85303
X33183Y86303
X33183Y87303
X36183Y85303
X29433Y89053
X28433Y90053
X30433Y90053
X36183Y80303
T04C0.040000
X5437Y13937
X6437Y13937
X5937Y7437
X6937Y7437
X6937Y6187
X7937Y7437
X4937Y7437
X4937Y6187
X3937Y7437
X14311Y13937
X15311Y13937
X14811Y7437
X15811Y7437
X15811Y6187
X16811Y7437
X13811Y7437
X13811Y6187
X12811Y7437
X23185Y13937
X24185Y13937
X23685Y7437
X24685Y7437
X24685Y6187
X25685Y7437
X22685Y7437
X22685Y6187
X21685Y7437
X32059Y13937
X33059Y13937
X32559Y7437
X33559Y7437
X33559Y6187
X34559Y7437
X31559Y7437
X31559Y6187
X30559Y7437
X5437Y30685
X6437Y30685
X5937Y24185
X6937Y24185
X6937Y22935
X7937Y24185
X4937Y24185
X4937Y22935
X3937Y24185
X14311Y30685
X15311Y30685
X14811Y24185
X15811Y24185
X15811Y22935
X16811Y24185
X13811Y24185
X13811Y22935
X12811Y24185
X23185Y30685
X24185Y30685
X23685Y24185
X24685Y24185
X24685Y22935
X25685Y24185
X22685Y24185
X22685Y22935
X21685Y24185
X32059Y30685
X33059Y30685
X32559Y24185
X33559Y24185
X33559Y22935
X34559Y24185
X31559Y24185
X31559Y22935
X30559Y24185
X5437Y47433
X6437Y47433
X5937Y40933
X6937Y40933
X6937Y39683
X7937Y40933
X4937Y40933
X4937Y39683
X3937Y40933
X14311Y47433
X15311Y47433
X14811Y40933
X15811Y40933
X15811Y39683
X16811Y40933
X13811Y40933
X13811Y39683
X12811Y40933
X23185Y47433
X24185Y47433
X23685Y40933
X24685Y40933
X24685Y39683
X25685Y40933
X22685Y40933
X22685Y39683
X21685Y40933
X32059Y47433
X33059Y47433
X32559Y40933
X33559Y40933
X33559Y39683
X34559Y40933
X31559Y40933
X31559Y39683
X30559Y40933
X5437Y64181
X6437Y64181
X5937Y57681
X6937Y57681
X6937Y56431
X7937Y57681
X4937Y57681
X4937Y56431
X3937Y57681
X14311Y64181
X15311Y64181
X14811Y57681
X15811Y57681
X15811Y56431
X16811Y57681
X13811Y57681
X13811Y56431
X12811Y57681
X23185Y64181
X24185Y64181
X23685Y57681
X24685Y57681
X24685Y56431
X25685Y57681
X22685Y57681
X22685Y56431
X21685Y57681
X32059Y64181
X33059Y64181
X32559Y57681
X33559Y57681
X33559Y56431
X34559Y57681
X31559Y57681
X31559Y56431
X30559Y57681
X35933Y76303
X35933Y75303
X35933Y74303
X33433Y74303
X33433Y75303
X33433Y76303
X29933Y70803
X28933Y70803
X26933Y70803
X25933Y70803
X24933Y70803
X20933Y70803
X19933Y70803
X19933Y71803
X20933Y71803
X6933Y73303
X5933Y73303
X5933Y74303
X6933Y74303
X6933Y75303
X5933Y75303
X5933Y76303
X6933Y76303
X6933Y77303
X5933Y77303
X5933Y78303
X6933Y78303
X6933Y79303
X5933Y79303
X5933Y80303
X6933Y80303
X6933Y81303
X5933Y81303
X5933Y82303
X6933Y82303
X6933Y83303
X5933Y83303
X5933Y84303
X6933Y84303
X6933Y85303
X5933Y85303
X5933Y86303
X6933Y86303
X6933Y87303
X5933Y87303
X5933Y88303
X6933Y88303
X21433Y90803
X22433Y90803
X23433Y90803
X24433Y90803
X25433Y90803
T05C0.053550
X30933Y79523
X30933Y82082
X19183Y80428
T06C0.059100
X5187Y15937
X6687Y15937
X14061Y15937
X15561Y15937
X22935Y15937
X24435Y15937
X31809Y15937
X33309Y15937
X5187Y32685
X6687Y32685
X14061Y32685
X15561Y32685
X22935Y32685
X24435Y32685
X31809Y32685
X33309Y32685
X5187Y49433
X6687Y49433
X14061Y49433
X15561Y49433
X22935Y49433
X24435Y49433
X31809Y49433
X33309Y49433
X5187Y66181
X6687Y66181
X14061Y66181
X15561Y66181
X22935Y66181
X24435Y66181
X31809Y66181
X33309Y66181
T07C0.126000
X36252Y70173
X36252Y91433
X3181Y91433
X3181Y70173
M30
