G75*
G70*
%OFA0B0*%
%FSLAX25Y25*%
%IPPOS*%
%LPD*%
%AMOC8*
5,1,8,0,0,1.08239X$1,22.5*
%
%ADD340C,0.00000*%
X0020000Y0020000D02*
G75*
%LPD*%
D340*
X0020000Y0020000D02*
X0098740Y0020000D01*
X0098740Y0059370D01*
X0077090Y0177480D01*
X0041650Y0177480D01*
X0020000Y0059370D01*
X0020000Y0020000D01*
X0025910Y0034960D02*
X0025910Y0039690D01*
X0025900Y0039690D02*
X0025920Y0040080D01*
X0025980Y0040460D01*
X0026070Y0040830D01*
X0026200Y0041200D01*
X0026370Y0041550D01*
X0026560Y0041880D01*
X0026790Y0042190D01*
X0027050Y0042480D01*
X0027340Y0042740D01*
X0027650Y0042970D01*
X0027980Y0043160D01*
X0028330Y0043330D01*
X0028700Y0043460D01*
X0029070Y0043550D01*
X0029450Y0043610D01*
X0029840Y0043630D01*
X0029840Y0043620D02*
X0037720Y0043620D01*
X0037710Y0043620D02*
X0037730Y0043890D01*
X0037780Y0044150D01*
X0037870Y0044400D01*
X0038000Y0044640D01*
X0038150Y0044860D01*
X0038340Y0045060D01*
X0038540Y0045230D01*
X0038770Y0045370D01*
X0039020Y0045480D01*
X0039280Y0045550D01*
X0039550Y0045590D01*
X0039810Y0045590D01*
X0040080Y0045550D01*
X0040340Y0045480D01*
X0040590Y0045370D01*
X0040820Y0045230D01*
X0041020Y0045060D01*
X0041210Y0044860D01*
X0041360Y0044640D01*
X0041490Y0044400D01*
X0041580Y0044150D01*
X0041630Y0043890D01*
X0041650Y0043620D01*
X0053460Y0043620D01*
X0053460Y0051500D01*
X0053480Y0051890D01*
X0053540Y0052270D01*
X0053630Y0052640D01*
X0053760Y0053010D01*
X0053930Y0053360D01*
X0054120Y0053690D01*
X0054350Y0054000D01*
X0054610Y0054290D01*
X0054900Y0054550D01*
X0055210Y0054780D01*
X0055540Y0054970D01*
X0055890Y0055140D01*
X0056260Y0055270D01*
X0056630Y0055360D01*
X0057010Y0055420D01*
X0057400Y0055440D01*
X0057400Y0055430D02*
X0061340Y0055430D01*
X0061340Y0055440D02*
X0061730Y0055420D01*
X0062110Y0055360D01*
X0062480Y0055270D01*
X0062850Y0055140D01*
X0063200Y0054970D01*
X0063530Y0054780D01*
X0063840Y0054550D01*
X0064130Y0054290D01*
X0064390Y0054000D01*
X0064620Y0053690D01*
X0064810Y0053360D01*
X0064980Y0053010D01*
X0065110Y0052640D01*
X0065200Y0052270D01*
X0065260Y0051890D01*
X0065280Y0051500D01*
X0065280Y0043620D01*
X0077090Y0043620D01*
X0077110Y0043890D01*
X0077160Y0044150D01*
X0077250Y0044400D01*
X0077380Y0044640D01*
X0077530Y0044860D01*
X0077720Y0045060D01*
X0077920Y0045230D01*
X0078150Y0045370D01*
X0078400Y0045480D01*
X0078660Y0045550D01*
X0078930Y0045590D01*
X0079190Y0045590D01*
X0079460Y0045550D01*
X0079720Y0045480D01*
X0079970Y0045370D01*
X0080200Y0045230D01*
X0080400Y0045060D01*
X0080590Y0044860D01*
X0080740Y0044640D01*
X0080870Y0044400D01*
X0080960Y0044150D01*
X0081010Y0043890D01*
X0081030Y0043620D01*
X0081020Y0043620D02*
X0088900Y0043620D01*
X0088900Y0043630D02*
X0089290Y0043610D01*
X0089670Y0043550D01*
X0090040Y0043460D01*
X0090410Y0043330D01*
X0090760Y0043160D01*
X0091090Y0042970D01*
X0091400Y0042740D01*
X0091690Y0042480D01*
X0091950Y0042190D01*
X0092180Y0041880D01*
X0092370Y0041550D01*
X0092540Y0041200D01*
X0092670Y0040830D01*
X0092760Y0040460D01*
X0092820Y0040080D01*
X0092840Y0039690D01*
X0092830Y0039690D02*
X0092830Y0034960D01*
X0092840Y0034960D02*
X0092820Y0034570D01*
X0092760Y0034190D01*
X0092670Y0033820D01*
X0092540Y0033450D01*
X0092370Y0033100D01*
X0092180Y0032770D01*
X0091950Y0032460D01*
X0091690Y0032170D01*
X0091400Y0031910D01*
X0091090Y0031680D01*
X0090760Y0031490D01*
X0090410Y0031320D01*
X0090040Y0031190D01*
X0089670Y0031100D01*
X0089290Y0031040D01*
X0088900Y0031020D01*
X0081020Y0031020D01*
X0081030Y0031020D02*
X0081010Y0030750D01*
X0080960Y0030490D01*
X0080870Y0030240D01*
X0080740Y0030000D01*
X0080590Y0029780D01*
X0080400Y0029580D01*
X0080200Y0029410D01*
X0079970Y0029270D01*
X0079720Y0029160D01*
X0079460Y0029090D01*
X0079190Y0029050D01*
X0078930Y0029050D01*
X0078660Y0029090D01*
X0078400Y0029160D01*
X0078150Y0029270D01*
X0077920Y0029410D01*
X0077720Y0029580D01*
X0077530Y0029780D01*
X0077380Y0030000D01*
X0077250Y0030240D01*
X0077160Y0030490D01*
X0077110Y0030750D01*
X0077090Y0031020D01*
X0041650Y0031020D01*
X0041630Y0030750D01*
X0041580Y0030490D01*
X0041490Y0030240D01*
X0041360Y0030000D01*
X0041210Y0029780D01*
X0041020Y0029580D01*
X0040820Y0029410D01*
X0040590Y0029270D01*
X0040340Y0029160D01*
X0040080Y0029090D01*
X0039810Y0029050D01*
X0039550Y0029050D01*
X0039280Y0029090D01*
X0039020Y0029160D01*
X0038770Y0029270D01*
X0038540Y0029410D01*
X0038340Y0029580D01*
X0038150Y0029780D01*
X0038000Y0030000D01*
X0037870Y0030240D01*
X0037780Y0030490D01*
X0037730Y0030750D01*
X0037710Y0031020D01*
X0037720Y0031020D02*
X0029840Y0031020D01*
X0029450Y0031040D01*
X0029070Y0031100D01*
X0028700Y0031190D01*
X0028330Y0031320D01*
X0027980Y0031490D01*
X0027650Y0031680D01*
X0027340Y0031910D01*
X0027050Y0032170D01*
X0026790Y0032460D01*
X0026560Y0032770D01*
X0026370Y0033100D01*
X0026200Y0033450D01*
X0026070Y0033820D01*
X0025980Y0034190D01*
X0025920Y0034570D01*
X0025900Y0034960D01*
X0048920Y0159370D02*
X0048940Y0159710D01*
X0049000Y0160050D01*
X0049100Y0160380D01*
X0049230Y0160690D01*
X0049410Y0160990D01*
X0049610Y0161270D01*
X0049850Y0161520D01*
X0050110Y0161740D01*
X0050390Y0161920D01*
X0050700Y0162080D01*
X0051020Y0162200D01*
X0051360Y0162280D01*
X0051700Y0162320D01*
X0052040Y0162320D01*
X0052380Y0162280D01*
X0052720Y0162200D01*
X0053040Y0162080D01*
X0053340Y0161920D01*
X0053630Y0161740D01*
X0053890Y0161520D01*
X0054130Y0161270D01*
X0054330Y0160990D01*
X0054510Y0160690D01*
X0054640Y0160380D01*
X0054740Y0160050D01*
X0054800Y0159710D01*
X0054820Y0159370D01*
X0054800Y0159030D01*
X0054740Y0158690D01*
X0054640Y0158360D01*
X0054510Y0158050D01*
X0054330Y0157750D01*
X0054130Y0157470D01*
X0053890Y0157220D01*
X0053630Y0157000D01*
X0053350Y0156820D01*
X0053040Y0156660D01*
X0052720Y0156540D01*
X0052380Y0156460D01*
X0052040Y0156420D01*
X0051700Y0156420D01*
X0051360Y0156460D01*
X0051020Y0156540D01*
X0050700Y0156660D01*
X0050390Y0156820D01*
X0050110Y0157000D01*
X0049850Y0157220D01*
X0049610Y0157470D01*
X0049410Y0157750D01*
X0049230Y0158050D01*
X0049100Y0158360D01*
X0049000Y0158690D01*
X0048940Y0159030D01*
X0048920Y0159370D01*
X0063920Y0159370D02*
X0063940Y0159710D01*
X0064000Y0160050D01*
X0064100Y0160380D01*
X0064230Y0160690D01*
X0064410Y0160990D01*
X0064610Y0161270D01*
X0064850Y0161520D01*
X0065110Y0161740D01*
X0065390Y0161920D01*
X0065700Y0162080D01*
X0066020Y0162200D01*
X0066360Y0162280D01*
X0066700Y0162320D01*
X0067040Y0162320D01*
X0067380Y0162280D01*
X0067720Y0162200D01*
X0068040Y0162080D01*
X0068340Y0161920D01*
X0068630Y0161740D01*
X0068890Y0161520D01*
X0069130Y0161270D01*
X0069330Y0160990D01*
X0069510Y0160690D01*
X0069640Y0160380D01*
X0069740Y0160050D01*
X0069800Y0159710D01*
X0069820Y0159370D01*
X0069800Y0159030D01*
X0069740Y0158690D01*
X0069640Y0158360D01*
X0069510Y0158050D01*
X0069330Y0157750D01*
X0069130Y0157470D01*
X0068890Y0157220D01*
X0068630Y0157000D01*
X0068350Y0156820D01*
X0068040Y0156660D01*
X0067720Y0156540D01*
X0067380Y0156460D01*
X0067040Y0156420D01*
X0066700Y0156420D01*
X0066360Y0156460D01*
X0066020Y0156540D01*
X0065700Y0156660D01*
X0065390Y0156820D01*
X0065110Y0157000D01*
X0064850Y0157220D01*
X0064610Y0157470D01*
X0064410Y0157750D01*
X0064230Y0158050D01*
X0064100Y0158360D01*
X0064000Y0158690D01*
X0063940Y0159030D01*
X0063920Y0159370D01*
X0108740Y0020000D02*
G75*
%LPD*%
D340*
X0108740Y0020000D02*
X0187480Y0020000D01*
X0187480Y0059370D01*
X0165830Y0177480D01*
X0130390Y0177480D01*
X0108740Y0059370D01*
X0108740Y0020000D01*
X0114650Y0034960D02*
X0114650Y0039690D01*
X0114640Y0039690D02*
X0114660Y0040080D01*
X0114720Y0040460D01*
X0114810Y0040830D01*
X0114940Y0041200D01*
X0115110Y0041550D01*
X0115300Y0041880D01*
X0115530Y0042190D01*
X0115790Y0042480D01*
X0116080Y0042740D01*
X0116390Y0042970D01*
X0116720Y0043160D01*
X0117070Y0043330D01*
X0117440Y0043460D01*
X0117810Y0043550D01*
X0118190Y0043610D01*
X0118580Y0043630D01*
X0118580Y0043620D02*
X0126460Y0043620D01*
X0126450Y0043620D02*
X0126470Y0043890D01*
X0126520Y0044150D01*
X0126610Y0044400D01*
X0126740Y0044640D01*
X0126890Y0044860D01*
X0127080Y0045060D01*
X0127280Y0045230D01*
X0127510Y0045370D01*
X0127760Y0045480D01*
X0128020Y0045550D01*
X0128290Y0045590D01*
X0128550Y0045590D01*
X0128820Y0045550D01*
X0129080Y0045480D01*
X0129330Y0045370D01*
X0129560Y0045230D01*
X0129760Y0045060D01*
X0129950Y0044860D01*
X0130100Y0044640D01*
X0130230Y0044400D01*
X0130320Y0044150D01*
X0130370Y0043890D01*
X0130390Y0043620D01*
X0142200Y0043620D01*
X0142200Y0051500D01*
X0142220Y0051890D01*
X0142280Y0052270D01*
X0142370Y0052640D01*
X0142500Y0053010D01*
X0142670Y0053360D01*
X0142860Y0053690D01*
X0143090Y0054000D01*
X0143350Y0054290D01*
X0143640Y0054550D01*
X0143950Y0054780D01*
X0144280Y0054970D01*
X0144630Y0055140D01*
X0145000Y0055270D01*
X0145370Y0055360D01*
X0145750Y0055420D01*
X0146140Y0055440D01*
X0146140Y0055430D02*
X0150080Y0055430D01*
X0150080Y0055440D02*
X0150470Y0055420D01*
X0150850Y0055360D01*
X0151220Y0055270D01*
X0151590Y0055140D01*
X0151940Y0054970D01*
X0152270Y0054780D01*
X0152580Y0054550D01*
X0152870Y0054290D01*
X0153130Y0054000D01*
X0153360Y0053690D01*
X0153550Y0053360D01*
X0153720Y0053010D01*
X0153850Y0052640D01*
X0153940Y0052270D01*
X0154000Y0051890D01*
X0154020Y0051500D01*
X0154020Y0043620D01*
X0165830Y0043620D01*
X0165850Y0043890D01*
X0165900Y0044150D01*
X0165990Y0044400D01*
X0166120Y0044640D01*
X0166270Y0044860D01*
X0166460Y0045060D01*
X0166660Y0045230D01*
X0166890Y0045370D01*
X0167140Y0045480D01*
X0167400Y0045550D01*
X0167670Y0045590D01*
X0167930Y0045590D01*
X0168200Y0045550D01*
X0168460Y0045480D01*
X0168710Y0045370D01*
X0168940Y0045230D01*
X0169140Y0045060D01*
X0169330Y0044860D01*
X0169480Y0044640D01*
X0169610Y0044400D01*
X0169700Y0044150D01*
X0169750Y0043890D01*
X0169770Y0043620D01*
X0169760Y0043620D02*
X0177640Y0043620D01*
X0177640Y0043630D02*
X0178030Y0043610D01*
X0178410Y0043550D01*
X0178780Y0043460D01*
X0179150Y0043330D01*
X0179500Y0043160D01*
X0179830Y0042970D01*
X0180140Y0042740D01*
X0180430Y0042480D01*
X0180690Y0042190D01*
X0180920Y0041880D01*
X0181110Y0041550D01*
X0181280Y0041200D01*
X0181410Y0040830D01*
X0181500Y0040460D01*
X0181560Y0040080D01*
X0181580Y0039690D01*
X0181570Y0039690D02*
X0181570Y0034960D01*
X0181580Y0034960D02*
X0181560Y0034570D01*
X0181500Y0034190D01*
X0181410Y0033820D01*
X0181280Y0033450D01*
X0181110Y0033100D01*
X0180920Y0032770D01*
X0180690Y0032460D01*
X0180430Y0032170D01*
X0180140Y0031910D01*
X0179830Y0031680D01*
X0179500Y0031490D01*
X0179150Y0031320D01*
X0178780Y0031190D01*
X0178410Y0031100D01*
X0178030Y0031040D01*
X0177640Y0031020D01*
X0169760Y0031020D01*
X0169770Y0031020D02*
X0169750Y0030750D01*
X0169700Y0030490D01*
X0169610Y0030240D01*
X0169480Y0030000D01*
X0169330Y0029780D01*
X0169140Y0029580D01*
X0168940Y0029410D01*
X0168710Y0029270D01*
X0168460Y0029160D01*
X0168200Y0029090D01*
X0167930Y0029050D01*
X0167670Y0029050D01*
X0167400Y0029090D01*
X0167140Y0029160D01*
X0166890Y0029270D01*
X0166660Y0029410D01*
X0166460Y0029580D01*
X0166270Y0029780D01*
X0166120Y0030000D01*
X0165990Y0030240D01*
X0165900Y0030490D01*
X0165850Y0030750D01*
X0165830Y0031020D01*
X0130390Y0031020D01*
X0130370Y0030750D01*
X0130320Y0030490D01*
X0130230Y0030240D01*
X0130100Y0030000D01*
X0129950Y0029780D01*
X0129760Y0029580D01*
X0129560Y0029410D01*
X0129330Y0029270D01*
X0129080Y0029160D01*
X0128820Y0029090D01*
X0128550Y0029050D01*
X0128290Y0029050D01*
X0128020Y0029090D01*
X0127760Y0029160D01*
X0127510Y0029270D01*
X0127280Y0029410D01*
X0127080Y0029580D01*
X0126890Y0029780D01*
X0126740Y0030000D01*
X0126610Y0030240D01*
X0126520Y0030490D01*
X0126470Y0030750D01*
X0126450Y0031020D01*
X0126460Y0031020D02*
X0118580Y0031020D01*
X0118190Y0031040D01*
X0117810Y0031100D01*
X0117440Y0031190D01*
X0117070Y0031320D01*
X0116720Y0031490D01*
X0116390Y0031680D01*
X0116080Y0031910D01*
X0115790Y0032170D01*
X0115530Y0032460D01*
X0115300Y0032770D01*
X0115110Y0033100D01*
X0114940Y0033450D01*
X0114810Y0033820D01*
X0114720Y0034190D01*
X0114660Y0034570D01*
X0114640Y0034960D01*
X0137660Y0159370D02*
X0137680Y0159710D01*
X0137740Y0160050D01*
X0137840Y0160380D01*
X0137970Y0160690D01*
X0138150Y0160990D01*
X0138350Y0161270D01*
X0138590Y0161520D01*
X0138850Y0161740D01*
X0139130Y0161920D01*
X0139440Y0162080D01*
X0139760Y0162200D01*
X0140100Y0162280D01*
X0140440Y0162320D01*
X0140780Y0162320D01*
X0141120Y0162280D01*
X0141460Y0162200D01*
X0141780Y0162080D01*
X0142080Y0161920D01*
X0142370Y0161740D01*
X0142630Y0161520D01*
X0142870Y0161270D01*
X0143070Y0160990D01*
X0143250Y0160690D01*
X0143380Y0160380D01*
X0143480Y0160050D01*
X0143540Y0159710D01*
X0143560Y0159370D01*
X0143540Y0159030D01*
X0143480Y0158690D01*
X0143380Y0158360D01*
X0143250Y0158050D01*
X0143070Y0157750D01*
X0142870Y0157470D01*
X0142630Y0157220D01*
X0142370Y0157000D01*
X0142090Y0156820D01*
X0141780Y0156660D01*
X0141460Y0156540D01*
X0141120Y0156460D01*
X0140780Y0156420D01*
X0140440Y0156420D01*
X0140100Y0156460D01*
X0139760Y0156540D01*
X0139440Y0156660D01*
X0139130Y0156820D01*
X0138850Y0157000D01*
X0138590Y0157220D01*
X0138350Y0157470D01*
X0138150Y0157750D01*
X0137970Y0158050D01*
X0137840Y0158360D01*
X0137740Y0158690D01*
X0137680Y0159030D01*
X0137660Y0159370D01*
X0152660Y0159370D02*
X0152680Y0159710D01*
X0152740Y0160050D01*
X0152840Y0160380D01*
X0152970Y0160690D01*
X0153150Y0160990D01*
X0153350Y0161270D01*
X0153590Y0161520D01*
X0153850Y0161740D01*
X0154130Y0161920D01*
X0154440Y0162080D01*
X0154760Y0162200D01*
X0155100Y0162280D01*
X0155440Y0162320D01*
X0155780Y0162320D01*
X0156120Y0162280D01*
X0156460Y0162200D01*
X0156780Y0162080D01*
X0157080Y0161920D01*
X0157370Y0161740D01*
X0157630Y0161520D01*
X0157870Y0161270D01*
X0158070Y0160990D01*
X0158250Y0160690D01*
X0158380Y0160380D01*
X0158480Y0160050D01*
X0158540Y0159710D01*
X0158560Y0159370D01*
X0158540Y0159030D01*
X0158480Y0158690D01*
X0158380Y0158360D01*
X0158250Y0158050D01*
X0158070Y0157750D01*
X0157870Y0157470D01*
X0157630Y0157220D01*
X0157370Y0157000D01*
X0157090Y0156820D01*
X0156780Y0156660D01*
X0156460Y0156540D01*
X0156120Y0156460D01*
X0155780Y0156420D01*
X0155440Y0156420D01*
X0155100Y0156460D01*
X0154760Y0156540D01*
X0154440Y0156660D01*
X0154130Y0156820D01*
X0153850Y0157000D01*
X0153590Y0157220D01*
X0153350Y0157470D01*
X0153150Y0157750D01*
X0152970Y0158050D01*
X0152840Y0158360D01*
X0152740Y0158690D01*
X0152680Y0159030D01*
X0152660Y0159370D01*
X0197480Y0020000D02*
G75*
%LPD*%
D340*
X0197480Y0020000D02*
X0276220Y0020000D01*
X0276220Y0059370D01*
X0254570Y0177480D01*
X0219130Y0177480D01*
X0197480Y0059370D01*
X0197480Y0020000D01*
X0203390Y0034960D02*
X0203390Y0039690D01*
X0203380Y0039690D02*
X0203400Y0040080D01*
X0203460Y0040460D01*
X0203550Y0040830D01*
X0203680Y0041200D01*
X0203850Y0041550D01*
X0204040Y0041880D01*
X0204270Y0042190D01*
X0204530Y0042480D01*
X0204820Y0042740D01*
X0205130Y0042970D01*
X0205460Y0043160D01*
X0205810Y0043330D01*
X0206180Y0043460D01*
X0206550Y0043550D01*
X0206930Y0043610D01*
X0207320Y0043630D01*
X0207320Y0043620D02*
X0215200Y0043620D01*
X0215190Y0043620D02*
X0215210Y0043890D01*
X0215260Y0044150D01*
X0215350Y0044400D01*
X0215480Y0044640D01*
X0215630Y0044860D01*
X0215820Y0045060D01*
X0216020Y0045230D01*
X0216250Y0045370D01*
X0216500Y0045480D01*
X0216760Y0045550D01*
X0217030Y0045590D01*
X0217290Y0045590D01*
X0217560Y0045550D01*
X0217820Y0045480D01*
X0218070Y0045370D01*
X0218300Y0045230D01*
X0218500Y0045060D01*
X0218690Y0044860D01*
X0218840Y0044640D01*
X0218970Y0044400D01*
X0219060Y0044150D01*
X0219110Y0043890D01*
X0219130Y0043620D01*
X0230940Y0043620D01*
X0230940Y0051500D01*
X0230960Y0051890D01*
X0231020Y0052270D01*
X0231110Y0052640D01*
X0231240Y0053010D01*
X0231410Y0053360D01*
X0231600Y0053690D01*
X0231830Y0054000D01*
X0232090Y0054290D01*
X0232380Y0054550D01*
X0232690Y0054780D01*
X0233020Y0054970D01*
X0233370Y0055140D01*
X0233740Y0055270D01*
X0234110Y0055360D01*
X0234490Y0055420D01*
X0234880Y0055440D01*
X0234880Y0055430D02*
X0238820Y0055430D01*
X0238820Y0055440D02*
X0239210Y0055420D01*
X0239590Y0055360D01*
X0239960Y0055270D01*
X0240330Y0055140D01*
X0240680Y0054970D01*
X0241010Y0054780D01*
X0241320Y0054550D01*
X0241610Y0054290D01*
X0241870Y0054000D01*
X0242100Y0053690D01*
X0242290Y0053360D01*
X0242460Y0053010D01*
X0242590Y0052640D01*
X0242680Y0052270D01*
X0242740Y0051890D01*
X0242760Y0051500D01*
X0242760Y0043620D01*
X0254570Y0043620D01*
X0254590Y0043890D01*
X0254640Y0044150D01*
X0254730Y0044400D01*
X0254860Y0044640D01*
X0255010Y0044860D01*
X0255200Y0045060D01*
X0255400Y0045230D01*
X0255630Y0045370D01*
X0255880Y0045480D01*
X0256140Y0045550D01*
X0256410Y0045590D01*
X0256670Y0045590D01*
X0256940Y0045550D01*
X0257200Y0045480D01*
X0257450Y0045370D01*
X0257680Y0045230D01*
X0257880Y0045060D01*
X0258070Y0044860D01*
X0258220Y0044640D01*
X0258350Y0044400D01*
X0258440Y0044150D01*
X0258490Y0043890D01*
X0258510Y0043620D01*
X0258500Y0043620D02*
X0266380Y0043620D01*
X0266380Y0043630D02*
X0266770Y0043610D01*
X0267150Y0043550D01*
X0267520Y0043460D01*
X0267890Y0043330D01*
X0268240Y0043160D01*
X0268570Y0042970D01*
X0268880Y0042740D01*
X0269170Y0042480D01*
X0269430Y0042190D01*
X0269660Y0041880D01*
X0269850Y0041550D01*
X0270020Y0041200D01*
X0270150Y0040830D01*
X0270240Y0040460D01*
X0270300Y0040080D01*
X0270320Y0039690D01*
X0270310Y0039690D02*
X0270310Y0034960D01*
X0270320Y0034960D02*
X0270300Y0034570D01*
X0270240Y0034190D01*
X0270150Y0033820D01*
X0270020Y0033450D01*
X0269850Y0033100D01*
X0269660Y0032770D01*
X0269430Y0032460D01*
X0269170Y0032170D01*
X0268880Y0031910D01*
X0268570Y0031680D01*
X0268240Y0031490D01*
X0267890Y0031320D01*
X0267520Y0031190D01*
X0267150Y0031100D01*
X0266770Y0031040D01*
X0266380Y0031020D01*
X0258500Y0031020D01*
X0258510Y0031020D02*
X0258490Y0030750D01*
X0258440Y0030490D01*
X0258350Y0030240D01*
X0258220Y0030000D01*
X0258070Y0029780D01*
X0257880Y0029580D01*
X0257680Y0029410D01*
X0257450Y0029270D01*
X0257200Y0029160D01*
X0256940Y0029090D01*
X0256670Y0029050D01*
X0256410Y0029050D01*
X0256140Y0029090D01*
X0255880Y0029160D01*
X0255630Y0029270D01*
X0255400Y0029410D01*
X0255200Y0029580D01*
X0255010Y0029780D01*
X0254860Y0030000D01*
X0254730Y0030240D01*
X0254640Y0030490D01*
X0254590Y0030750D01*
X0254570Y0031020D01*
X0219130Y0031020D01*
X0219110Y0030750D01*
X0219060Y0030490D01*
X0218970Y0030240D01*
X0218840Y0030000D01*
X0218690Y0029780D01*
X0218500Y0029580D01*
X0218300Y0029410D01*
X0218070Y0029270D01*
X0217820Y0029160D01*
X0217560Y0029090D01*
X0217290Y0029050D01*
X0217030Y0029050D01*
X0216760Y0029090D01*
X0216500Y0029160D01*
X0216250Y0029270D01*
X0216020Y0029410D01*
X0215820Y0029580D01*
X0215630Y0029780D01*
X0215480Y0030000D01*
X0215350Y0030240D01*
X0215260Y0030490D01*
X0215210Y0030750D01*
X0215190Y0031020D01*
X0215200Y0031020D02*
X0207320Y0031020D01*
X0206930Y0031040D01*
X0206550Y0031100D01*
X0206180Y0031190D01*
X0205810Y0031320D01*
X0205460Y0031490D01*
X0205130Y0031680D01*
X0204820Y0031910D01*
X0204530Y0032170D01*
X0204270Y0032460D01*
X0204040Y0032770D01*
X0203850Y0033100D01*
X0203680Y0033450D01*
X0203550Y0033820D01*
X0203460Y0034190D01*
X0203400Y0034570D01*
X0203380Y0034960D01*
X0226400Y0159370D02*
X0226420Y0159710D01*
X0226480Y0160050D01*
X0226580Y0160380D01*
X0226710Y0160690D01*
X0226890Y0160990D01*
X0227090Y0161270D01*
X0227330Y0161520D01*
X0227590Y0161740D01*
X0227870Y0161920D01*
X0228180Y0162080D01*
X0228500Y0162200D01*
X0228840Y0162280D01*
X0229180Y0162320D01*
X0229520Y0162320D01*
X0229860Y0162280D01*
X0230200Y0162200D01*
X0230520Y0162080D01*
X0230820Y0161920D01*
X0231110Y0161740D01*
X0231370Y0161520D01*
X0231610Y0161270D01*
X0231810Y0160990D01*
X0231990Y0160690D01*
X0232120Y0160380D01*
X0232220Y0160050D01*
X0232280Y0159710D01*
X0232300Y0159370D01*
X0232280Y0159030D01*
X0232220Y0158690D01*
X0232120Y0158360D01*
X0231990Y0158050D01*
X0231810Y0157750D01*
X0231610Y0157470D01*
X0231370Y0157220D01*
X0231110Y0157000D01*
X0230830Y0156820D01*
X0230520Y0156660D01*
X0230200Y0156540D01*
X0229860Y0156460D01*
X0229520Y0156420D01*
X0229180Y0156420D01*
X0228840Y0156460D01*
X0228500Y0156540D01*
X0228180Y0156660D01*
X0227870Y0156820D01*
X0227590Y0157000D01*
X0227330Y0157220D01*
X0227090Y0157470D01*
X0226890Y0157750D01*
X0226710Y0158050D01*
X0226580Y0158360D01*
X0226480Y0158690D01*
X0226420Y0159030D01*
X0226400Y0159370D01*
X0241400Y0159370D02*
X0241420Y0159710D01*
X0241480Y0160050D01*
X0241580Y0160380D01*
X0241710Y0160690D01*
X0241890Y0160990D01*
X0242090Y0161270D01*
X0242330Y0161520D01*
X0242590Y0161740D01*
X0242870Y0161920D01*
X0243180Y0162080D01*
X0243500Y0162200D01*
X0243840Y0162280D01*
X0244180Y0162320D01*
X0244520Y0162320D01*
X0244860Y0162280D01*
X0245200Y0162200D01*
X0245520Y0162080D01*
X0245820Y0161920D01*
X0246110Y0161740D01*
X0246370Y0161520D01*
X0246610Y0161270D01*
X0246810Y0160990D01*
X0246990Y0160690D01*
X0247120Y0160380D01*
X0247220Y0160050D01*
X0247280Y0159710D01*
X0247300Y0159370D01*
X0247280Y0159030D01*
X0247220Y0158690D01*
X0247120Y0158360D01*
X0246990Y0158050D01*
X0246810Y0157750D01*
X0246610Y0157470D01*
X0246370Y0157220D01*
X0246110Y0157000D01*
X0245830Y0156820D01*
X0245520Y0156660D01*
X0245200Y0156540D01*
X0244860Y0156460D01*
X0244520Y0156420D01*
X0244180Y0156420D01*
X0243840Y0156460D01*
X0243500Y0156540D01*
X0243180Y0156660D01*
X0242870Y0156820D01*
X0242590Y0157000D01*
X0242330Y0157220D01*
X0242090Y0157470D01*
X0241890Y0157750D01*
X0241710Y0158050D01*
X0241580Y0158360D01*
X0241480Y0158690D01*
X0241420Y0159030D01*
X0241400Y0159370D01*
X0286220Y0020000D02*
G75*
%LPD*%
D340*
X0286220Y0020000D02*
X0364960Y0020000D01*
X0364960Y0059370D01*
X0343310Y0177480D01*
X0307870Y0177480D01*
X0286220Y0059370D01*
X0286220Y0020000D01*
X0292130Y0034960D02*
X0292130Y0039690D01*
X0292120Y0039690D02*
X0292140Y0040080D01*
X0292200Y0040460D01*
X0292290Y0040830D01*
X0292420Y0041200D01*
X0292590Y0041550D01*
X0292780Y0041880D01*
X0293010Y0042190D01*
X0293270Y0042480D01*
X0293560Y0042740D01*
X0293870Y0042970D01*
X0294200Y0043160D01*
X0294550Y0043330D01*
X0294920Y0043460D01*
X0295290Y0043550D01*
X0295670Y0043610D01*
X0296060Y0043630D01*
X0296060Y0043620D02*
X0303940Y0043620D01*
X0303930Y0043620D02*
X0303950Y0043890D01*
X0304000Y0044150D01*
X0304090Y0044400D01*
X0304220Y0044640D01*
X0304370Y0044860D01*
X0304560Y0045060D01*
X0304760Y0045230D01*
X0304990Y0045370D01*
X0305240Y0045480D01*
X0305500Y0045550D01*
X0305770Y0045590D01*
X0306030Y0045590D01*
X0306300Y0045550D01*
X0306560Y0045480D01*
X0306810Y0045370D01*
X0307040Y0045230D01*
X0307240Y0045060D01*
X0307430Y0044860D01*
X0307580Y0044640D01*
X0307710Y0044400D01*
X0307800Y0044150D01*
X0307850Y0043890D01*
X0307870Y0043620D01*
X0319680Y0043620D01*
X0319680Y0051500D01*
X0319700Y0051890D01*
X0319760Y0052270D01*
X0319850Y0052640D01*
X0319980Y0053010D01*
X0320150Y0053360D01*
X0320340Y0053690D01*
X0320570Y0054000D01*
X0320830Y0054290D01*
X0321120Y0054550D01*
X0321430Y0054780D01*
X0321760Y0054970D01*
X0322110Y0055140D01*
X0322480Y0055270D01*
X0322850Y0055360D01*
X0323230Y0055420D01*
X0323620Y0055440D01*
X0323620Y0055430D02*
X0327560Y0055430D01*
X0327560Y0055440D02*
X0327950Y0055420D01*
X0328330Y0055360D01*
X0328700Y0055270D01*
X0329070Y0055140D01*
X0329420Y0054970D01*
X0329750Y0054780D01*
X0330060Y0054550D01*
X0330350Y0054290D01*
X0330610Y0054000D01*
X0330840Y0053690D01*
X0331030Y0053360D01*
X0331200Y0053010D01*
X0331330Y0052640D01*
X0331420Y0052270D01*
X0331480Y0051890D01*
X0331500Y0051500D01*
X0331500Y0043620D01*
X0343310Y0043620D01*
X0343330Y0043890D01*
X0343380Y0044150D01*
X0343470Y0044400D01*
X0343600Y0044640D01*
X0343750Y0044860D01*
X0343940Y0045060D01*
X0344140Y0045230D01*
X0344370Y0045370D01*
X0344620Y0045480D01*
X0344880Y0045550D01*
X0345150Y0045590D01*
X0345410Y0045590D01*
X0345680Y0045550D01*
X0345940Y0045480D01*
X0346190Y0045370D01*
X0346420Y0045230D01*
X0346620Y0045060D01*
X0346810Y0044860D01*
X0346960Y0044640D01*
X0347090Y0044400D01*
X0347180Y0044150D01*
X0347230Y0043890D01*
X0347250Y0043620D01*
X0347240Y0043620D02*
X0355120Y0043620D01*
X0355120Y0043630D02*
X0355510Y0043610D01*
X0355890Y0043550D01*
X0356260Y0043460D01*
X0356630Y0043330D01*
X0356980Y0043160D01*
X0357310Y0042970D01*
X0357620Y0042740D01*
X0357910Y0042480D01*
X0358170Y0042190D01*
X0358400Y0041880D01*
X0358590Y0041550D01*
X0358760Y0041200D01*
X0358890Y0040830D01*
X0358980Y0040460D01*
X0359040Y0040080D01*
X0359060Y0039690D01*
X0359050Y0039690D02*
X0359050Y0034960D01*
X0359060Y0034960D02*
X0359040Y0034570D01*
X0358980Y0034190D01*
X0358890Y0033820D01*
X0358760Y0033450D01*
X0358590Y0033100D01*
X0358400Y0032770D01*
X0358170Y0032460D01*
X0357910Y0032170D01*
X0357620Y0031910D01*
X0357310Y0031680D01*
X0356980Y0031490D01*
X0356630Y0031320D01*
X0356260Y0031190D01*
X0355890Y0031100D01*
X0355510Y0031040D01*
X0355120Y0031020D01*
X0347240Y0031020D01*
X0347250Y0031020D02*
X0347230Y0030750D01*
X0347180Y0030490D01*
X0347090Y0030240D01*
X0346960Y0030000D01*
X0346810Y0029780D01*
X0346620Y0029580D01*
X0346420Y0029410D01*
X0346190Y0029270D01*
X0345940Y0029160D01*
X0345680Y0029090D01*
X0345410Y0029050D01*
X0345150Y0029050D01*
X0344880Y0029090D01*
X0344620Y0029160D01*
X0344370Y0029270D01*
X0344140Y0029410D01*
X0343940Y0029580D01*
X0343750Y0029780D01*
X0343600Y0030000D01*
X0343470Y0030240D01*
X0343380Y0030490D01*
X0343330Y0030750D01*
X0343310Y0031020D01*
X0307870Y0031020D01*
X0307850Y0030750D01*
X0307800Y0030490D01*
X0307710Y0030240D01*
X0307580Y0030000D01*
X0307430Y0029780D01*
X0307240Y0029580D01*
X0307040Y0029410D01*
X0306810Y0029270D01*
X0306560Y0029160D01*
X0306300Y0029090D01*
X0306030Y0029050D01*
X0305770Y0029050D01*
X0305500Y0029090D01*
X0305240Y0029160D01*
X0304990Y0029270D01*
X0304760Y0029410D01*
X0304560Y0029580D01*
X0304370Y0029780D01*
X0304220Y0030000D01*
X0304090Y0030240D01*
X0304000Y0030490D01*
X0303950Y0030750D01*
X0303930Y0031020D01*
X0303940Y0031020D02*
X0296060Y0031020D01*
X0295670Y0031040D01*
X0295290Y0031100D01*
X0294920Y0031190D01*
X0294550Y0031320D01*
X0294200Y0031490D01*
X0293870Y0031680D01*
X0293560Y0031910D01*
X0293270Y0032170D01*
X0293010Y0032460D01*
X0292780Y0032770D01*
X0292590Y0033100D01*
X0292420Y0033450D01*
X0292290Y0033820D01*
X0292200Y0034190D01*
X0292140Y0034570D01*
X0292120Y0034960D01*
X0315140Y0159370D02*
X0315160Y0159710D01*
X0315220Y0160050D01*
X0315320Y0160380D01*
X0315450Y0160690D01*
X0315630Y0160990D01*
X0315830Y0161270D01*
X0316070Y0161520D01*
X0316330Y0161740D01*
X0316610Y0161920D01*
X0316920Y0162080D01*
X0317240Y0162200D01*
X0317580Y0162280D01*
X0317920Y0162320D01*
X0318260Y0162320D01*
X0318600Y0162280D01*
X0318940Y0162200D01*
X0319260Y0162080D01*
X0319560Y0161920D01*
X0319850Y0161740D01*
X0320110Y0161520D01*
X0320350Y0161270D01*
X0320550Y0160990D01*
X0320730Y0160690D01*
X0320860Y0160380D01*
X0320960Y0160050D01*
X0321020Y0159710D01*
X0321040Y0159370D01*
X0321020Y0159030D01*
X0320960Y0158690D01*
X0320860Y0158360D01*
X0320730Y0158050D01*
X0320550Y0157750D01*
X0320350Y0157470D01*
X0320110Y0157220D01*
X0319850Y0157000D01*
X0319570Y0156820D01*
X0319260Y0156660D01*
X0318940Y0156540D01*
X0318600Y0156460D01*
X0318260Y0156420D01*
X0317920Y0156420D01*
X0317580Y0156460D01*
X0317240Y0156540D01*
X0316920Y0156660D01*
X0316610Y0156820D01*
X0316330Y0157000D01*
X0316070Y0157220D01*
X0315830Y0157470D01*
X0315630Y0157750D01*
X0315450Y0158050D01*
X0315320Y0158360D01*
X0315220Y0158690D01*
X0315160Y0159030D01*
X0315140Y0159370D01*
X0330140Y0159370D02*
X0330160Y0159710D01*
X0330220Y0160050D01*
X0330320Y0160380D01*
X0330450Y0160690D01*
X0330630Y0160990D01*
X0330830Y0161270D01*
X0331070Y0161520D01*
X0331330Y0161740D01*
X0331610Y0161920D01*
X0331920Y0162080D01*
X0332240Y0162200D01*
X0332580Y0162280D01*
X0332920Y0162320D01*
X0333260Y0162320D01*
X0333600Y0162280D01*
X0333940Y0162200D01*
X0334260Y0162080D01*
X0334560Y0161920D01*
X0334850Y0161740D01*
X0335110Y0161520D01*
X0335350Y0161270D01*
X0335550Y0160990D01*
X0335730Y0160690D01*
X0335860Y0160380D01*
X0335960Y0160050D01*
X0336020Y0159710D01*
X0336040Y0159370D01*
X0336020Y0159030D01*
X0335960Y0158690D01*
X0335860Y0158360D01*
X0335730Y0158050D01*
X0335550Y0157750D01*
X0335350Y0157470D01*
X0335110Y0157220D01*
X0334850Y0157000D01*
X0334570Y0156820D01*
X0334260Y0156660D01*
X0333940Y0156540D01*
X0333600Y0156460D01*
X0333260Y0156420D01*
X0332920Y0156420D01*
X0332580Y0156460D01*
X0332240Y0156540D01*
X0331920Y0156660D01*
X0331610Y0156820D01*
X0331330Y0157000D01*
X0331070Y0157220D01*
X0330830Y0157470D01*
X0330630Y0157750D01*
X0330450Y0158050D01*
X0330320Y0158360D01*
X0330220Y0158690D01*
X0330160Y0159030D01*
X0330140Y0159370D01*
X0020000Y0187480D02*
G75*
%LPD*%
D340*
X0020000Y0187480D02*
X0098740Y0187480D01*
X0098740Y0226850D01*
X0077090Y0344960D01*
X0041650Y0344960D01*
X0020000Y0226850D01*
X0020000Y0187480D01*
X0025910Y0202440D02*
X0025910Y0207170D01*
X0025900Y0207170D02*
X0025920Y0207560D01*
X0025980Y0207940D01*
X0026070Y0208310D01*
X0026200Y0208680D01*
X0026370Y0209030D01*
X0026560Y0209360D01*
X0026790Y0209670D01*
X0027050Y0209960D01*
X0027340Y0210220D01*
X0027650Y0210450D01*
X0027980Y0210640D01*
X0028330Y0210810D01*
X0028700Y0210940D01*
X0029070Y0211030D01*
X0029450Y0211090D01*
X0029840Y0211110D01*
X0029840Y0211100D02*
X0037720Y0211100D01*
X0037710Y0211100D02*
X0037730Y0211370D01*
X0037780Y0211630D01*
X0037870Y0211880D01*
X0038000Y0212120D01*
X0038150Y0212340D01*
X0038340Y0212540D01*
X0038540Y0212710D01*
X0038770Y0212850D01*
X0039020Y0212960D01*
X0039280Y0213030D01*
X0039550Y0213070D01*
X0039810Y0213070D01*
X0040080Y0213030D01*
X0040340Y0212960D01*
X0040590Y0212850D01*
X0040820Y0212710D01*
X0041020Y0212540D01*
X0041210Y0212340D01*
X0041360Y0212120D01*
X0041490Y0211880D01*
X0041580Y0211630D01*
X0041630Y0211370D01*
X0041650Y0211100D01*
X0053460Y0211100D01*
X0053460Y0218980D01*
X0053480Y0219370D01*
X0053540Y0219750D01*
X0053630Y0220120D01*
X0053760Y0220490D01*
X0053930Y0220840D01*
X0054120Y0221170D01*
X0054350Y0221480D01*
X0054610Y0221770D01*
X0054900Y0222030D01*
X0055210Y0222260D01*
X0055540Y0222450D01*
X0055890Y0222620D01*
X0056260Y0222750D01*
X0056630Y0222840D01*
X0057010Y0222900D01*
X0057400Y0222920D01*
X0057400Y0222910D02*
X0061340Y0222910D01*
X0061340Y0222920D02*
X0061730Y0222900D01*
X0062110Y0222840D01*
X0062480Y0222750D01*
X0062850Y0222620D01*
X0063200Y0222450D01*
X0063530Y0222260D01*
X0063840Y0222030D01*
X0064130Y0221770D01*
X0064390Y0221480D01*
X0064620Y0221170D01*
X0064810Y0220840D01*
X0064980Y0220490D01*
X0065110Y0220120D01*
X0065200Y0219750D01*
X0065260Y0219370D01*
X0065280Y0218980D01*
X0065280Y0211100D01*
X0077090Y0211100D01*
X0077110Y0211370D01*
X0077160Y0211630D01*
X0077250Y0211880D01*
X0077380Y0212120D01*
X0077530Y0212340D01*
X0077720Y0212540D01*
X0077920Y0212710D01*
X0078150Y0212850D01*
X0078400Y0212960D01*
X0078660Y0213030D01*
X0078930Y0213070D01*
X0079190Y0213070D01*
X0079460Y0213030D01*
X0079720Y0212960D01*
X0079970Y0212850D01*
X0080200Y0212710D01*
X0080400Y0212540D01*
X0080590Y0212340D01*
X0080740Y0212120D01*
X0080870Y0211880D01*
X0080960Y0211630D01*
X0081010Y0211370D01*
X0081030Y0211100D01*
X0081020Y0211100D02*
X0088900Y0211100D01*
X0088900Y0211110D02*
X0089290Y0211090D01*
X0089670Y0211030D01*
X0090040Y0210940D01*
X0090410Y0210810D01*
X0090760Y0210640D01*
X0091090Y0210450D01*
X0091400Y0210220D01*
X0091690Y0209960D01*
X0091950Y0209670D01*
X0092180Y0209360D01*
X0092370Y0209030D01*
X0092540Y0208680D01*
X0092670Y0208310D01*
X0092760Y0207940D01*
X0092820Y0207560D01*
X0092840Y0207170D01*
X0092830Y0207170D02*
X0092830Y0202440D01*
X0092840Y0202440D02*
X0092820Y0202050D01*
X0092760Y0201670D01*
X0092670Y0201300D01*
X0092540Y0200930D01*
X0092370Y0200580D01*
X0092180Y0200250D01*
X0091950Y0199940D01*
X0091690Y0199650D01*
X0091400Y0199390D01*
X0091090Y0199160D01*
X0090760Y0198970D01*
X0090410Y0198800D01*
X0090040Y0198670D01*
X0089670Y0198580D01*
X0089290Y0198520D01*
X0088900Y0198500D01*
X0081020Y0198500D01*
X0081030Y0198500D02*
X0081010Y0198230D01*
X0080960Y0197970D01*
X0080870Y0197720D01*
X0080740Y0197480D01*
X0080590Y0197260D01*
X0080400Y0197060D01*
X0080200Y0196890D01*
X0079970Y0196750D01*
X0079720Y0196640D01*
X0079460Y0196570D01*
X0079190Y0196530D01*
X0078930Y0196530D01*
X0078660Y0196570D01*
X0078400Y0196640D01*
X0078150Y0196750D01*
X0077920Y0196890D01*
X0077720Y0197060D01*
X0077530Y0197260D01*
X0077380Y0197480D01*
X0077250Y0197720D01*
X0077160Y0197970D01*
X0077110Y0198230D01*
X0077090Y0198500D01*
X0041650Y0198500D01*
X0041630Y0198230D01*
X0041580Y0197970D01*
X0041490Y0197720D01*
X0041360Y0197480D01*
X0041210Y0197260D01*
X0041020Y0197060D01*
X0040820Y0196890D01*
X0040590Y0196750D01*
X0040340Y0196640D01*
X0040080Y0196570D01*
X0039810Y0196530D01*
X0039550Y0196530D01*
X0039280Y0196570D01*
X0039020Y0196640D01*
X0038770Y0196750D01*
X0038540Y0196890D01*
X0038340Y0197060D01*
X0038150Y0197260D01*
X0038000Y0197480D01*
X0037870Y0197720D01*
X0037780Y0197970D01*
X0037730Y0198230D01*
X0037710Y0198500D01*
X0037720Y0198500D02*
X0029840Y0198500D01*
X0029450Y0198520D01*
X0029070Y0198580D01*
X0028700Y0198670D01*
X0028330Y0198800D01*
X0027980Y0198970D01*
X0027650Y0199160D01*
X0027340Y0199390D01*
X0027050Y0199650D01*
X0026790Y0199940D01*
X0026560Y0200250D01*
X0026370Y0200580D01*
X0026200Y0200930D01*
X0026070Y0201300D01*
X0025980Y0201670D01*
X0025920Y0202050D01*
X0025900Y0202440D01*
X0048920Y0326850D02*
X0048940Y0327190D01*
X0049000Y0327530D01*
X0049100Y0327860D01*
X0049230Y0328170D01*
X0049410Y0328470D01*
X0049610Y0328750D01*
X0049850Y0329000D01*
X0050110Y0329220D01*
X0050390Y0329400D01*
X0050700Y0329560D01*
X0051020Y0329680D01*
X0051360Y0329760D01*
X0051700Y0329800D01*
X0052040Y0329800D01*
X0052380Y0329760D01*
X0052720Y0329680D01*
X0053040Y0329560D01*
X0053340Y0329400D01*
X0053630Y0329220D01*
X0053890Y0329000D01*
X0054130Y0328750D01*
X0054330Y0328470D01*
X0054510Y0328170D01*
X0054640Y0327860D01*
X0054740Y0327530D01*
X0054800Y0327190D01*
X0054820Y0326850D01*
X0054800Y0326510D01*
X0054740Y0326170D01*
X0054640Y0325840D01*
X0054510Y0325530D01*
X0054330Y0325230D01*
X0054130Y0324950D01*
X0053890Y0324700D01*
X0053630Y0324480D01*
X0053350Y0324300D01*
X0053040Y0324140D01*
X0052720Y0324020D01*
X0052380Y0323940D01*
X0052040Y0323900D01*
X0051700Y0323900D01*
X0051360Y0323940D01*
X0051020Y0324020D01*
X0050700Y0324140D01*
X0050390Y0324300D01*
X0050110Y0324480D01*
X0049850Y0324700D01*
X0049610Y0324950D01*
X0049410Y0325230D01*
X0049230Y0325530D01*
X0049100Y0325840D01*
X0049000Y0326170D01*
X0048940Y0326510D01*
X0048920Y0326850D01*
X0063920Y0326850D02*
X0063940Y0327190D01*
X0064000Y0327530D01*
X0064100Y0327860D01*
X0064230Y0328170D01*
X0064410Y0328470D01*
X0064610Y0328750D01*
X0064850Y0329000D01*
X0065110Y0329220D01*
X0065390Y0329400D01*
X0065700Y0329560D01*
X0066020Y0329680D01*
X0066360Y0329760D01*
X0066700Y0329800D01*
X0067040Y0329800D01*
X0067380Y0329760D01*
X0067720Y0329680D01*
X0068040Y0329560D01*
X0068340Y0329400D01*
X0068630Y0329220D01*
X0068890Y0329000D01*
X0069130Y0328750D01*
X0069330Y0328470D01*
X0069510Y0328170D01*
X0069640Y0327860D01*
X0069740Y0327530D01*
X0069800Y0327190D01*
X0069820Y0326850D01*
X0069800Y0326510D01*
X0069740Y0326170D01*
X0069640Y0325840D01*
X0069510Y0325530D01*
X0069330Y0325230D01*
X0069130Y0324950D01*
X0068890Y0324700D01*
X0068630Y0324480D01*
X0068350Y0324300D01*
X0068040Y0324140D01*
X0067720Y0324020D01*
X0067380Y0323940D01*
X0067040Y0323900D01*
X0066700Y0323900D01*
X0066360Y0323940D01*
X0066020Y0324020D01*
X0065700Y0324140D01*
X0065390Y0324300D01*
X0065110Y0324480D01*
X0064850Y0324700D01*
X0064610Y0324950D01*
X0064410Y0325230D01*
X0064230Y0325530D01*
X0064100Y0325840D01*
X0064000Y0326170D01*
X0063940Y0326510D01*
X0063920Y0326850D01*
X0108740Y0187480D02*
G75*
%LPD*%
D340*
X0108740Y0187480D02*
X0187480Y0187480D01*
X0187480Y0226850D01*
X0165830Y0344960D01*
X0130390Y0344960D01*
X0108740Y0226850D01*
X0108740Y0187480D01*
X0114650Y0202440D02*
X0114650Y0207170D01*
X0114640Y0207170D02*
X0114660Y0207560D01*
X0114720Y0207940D01*
X0114810Y0208310D01*
X0114940Y0208680D01*
X0115110Y0209030D01*
X0115300Y0209360D01*
X0115530Y0209670D01*
X0115790Y0209960D01*
X0116080Y0210220D01*
X0116390Y0210450D01*
X0116720Y0210640D01*
X0117070Y0210810D01*
X0117440Y0210940D01*
X0117810Y0211030D01*
X0118190Y0211090D01*
X0118580Y0211110D01*
X0118580Y0211100D02*
X0126460Y0211100D01*
X0126450Y0211100D02*
X0126470Y0211370D01*
X0126520Y0211630D01*
X0126610Y0211880D01*
X0126740Y0212120D01*
X0126890Y0212340D01*
X0127080Y0212540D01*
X0127280Y0212710D01*
X0127510Y0212850D01*
X0127760Y0212960D01*
X0128020Y0213030D01*
X0128290Y0213070D01*
X0128550Y0213070D01*
X0128820Y0213030D01*
X0129080Y0212960D01*
X0129330Y0212850D01*
X0129560Y0212710D01*
X0129760Y0212540D01*
X0129950Y0212340D01*
X0130100Y0212120D01*
X0130230Y0211880D01*
X0130320Y0211630D01*
X0130370Y0211370D01*
X0130390Y0211100D01*
X0142200Y0211100D01*
X0142200Y0218980D01*
X0142220Y0219370D01*
X0142280Y0219750D01*
X0142370Y0220120D01*
X0142500Y0220490D01*
X0142670Y0220840D01*
X0142860Y0221170D01*
X0143090Y0221480D01*
X0143350Y0221770D01*
X0143640Y0222030D01*
X0143950Y0222260D01*
X0144280Y0222450D01*
X0144630Y0222620D01*
X0145000Y0222750D01*
X0145370Y0222840D01*
X0145750Y0222900D01*
X0146140Y0222920D01*
X0146140Y0222910D02*
X0150080Y0222910D01*
X0150080Y0222920D02*
X0150470Y0222900D01*
X0150850Y0222840D01*
X0151220Y0222750D01*
X0151590Y0222620D01*
X0151940Y0222450D01*
X0152270Y0222260D01*
X0152580Y0222030D01*
X0152870Y0221770D01*
X0153130Y0221480D01*
X0153360Y0221170D01*
X0153550Y0220840D01*
X0153720Y0220490D01*
X0153850Y0220120D01*
X0153940Y0219750D01*
X0154000Y0219370D01*
X0154020Y0218980D01*
X0154020Y0211100D01*
X0165830Y0211100D01*
X0165850Y0211370D01*
X0165900Y0211630D01*
X0165990Y0211880D01*
X0166120Y0212120D01*
X0166270Y0212340D01*
X0166460Y0212540D01*
X0166660Y0212710D01*
X0166890Y0212850D01*
X0167140Y0212960D01*
X0167400Y0213030D01*
X0167670Y0213070D01*
X0167930Y0213070D01*
X0168200Y0213030D01*
X0168460Y0212960D01*
X0168710Y0212850D01*
X0168940Y0212710D01*
X0169140Y0212540D01*
X0169330Y0212340D01*
X0169480Y0212120D01*
X0169610Y0211880D01*
X0169700Y0211630D01*
X0169750Y0211370D01*
X0169770Y0211100D01*
X0169760Y0211100D02*
X0177640Y0211100D01*
X0177640Y0211110D02*
X0178030Y0211090D01*
X0178410Y0211030D01*
X0178780Y0210940D01*
X0179150Y0210810D01*
X0179500Y0210640D01*
X0179830Y0210450D01*
X0180140Y0210220D01*
X0180430Y0209960D01*
X0180690Y0209670D01*
X0180920Y0209360D01*
X0181110Y0209030D01*
X0181280Y0208680D01*
X0181410Y0208310D01*
X0181500Y0207940D01*
X0181560Y0207560D01*
X0181580Y0207170D01*
X0181570Y0207170D02*
X0181570Y0202440D01*
X0181580Y0202440D02*
X0181560Y0202050D01*
X0181500Y0201670D01*
X0181410Y0201300D01*
X0181280Y0200930D01*
X0181110Y0200580D01*
X0180920Y0200250D01*
X0180690Y0199940D01*
X0180430Y0199650D01*
X0180140Y0199390D01*
X0179830Y0199160D01*
X0179500Y0198970D01*
X0179150Y0198800D01*
X0178780Y0198670D01*
X0178410Y0198580D01*
X0178030Y0198520D01*
X0177640Y0198500D01*
X0169760Y0198500D01*
X0169770Y0198500D02*
X0169750Y0198230D01*
X0169700Y0197970D01*
X0169610Y0197720D01*
X0169480Y0197480D01*
X0169330Y0197260D01*
X0169140Y0197060D01*
X0168940Y0196890D01*
X0168710Y0196750D01*
X0168460Y0196640D01*
X0168200Y0196570D01*
X0167930Y0196530D01*
X0167670Y0196530D01*
X0167400Y0196570D01*
X0167140Y0196640D01*
X0166890Y0196750D01*
X0166660Y0196890D01*
X0166460Y0197060D01*
X0166270Y0197260D01*
X0166120Y0197480D01*
X0165990Y0197720D01*
X0165900Y0197970D01*
X0165850Y0198230D01*
X0165830Y0198500D01*
X0130390Y0198500D01*
X0130370Y0198230D01*
X0130320Y0197970D01*
X0130230Y0197720D01*
X0130100Y0197480D01*
X0129950Y0197260D01*
X0129760Y0197060D01*
X0129560Y0196890D01*
X0129330Y0196750D01*
X0129080Y0196640D01*
X0128820Y0196570D01*
X0128550Y0196530D01*
X0128290Y0196530D01*
X0128020Y0196570D01*
X0127760Y0196640D01*
X0127510Y0196750D01*
X0127280Y0196890D01*
X0127080Y0197060D01*
X0126890Y0197260D01*
X0126740Y0197480D01*
X0126610Y0197720D01*
X0126520Y0197970D01*
X0126470Y0198230D01*
X0126450Y0198500D01*
X0126460Y0198500D02*
X0118580Y0198500D01*
X0118190Y0198520D01*
X0117810Y0198580D01*
X0117440Y0198670D01*
X0117070Y0198800D01*
X0116720Y0198970D01*
X0116390Y0199160D01*
X0116080Y0199390D01*
X0115790Y0199650D01*
X0115530Y0199940D01*
X0115300Y0200250D01*
X0115110Y0200580D01*
X0114940Y0200930D01*
X0114810Y0201300D01*
X0114720Y0201670D01*
X0114660Y0202050D01*
X0114640Y0202440D01*
X0137660Y0326850D02*
X0137680Y0327190D01*
X0137740Y0327530D01*
X0137840Y0327860D01*
X0137970Y0328170D01*
X0138150Y0328470D01*
X0138350Y0328750D01*
X0138590Y0329000D01*
X0138850Y0329220D01*
X0139130Y0329400D01*
X0139440Y0329560D01*
X0139760Y0329680D01*
X0140100Y0329760D01*
X0140440Y0329800D01*
X0140780Y0329800D01*
X0141120Y0329760D01*
X0141460Y0329680D01*
X0141780Y0329560D01*
X0142080Y0329400D01*
X0142370Y0329220D01*
X0142630Y0329000D01*
X0142870Y0328750D01*
X0143070Y0328470D01*
X0143250Y0328170D01*
X0143380Y0327860D01*
X0143480Y0327530D01*
X0143540Y0327190D01*
X0143560Y0326850D01*
X0143540Y0326510D01*
X0143480Y0326170D01*
X0143380Y0325840D01*
X0143250Y0325530D01*
X0143070Y0325230D01*
X0142870Y0324950D01*
X0142630Y0324700D01*
X0142370Y0324480D01*
X0142090Y0324300D01*
X0141780Y0324140D01*
X0141460Y0324020D01*
X0141120Y0323940D01*
X0140780Y0323900D01*
X0140440Y0323900D01*
X0140100Y0323940D01*
X0139760Y0324020D01*
X0139440Y0324140D01*
X0139130Y0324300D01*
X0138850Y0324480D01*
X0138590Y0324700D01*
X0138350Y0324950D01*
X0138150Y0325230D01*
X0137970Y0325530D01*
X0137840Y0325840D01*
X0137740Y0326170D01*
X0137680Y0326510D01*
X0137660Y0326850D01*
X0152660Y0326850D02*
X0152680Y0327190D01*
X0152740Y0327530D01*
X0152840Y0327860D01*
X0152970Y0328170D01*
X0153150Y0328470D01*
X0153350Y0328750D01*
X0153590Y0329000D01*
X0153850Y0329220D01*
X0154130Y0329400D01*
X0154440Y0329560D01*
X0154760Y0329680D01*
X0155100Y0329760D01*
X0155440Y0329800D01*
X0155780Y0329800D01*
X0156120Y0329760D01*
X0156460Y0329680D01*
X0156780Y0329560D01*
X0157080Y0329400D01*
X0157370Y0329220D01*
X0157630Y0329000D01*
X0157870Y0328750D01*
X0158070Y0328470D01*
X0158250Y0328170D01*
X0158380Y0327860D01*
X0158480Y0327530D01*
X0158540Y0327190D01*
X0158560Y0326850D01*
X0158540Y0326510D01*
X0158480Y0326170D01*
X0158380Y0325840D01*
X0158250Y0325530D01*
X0158070Y0325230D01*
X0157870Y0324950D01*
X0157630Y0324700D01*
X0157370Y0324480D01*
X0157090Y0324300D01*
X0156780Y0324140D01*
X0156460Y0324020D01*
X0156120Y0323940D01*
X0155780Y0323900D01*
X0155440Y0323900D01*
X0155100Y0323940D01*
X0154760Y0324020D01*
X0154440Y0324140D01*
X0154130Y0324300D01*
X0153850Y0324480D01*
X0153590Y0324700D01*
X0153350Y0324950D01*
X0153150Y0325230D01*
X0152970Y0325530D01*
X0152840Y0325840D01*
X0152740Y0326170D01*
X0152680Y0326510D01*
X0152660Y0326850D01*
X0197480Y0187480D02*
G75*
%LPD*%
D340*
X0197480Y0187480D02*
X0276220Y0187480D01*
X0276220Y0226850D01*
X0254570Y0344960D01*
X0219130Y0344960D01*
X0197480Y0226850D01*
X0197480Y0187480D01*
X0203390Y0202440D02*
X0203390Y0207170D01*
X0203380Y0207170D02*
X0203400Y0207560D01*
X0203460Y0207940D01*
X0203550Y0208310D01*
X0203680Y0208680D01*
X0203850Y0209030D01*
X0204040Y0209360D01*
X0204270Y0209670D01*
X0204530Y0209960D01*
X0204820Y0210220D01*
X0205130Y0210450D01*
X0205460Y0210640D01*
X0205810Y0210810D01*
X0206180Y0210940D01*
X0206550Y0211030D01*
X0206930Y0211090D01*
X0207320Y0211110D01*
X0207320Y0211100D02*
X0215200Y0211100D01*
X0215190Y0211100D02*
X0215210Y0211370D01*
X0215260Y0211630D01*
X0215350Y0211880D01*
X0215480Y0212120D01*
X0215630Y0212340D01*
X0215820Y0212540D01*
X0216020Y0212710D01*
X0216250Y0212850D01*
X0216500Y0212960D01*
X0216760Y0213030D01*
X0217030Y0213070D01*
X0217290Y0213070D01*
X0217560Y0213030D01*
X0217820Y0212960D01*
X0218070Y0212850D01*
X0218300Y0212710D01*
X0218500Y0212540D01*
X0218690Y0212340D01*
X0218840Y0212120D01*
X0218970Y0211880D01*
X0219060Y0211630D01*
X0219110Y0211370D01*
X0219130Y0211100D01*
X0230940Y0211100D01*
X0230940Y0218980D01*
X0230960Y0219370D01*
X0231020Y0219750D01*
X0231110Y0220120D01*
X0231240Y0220490D01*
X0231410Y0220840D01*
X0231600Y0221170D01*
X0231830Y0221480D01*
X0232090Y0221770D01*
X0232380Y0222030D01*
X0232690Y0222260D01*
X0233020Y0222450D01*
X0233370Y0222620D01*
X0233740Y0222750D01*
X0234110Y0222840D01*
X0234490Y0222900D01*
X0234880Y0222920D01*
X0234880Y0222910D02*
X0238820Y0222910D01*
X0238820Y0222920D02*
X0239210Y0222900D01*
X0239590Y0222840D01*
X0239960Y0222750D01*
X0240330Y0222620D01*
X0240680Y0222450D01*
X0241010Y0222260D01*
X0241320Y0222030D01*
X0241610Y0221770D01*
X0241870Y0221480D01*
X0242100Y0221170D01*
X0242290Y0220840D01*
X0242460Y0220490D01*
X0242590Y0220120D01*
X0242680Y0219750D01*
X0242740Y0219370D01*
X0242760Y0218980D01*
X0242760Y0211100D01*
X0254570Y0211100D01*
X0254590Y0211370D01*
X0254640Y0211630D01*
X0254730Y0211880D01*
X0254860Y0212120D01*
X0255010Y0212340D01*
X0255200Y0212540D01*
X0255400Y0212710D01*
X0255630Y0212850D01*
X0255880Y0212960D01*
X0256140Y0213030D01*
X0256410Y0213070D01*
X0256670Y0213070D01*
X0256940Y0213030D01*
X0257200Y0212960D01*
X0257450Y0212850D01*
X0257680Y0212710D01*
X0257880Y0212540D01*
X0258070Y0212340D01*
X0258220Y0212120D01*
X0258350Y0211880D01*
X0258440Y0211630D01*
X0258490Y0211370D01*
X0258510Y0211100D01*
X0258500Y0211100D02*
X0266380Y0211100D01*
X0266380Y0211110D02*
X0266770Y0211090D01*
X0267150Y0211030D01*
X0267520Y0210940D01*
X0267890Y0210810D01*
X0268240Y0210640D01*
X0268570Y0210450D01*
X0268880Y0210220D01*
X0269170Y0209960D01*
X0269430Y0209670D01*
X0269660Y0209360D01*
X0269850Y0209030D01*
X0270020Y0208680D01*
X0270150Y0208310D01*
X0270240Y0207940D01*
X0270300Y0207560D01*
X0270320Y0207170D01*
X0270310Y0207170D02*
X0270310Y0202440D01*
X0270320Y0202440D02*
X0270300Y0202050D01*
X0270240Y0201670D01*
X0270150Y0201300D01*
X0270020Y0200930D01*
X0269850Y0200580D01*
X0269660Y0200250D01*
X0269430Y0199940D01*
X0269170Y0199650D01*
X0268880Y0199390D01*
X0268570Y0199160D01*
X0268240Y0198970D01*
X0267890Y0198800D01*
X0267520Y0198670D01*
X0267150Y0198580D01*
X0266770Y0198520D01*
X0266380Y0198500D01*
X0258500Y0198500D01*
X0258510Y0198500D02*
X0258490Y0198230D01*
X0258440Y0197970D01*
X0258350Y0197720D01*
X0258220Y0197480D01*
X0258070Y0197260D01*
X0257880Y0197060D01*
X0257680Y0196890D01*
X0257450Y0196750D01*
X0257200Y0196640D01*
X0256940Y0196570D01*
X0256670Y0196530D01*
X0256410Y0196530D01*
X0256140Y0196570D01*
X0255880Y0196640D01*
X0255630Y0196750D01*
X0255400Y0196890D01*
X0255200Y0197060D01*
X0255010Y0197260D01*
X0254860Y0197480D01*
X0254730Y0197720D01*
X0254640Y0197970D01*
X0254590Y0198230D01*
X0254570Y0198500D01*
X0219130Y0198500D01*
X0219110Y0198230D01*
X0219060Y0197970D01*
X0218970Y0197720D01*
X0218840Y0197480D01*
X0218690Y0197260D01*
X0218500Y0197060D01*
X0218300Y0196890D01*
X0218070Y0196750D01*
X0217820Y0196640D01*
X0217560Y0196570D01*
X0217290Y0196530D01*
X0217030Y0196530D01*
X0216760Y0196570D01*
X0216500Y0196640D01*
X0216250Y0196750D01*
X0216020Y0196890D01*
X0215820Y0197060D01*
X0215630Y0197260D01*
X0215480Y0197480D01*
X0215350Y0197720D01*
X0215260Y0197970D01*
X0215210Y0198230D01*
X0215190Y0198500D01*
X0215200Y0198500D02*
X0207320Y0198500D01*
X0206930Y0198520D01*
X0206550Y0198580D01*
X0206180Y0198670D01*
X0205810Y0198800D01*
X0205460Y0198970D01*
X0205130Y0199160D01*
X0204820Y0199390D01*
X0204530Y0199650D01*
X0204270Y0199940D01*
X0204040Y0200250D01*
X0203850Y0200580D01*
X0203680Y0200930D01*
X0203550Y0201300D01*
X0203460Y0201670D01*
X0203400Y0202050D01*
X0203380Y0202440D01*
X0226400Y0326850D02*
X0226420Y0327190D01*
X0226480Y0327530D01*
X0226580Y0327860D01*
X0226710Y0328170D01*
X0226890Y0328470D01*
X0227090Y0328750D01*
X0227330Y0329000D01*
X0227590Y0329220D01*
X0227870Y0329400D01*
X0228180Y0329560D01*
X0228500Y0329680D01*
X0228840Y0329760D01*
X0229180Y0329800D01*
X0229520Y0329800D01*
X0229860Y0329760D01*
X0230200Y0329680D01*
X0230520Y0329560D01*
X0230820Y0329400D01*
X0231110Y0329220D01*
X0231370Y0329000D01*
X0231610Y0328750D01*
X0231810Y0328470D01*
X0231990Y0328170D01*
X0232120Y0327860D01*
X0232220Y0327530D01*
X0232280Y0327190D01*
X0232300Y0326850D01*
X0232280Y0326510D01*
X0232220Y0326170D01*
X0232120Y0325840D01*
X0231990Y0325530D01*
X0231810Y0325230D01*
X0231610Y0324950D01*
X0231370Y0324700D01*
X0231110Y0324480D01*
X0230830Y0324300D01*
X0230520Y0324140D01*
X0230200Y0324020D01*
X0229860Y0323940D01*
X0229520Y0323900D01*
X0229180Y0323900D01*
X0228840Y0323940D01*
X0228500Y0324020D01*
X0228180Y0324140D01*
X0227870Y0324300D01*
X0227590Y0324480D01*
X0227330Y0324700D01*
X0227090Y0324950D01*
X0226890Y0325230D01*
X0226710Y0325530D01*
X0226580Y0325840D01*
X0226480Y0326170D01*
X0226420Y0326510D01*
X0226400Y0326850D01*
X0241400Y0326850D02*
X0241420Y0327190D01*
X0241480Y0327530D01*
X0241580Y0327860D01*
X0241710Y0328170D01*
X0241890Y0328470D01*
X0242090Y0328750D01*
X0242330Y0329000D01*
X0242590Y0329220D01*
X0242870Y0329400D01*
X0243180Y0329560D01*
X0243500Y0329680D01*
X0243840Y0329760D01*
X0244180Y0329800D01*
X0244520Y0329800D01*
X0244860Y0329760D01*
X0245200Y0329680D01*
X0245520Y0329560D01*
X0245820Y0329400D01*
X0246110Y0329220D01*
X0246370Y0329000D01*
X0246610Y0328750D01*
X0246810Y0328470D01*
X0246990Y0328170D01*
X0247120Y0327860D01*
X0247220Y0327530D01*
X0247280Y0327190D01*
X0247300Y0326850D01*
X0247280Y0326510D01*
X0247220Y0326170D01*
X0247120Y0325840D01*
X0246990Y0325530D01*
X0246810Y0325230D01*
X0246610Y0324950D01*
X0246370Y0324700D01*
X0246110Y0324480D01*
X0245830Y0324300D01*
X0245520Y0324140D01*
X0245200Y0324020D01*
X0244860Y0323940D01*
X0244520Y0323900D01*
X0244180Y0323900D01*
X0243840Y0323940D01*
X0243500Y0324020D01*
X0243180Y0324140D01*
X0242870Y0324300D01*
X0242590Y0324480D01*
X0242330Y0324700D01*
X0242090Y0324950D01*
X0241890Y0325230D01*
X0241710Y0325530D01*
X0241580Y0325840D01*
X0241480Y0326170D01*
X0241420Y0326510D01*
X0241400Y0326850D01*
X0286220Y0187480D02*
G75*
%LPD*%
D340*
X0286220Y0187480D02*
X0364960Y0187480D01*
X0364960Y0226850D01*
X0343310Y0344960D01*
X0307870Y0344960D01*
X0286220Y0226850D01*
X0286220Y0187480D01*
X0292130Y0202440D02*
X0292130Y0207170D01*
X0292120Y0207170D02*
X0292140Y0207560D01*
X0292200Y0207940D01*
X0292290Y0208310D01*
X0292420Y0208680D01*
X0292590Y0209030D01*
X0292780Y0209360D01*
X0293010Y0209670D01*
X0293270Y0209960D01*
X0293560Y0210220D01*
X0293870Y0210450D01*
X0294200Y0210640D01*
X0294550Y0210810D01*
X0294920Y0210940D01*
X0295290Y0211030D01*
X0295670Y0211090D01*
X0296060Y0211110D01*
X0296060Y0211100D02*
X0303940Y0211100D01*
X0303930Y0211100D02*
X0303950Y0211370D01*
X0304000Y0211630D01*
X0304090Y0211880D01*
X0304220Y0212120D01*
X0304370Y0212340D01*
X0304560Y0212540D01*
X0304760Y0212710D01*
X0304990Y0212850D01*
X0305240Y0212960D01*
X0305500Y0213030D01*
X0305770Y0213070D01*
X0306030Y0213070D01*
X0306300Y0213030D01*
X0306560Y0212960D01*
X0306810Y0212850D01*
X0307040Y0212710D01*
X0307240Y0212540D01*
X0307430Y0212340D01*
X0307580Y0212120D01*
X0307710Y0211880D01*
X0307800Y0211630D01*
X0307850Y0211370D01*
X0307870Y0211100D01*
X0319680Y0211100D01*
X0319680Y0218980D01*
X0319700Y0219370D01*
X0319760Y0219750D01*
X0319850Y0220120D01*
X0319980Y0220490D01*
X0320150Y0220840D01*
X0320340Y0221170D01*
X0320570Y0221480D01*
X0320830Y0221770D01*
X0321120Y0222030D01*
X0321430Y0222260D01*
X0321760Y0222450D01*
X0322110Y0222620D01*
X0322480Y0222750D01*
X0322850Y0222840D01*
X0323230Y0222900D01*
X0323620Y0222920D01*
X0323620Y0222910D02*
X0327560Y0222910D01*
X0327560Y0222920D02*
X0327950Y0222900D01*
X0328330Y0222840D01*
X0328700Y0222750D01*
X0329070Y0222620D01*
X0329420Y0222450D01*
X0329750Y0222260D01*
X0330060Y0222030D01*
X0330350Y0221770D01*
X0330610Y0221480D01*
X0330840Y0221170D01*
X0331030Y0220840D01*
X0331200Y0220490D01*
X0331330Y0220120D01*
X0331420Y0219750D01*
X0331480Y0219370D01*
X0331500Y0218980D01*
X0331500Y0211100D01*
X0343310Y0211100D01*
X0343330Y0211370D01*
X0343380Y0211630D01*
X0343470Y0211880D01*
X0343600Y0212120D01*
X0343750Y0212340D01*
X0343940Y0212540D01*
X0344140Y0212710D01*
X0344370Y0212850D01*
X0344620Y0212960D01*
X0344880Y0213030D01*
X0345150Y0213070D01*
X0345410Y0213070D01*
X0345680Y0213030D01*
X0345940Y0212960D01*
X0346190Y0212850D01*
X0346420Y0212710D01*
X0346620Y0212540D01*
X0346810Y0212340D01*
X0346960Y0212120D01*
X0347090Y0211880D01*
X0347180Y0211630D01*
X0347230Y0211370D01*
X0347250Y0211100D01*
X0347240Y0211100D02*
X0355120Y0211100D01*
X0355120Y0211110D02*
X0355510Y0211090D01*
X0355890Y0211030D01*
X0356260Y0210940D01*
X0356630Y0210810D01*
X0356980Y0210640D01*
X0357310Y0210450D01*
X0357620Y0210220D01*
X0357910Y0209960D01*
X0358170Y0209670D01*
X0358400Y0209360D01*
X0358590Y0209030D01*
X0358760Y0208680D01*
X0358890Y0208310D01*
X0358980Y0207940D01*
X0359040Y0207560D01*
X0359060Y0207170D01*
X0359050Y0207170D02*
X0359050Y0202440D01*
X0359060Y0202440D02*
X0359040Y0202050D01*
X0358980Y0201670D01*
X0358890Y0201300D01*
X0358760Y0200930D01*
X0358590Y0200580D01*
X0358400Y0200250D01*
X0358170Y0199940D01*
X0357910Y0199650D01*
X0357620Y0199390D01*
X0357310Y0199160D01*
X0356980Y0198970D01*
X0356630Y0198800D01*
X0356260Y0198670D01*
X0355890Y0198580D01*
X0355510Y0198520D01*
X0355120Y0198500D01*
X0347240Y0198500D01*
X0347250Y0198500D02*
X0347230Y0198230D01*
X0347180Y0197970D01*
X0347090Y0197720D01*
X0346960Y0197480D01*
X0346810Y0197260D01*
X0346620Y0197060D01*
X0346420Y0196890D01*
X0346190Y0196750D01*
X0345940Y0196640D01*
X0345680Y0196570D01*
X0345410Y0196530D01*
X0345150Y0196530D01*
X0344880Y0196570D01*
X0344620Y0196640D01*
X0344370Y0196750D01*
X0344140Y0196890D01*
X0343940Y0197060D01*
X0343750Y0197260D01*
X0343600Y0197480D01*
X0343470Y0197720D01*
X0343380Y0197970D01*
X0343330Y0198230D01*
X0343310Y0198500D01*
X0307870Y0198500D01*
X0307850Y0198230D01*
X0307800Y0197970D01*
X0307710Y0197720D01*
X0307580Y0197480D01*
X0307430Y0197260D01*
X0307240Y0197060D01*
X0307040Y0196890D01*
X0306810Y0196750D01*
X0306560Y0196640D01*
X0306300Y0196570D01*
X0306030Y0196530D01*
X0305770Y0196530D01*
X0305500Y0196570D01*
X0305240Y0196640D01*
X0304990Y0196750D01*
X0304760Y0196890D01*
X0304560Y0197060D01*
X0304370Y0197260D01*
X0304220Y0197480D01*
X0304090Y0197720D01*
X0304000Y0197970D01*
X0303950Y0198230D01*
X0303930Y0198500D01*
X0303940Y0198500D02*
X0296060Y0198500D01*
X0295670Y0198520D01*
X0295290Y0198580D01*
X0294920Y0198670D01*
X0294550Y0198800D01*
X0294200Y0198970D01*
X0293870Y0199160D01*
X0293560Y0199390D01*
X0293270Y0199650D01*
X0293010Y0199940D01*
X0292780Y0200250D01*
X0292590Y0200580D01*
X0292420Y0200930D01*
X0292290Y0201300D01*
X0292200Y0201670D01*
X0292140Y0202050D01*
X0292120Y0202440D01*
X0315140Y0326850D02*
X0315160Y0327190D01*
X0315220Y0327530D01*
X0315320Y0327860D01*
X0315450Y0328170D01*
X0315630Y0328470D01*
X0315830Y0328750D01*
X0316070Y0329000D01*
X0316330Y0329220D01*
X0316610Y0329400D01*
X0316920Y0329560D01*
X0317240Y0329680D01*
X0317580Y0329760D01*
X0317920Y0329800D01*
X0318260Y0329800D01*
X0318600Y0329760D01*
X0318940Y0329680D01*
X0319260Y0329560D01*
X0319560Y0329400D01*
X0319850Y0329220D01*
X0320110Y0329000D01*
X0320350Y0328750D01*
X0320550Y0328470D01*
X0320730Y0328170D01*
X0320860Y0327860D01*
X0320960Y0327530D01*
X0321020Y0327190D01*
X0321040Y0326850D01*
X0321020Y0326510D01*
X0320960Y0326170D01*
X0320860Y0325840D01*
X0320730Y0325530D01*
X0320550Y0325230D01*
X0320350Y0324950D01*
X0320110Y0324700D01*
X0319850Y0324480D01*
X0319570Y0324300D01*
X0319260Y0324140D01*
X0318940Y0324020D01*
X0318600Y0323940D01*
X0318260Y0323900D01*
X0317920Y0323900D01*
X0317580Y0323940D01*
X0317240Y0324020D01*
X0316920Y0324140D01*
X0316610Y0324300D01*
X0316330Y0324480D01*
X0316070Y0324700D01*
X0315830Y0324950D01*
X0315630Y0325230D01*
X0315450Y0325530D01*
X0315320Y0325840D01*
X0315220Y0326170D01*
X0315160Y0326510D01*
X0315140Y0326850D01*
X0330140Y0326850D02*
X0330160Y0327190D01*
X0330220Y0327530D01*
X0330320Y0327860D01*
X0330450Y0328170D01*
X0330630Y0328470D01*
X0330830Y0328750D01*
X0331070Y0329000D01*
X0331330Y0329220D01*
X0331610Y0329400D01*
X0331920Y0329560D01*
X0332240Y0329680D01*
X0332580Y0329760D01*
X0332920Y0329800D01*
X0333260Y0329800D01*
X0333600Y0329760D01*
X0333940Y0329680D01*
X0334260Y0329560D01*
X0334560Y0329400D01*
X0334850Y0329220D01*
X0335110Y0329000D01*
X0335350Y0328750D01*
X0335550Y0328470D01*
X0335730Y0328170D01*
X0335860Y0327860D01*
X0335960Y0327530D01*
X0336020Y0327190D01*
X0336040Y0326850D01*
X0336020Y0326510D01*
X0335960Y0326170D01*
X0335860Y0325840D01*
X0335730Y0325530D01*
X0335550Y0325230D01*
X0335350Y0324950D01*
X0335110Y0324700D01*
X0334850Y0324480D01*
X0334570Y0324300D01*
X0334260Y0324140D01*
X0333940Y0324020D01*
X0333600Y0323940D01*
X0333260Y0323900D01*
X0332920Y0323900D01*
X0332580Y0323940D01*
X0332240Y0324020D01*
X0331920Y0324140D01*
X0331610Y0324300D01*
X0331330Y0324480D01*
X0331070Y0324700D01*
X0330830Y0324950D01*
X0330630Y0325230D01*
X0330450Y0325530D01*
X0330320Y0325840D01*
X0330220Y0326170D01*
X0330160Y0326510D01*
X0330140Y0326850D01*
X0020000Y0354960D02*
G75*
%LPD*%
D340*
X0020000Y0354960D02*
X0098740Y0354960D01*
X0098740Y0394330D01*
X0077090Y0512440D01*
X0041650Y0512440D01*
X0020000Y0394330D01*
X0020000Y0354960D01*
X0025910Y0369920D02*
X0025910Y0374650D01*
X0025900Y0374650D02*
X0025920Y0375040D01*
X0025980Y0375420D01*
X0026070Y0375790D01*
X0026200Y0376160D01*
X0026370Y0376510D01*
X0026560Y0376840D01*
X0026790Y0377150D01*
X0027050Y0377440D01*
X0027340Y0377700D01*
X0027650Y0377930D01*
X0027980Y0378120D01*
X0028330Y0378290D01*
X0028700Y0378420D01*
X0029070Y0378510D01*
X0029450Y0378570D01*
X0029840Y0378590D01*
X0029840Y0378580D02*
X0037720Y0378580D01*
X0037710Y0378580D02*
X0037730Y0378850D01*
X0037780Y0379110D01*
X0037870Y0379360D01*
X0038000Y0379600D01*
X0038150Y0379820D01*
X0038340Y0380020D01*
X0038540Y0380190D01*
X0038770Y0380330D01*
X0039020Y0380440D01*
X0039280Y0380510D01*
X0039550Y0380550D01*
X0039810Y0380550D01*
X0040080Y0380510D01*
X0040340Y0380440D01*
X0040590Y0380330D01*
X0040820Y0380190D01*
X0041020Y0380020D01*
X0041210Y0379820D01*
X0041360Y0379600D01*
X0041490Y0379360D01*
X0041580Y0379110D01*
X0041630Y0378850D01*
X0041650Y0378580D01*
X0053460Y0378580D01*
X0053460Y0386460D01*
X0053480Y0386850D01*
X0053540Y0387230D01*
X0053630Y0387600D01*
X0053760Y0387970D01*
X0053930Y0388320D01*
X0054120Y0388650D01*
X0054350Y0388960D01*
X0054610Y0389250D01*
X0054900Y0389510D01*
X0055210Y0389740D01*
X0055540Y0389930D01*
X0055890Y0390100D01*
X0056260Y0390230D01*
X0056630Y0390320D01*
X0057010Y0390380D01*
X0057400Y0390400D01*
X0057400Y0390390D02*
X0061340Y0390390D01*
X0061340Y0390400D02*
X0061730Y0390380D01*
X0062110Y0390320D01*
X0062480Y0390230D01*
X0062850Y0390100D01*
X0063200Y0389930D01*
X0063530Y0389740D01*
X0063840Y0389510D01*
X0064130Y0389250D01*
X0064390Y0388960D01*
X0064620Y0388650D01*
X0064810Y0388320D01*
X0064980Y0387970D01*
X0065110Y0387600D01*
X0065200Y0387230D01*
X0065260Y0386850D01*
X0065280Y0386460D01*
X0065280Y0378580D01*
X0077090Y0378580D01*
X0077110Y0378850D01*
X0077160Y0379110D01*
X0077250Y0379360D01*
X0077380Y0379600D01*
X0077530Y0379820D01*
X0077720Y0380020D01*
X0077920Y0380190D01*
X0078150Y0380330D01*
X0078400Y0380440D01*
X0078660Y0380510D01*
X0078930Y0380550D01*
X0079190Y0380550D01*
X0079460Y0380510D01*
X0079720Y0380440D01*
X0079970Y0380330D01*
X0080200Y0380190D01*
X0080400Y0380020D01*
X0080590Y0379820D01*
X0080740Y0379600D01*
X0080870Y0379360D01*
X0080960Y0379110D01*
X0081010Y0378850D01*
X0081030Y0378580D01*
X0081020Y0378580D02*
X0088900Y0378580D01*
X0088900Y0378590D02*
X0089290Y0378570D01*
X0089670Y0378510D01*
X0090040Y0378420D01*
X0090410Y0378290D01*
X0090760Y0378120D01*
X0091090Y0377930D01*
X0091400Y0377700D01*
X0091690Y0377440D01*
X0091950Y0377150D01*
X0092180Y0376840D01*
X0092370Y0376510D01*
X0092540Y0376160D01*
X0092670Y0375790D01*
X0092760Y0375420D01*
X0092820Y0375040D01*
X0092840Y0374650D01*
X0092830Y0374650D02*
X0092830Y0369920D01*
X0092840Y0369920D02*
X0092820Y0369530D01*
X0092760Y0369150D01*
X0092670Y0368780D01*
X0092540Y0368410D01*
X0092370Y0368060D01*
X0092180Y0367730D01*
X0091950Y0367420D01*
X0091690Y0367130D01*
X0091400Y0366870D01*
X0091090Y0366640D01*
X0090760Y0366450D01*
X0090410Y0366280D01*
X0090040Y0366150D01*
X0089670Y0366060D01*
X0089290Y0366000D01*
X0088900Y0365980D01*
X0081020Y0365980D01*
X0081030Y0365980D02*
X0081010Y0365710D01*
X0080960Y0365450D01*
X0080870Y0365200D01*
X0080740Y0364960D01*
X0080590Y0364740D01*
X0080400Y0364540D01*
X0080200Y0364370D01*
X0079970Y0364230D01*
X0079720Y0364120D01*
X0079460Y0364050D01*
X0079190Y0364010D01*
X0078930Y0364010D01*
X0078660Y0364050D01*
X0078400Y0364120D01*
X0078150Y0364230D01*
X0077920Y0364370D01*
X0077720Y0364540D01*
X0077530Y0364740D01*
X0077380Y0364960D01*
X0077250Y0365200D01*
X0077160Y0365450D01*
X0077110Y0365710D01*
X0077090Y0365980D01*
X0041650Y0365980D01*
X0041630Y0365710D01*
X0041580Y0365450D01*
X0041490Y0365200D01*
X0041360Y0364960D01*
X0041210Y0364740D01*
X0041020Y0364540D01*
X0040820Y0364370D01*
X0040590Y0364230D01*
X0040340Y0364120D01*
X0040080Y0364050D01*
X0039810Y0364010D01*
X0039550Y0364010D01*
X0039280Y0364050D01*
X0039020Y0364120D01*
X0038770Y0364230D01*
X0038540Y0364370D01*
X0038340Y0364540D01*
X0038150Y0364740D01*
X0038000Y0364960D01*
X0037870Y0365200D01*
X0037780Y0365450D01*
X0037730Y0365710D01*
X0037710Y0365980D01*
X0037720Y0365980D02*
X0029840Y0365980D01*
X0029450Y0366000D01*
X0029070Y0366060D01*
X0028700Y0366150D01*
X0028330Y0366280D01*
X0027980Y0366450D01*
X0027650Y0366640D01*
X0027340Y0366870D01*
X0027050Y0367130D01*
X0026790Y0367420D01*
X0026560Y0367730D01*
X0026370Y0368060D01*
X0026200Y0368410D01*
X0026070Y0368780D01*
X0025980Y0369150D01*
X0025920Y0369530D01*
X0025900Y0369920D01*
X0048920Y0494330D02*
X0048940Y0494670D01*
X0049000Y0495010D01*
X0049100Y0495340D01*
X0049230Y0495650D01*
X0049410Y0495950D01*
X0049610Y0496230D01*
X0049850Y0496480D01*
X0050110Y0496700D01*
X0050390Y0496880D01*
X0050700Y0497040D01*
X0051020Y0497160D01*
X0051360Y0497240D01*
X0051700Y0497280D01*
X0052040Y0497280D01*
X0052380Y0497240D01*
X0052720Y0497160D01*
X0053040Y0497040D01*
X0053340Y0496880D01*
X0053630Y0496700D01*
X0053890Y0496480D01*
X0054130Y0496230D01*
X0054330Y0495950D01*
X0054510Y0495650D01*
X0054640Y0495340D01*
X0054740Y0495010D01*
X0054800Y0494670D01*
X0054820Y0494330D01*
X0054800Y0493990D01*
X0054740Y0493650D01*
X0054640Y0493320D01*
X0054510Y0493010D01*
X0054330Y0492710D01*
X0054130Y0492430D01*
X0053890Y0492180D01*
X0053630Y0491960D01*
X0053350Y0491780D01*
X0053040Y0491620D01*
X0052720Y0491500D01*
X0052380Y0491420D01*
X0052040Y0491380D01*
X0051700Y0491380D01*
X0051360Y0491420D01*
X0051020Y0491500D01*
X0050700Y0491620D01*
X0050390Y0491780D01*
X0050110Y0491960D01*
X0049850Y0492180D01*
X0049610Y0492430D01*
X0049410Y0492710D01*
X0049230Y0493010D01*
X0049100Y0493320D01*
X0049000Y0493650D01*
X0048940Y0493990D01*
X0048920Y0494330D01*
X0063920Y0494330D02*
X0063940Y0494670D01*
X0064000Y0495010D01*
X0064100Y0495340D01*
X0064230Y0495650D01*
X0064410Y0495950D01*
X0064610Y0496230D01*
X0064850Y0496480D01*
X0065110Y0496700D01*
X0065390Y0496880D01*
X0065700Y0497040D01*
X0066020Y0497160D01*
X0066360Y0497240D01*
X0066700Y0497280D01*
X0067040Y0497280D01*
X0067380Y0497240D01*
X0067720Y0497160D01*
X0068040Y0497040D01*
X0068340Y0496880D01*
X0068630Y0496700D01*
X0068890Y0496480D01*
X0069130Y0496230D01*
X0069330Y0495950D01*
X0069510Y0495650D01*
X0069640Y0495340D01*
X0069740Y0495010D01*
X0069800Y0494670D01*
X0069820Y0494330D01*
X0069800Y0493990D01*
X0069740Y0493650D01*
X0069640Y0493320D01*
X0069510Y0493010D01*
X0069330Y0492710D01*
X0069130Y0492430D01*
X0068890Y0492180D01*
X0068630Y0491960D01*
X0068350Y0491780D01*
X0068040Y0491620D01*
X0067720Y0491500D01*
X0067380Y0491420D01*
X0067040Y0491380D01*
X0066700Y0491380D01*
X0066360Y0491420D01*
X0066020Y0491500D01*
X0065700Y0491620D01*
X0065390Y0491780D01*
X0065110Y0491960D01*
X0064850Y0492180D01*
X0064610Y0492430D01*
X0064410Y0492710D01*
X0064230Y0493010D01*
X0064100Y0493320D01*
X0064000Y0493650D01*
X0063940Y0493990D01*
X0063920Y0494330D01*
X0108740Y0354960D02*
G75*
%LPD*%
D340*
X0108740Y0354960D02*
X0187480Y0354960D01*
X0187480Y0394330D01*
X0165830Y0512440D01*
X0130390Y0512440D01*
X0108740Y0394330D01*
X0108740Y0354960D01*
X0114650Y0369920D02*
X0114650Y0374650D01*
X0114640Y0374650D02*
X0114660Y0375040D01*
X0114720Y0375420D01*
X0114810Y0375790D01*
X0114940Y0376160D01*
X0115110Y0376510D01*
X0115300Y0376840D01*
X0115530Y0377150D01*
X0115790Y0377440D01*
X0116080Y0377700D01*
X0116390Y0377930D01*
X0116720Y0378120D01*
X0117070Y0378290D01*
X0117440Y0378420D01*
X0117810Y0378510D01*
X0118190Y0378570D01*
X0118580Y0378590D01*
X0118580Y0378580D02*
X0126460Y0378580D01*
X0126450Y0378580D02*
X0126470Y0378850D01*
X0126520Y0379110D01*
X0126610Y0379360D01*
X0126740Y0379600D01*
X0126890Y0379820D01*
X0127080Y0380020D01*
X0127280Y0380190D01*
X0127510Y0380330D01*
X0127760Y0380440D01*
X0128020Y0380510D01*
X0128290Y0380550D01*
X0128550Y0380550D01*
X0128820Y0380510D01*
X0129080Y0380440D01*
X0129330Y0380330D01*
X0129560Y0380190D01*
X0129760Y0380020D01*
X0129950Y0379820D01*
X0130100Y0379600D01*
X0130230Y0379360D01*
X0130320Y0379110D01*
X0130370Y0378850D01*
X0130390Y0378580D01*
X0142200Y0378580D01*
X0142200Y0386460D01*
X0142220Y0386850D01*
X0142280Y0387230D01*
X0142370Y0387600D01*
X0142500Y0387970D01*
X0142670Y0388320D01*
X0142860Y0388650D01*
X0143090Y0388960D01*
X0143350Y0389250D01*
X0143640Y0389510D01*
X0143950Y0389740D01*
X0144280Y0389930D01*
X0144630Y0390100D01*
X0145000Y0390230D01*
X0145370Y0390320D01*
X0145750Y0390380D01*
X0146140Y0390400D01*
X0146140Y0390390D02*
X0150080Y0390390D01*
X0150080Y0390400D02*
X0150470Y0390380D01*
X0150850Y0390320D01*
X0151220Y0390230D01*
X0151590Y0390100D01*
X0151940Y0389930D01*
X0152270Y0389740D01*
X0152580Y0389510D01*
X0152870Y0389250D01*
X0153130Y0388960D01*
X0153360Y0388650D01*
X0153550Y0388320D01*
X0153720Y0387970D01*
X0153850Y0387600D01*
X0153940Y0387230D01*
X0154000Y0386850D01*
X0154020Y0386460D01*
X0154020Y0378580D01*
X0165830Y0378580D01*
X0165850Y0378850D01*
X0165900Y0379110D01*
X0165990Y0379360D01*
X0166120Y0379600D01*
X0166270Y0379820D01*
X0166460Y0380020D01*
X0166660Y0380190D01*
X0166890Y0380330D01*
X0167140Y0380440D01*
X0167400Y0380510D01*
X0167670Y0380550D01*
X0167930Y0380550D01*
X0168200Y0380510D01*
X0168460Y0380440D01*
X0168710Y0380330D01*
X0168940Y0380190D01*
X0169140Y0380020D01*
X0169330Y0379820D01*
X0169480Y0379600D01*
X0169610Y0379360D01*
X0169700Y0379110D01*
X0169750Y0378850D01*
X0169770Y0378580D01*
X0169760Y0378580D02*
X0177640Y0378580D01*
X0177640Y0378590D02*
X0178030Y0378570D01*
X0178410Y0378510D01*
X0178780Y0378420D01*
X0179150Y0378290D01*
X0179500Y0378120D01*
X0179830Y0377930D01*
X0180140Y0377700D01*
X0180430Y0377440D01*
X0180690Y0377150D01*
X0180920Y0376840D01*
X0181110Y0376510D01*
X0181280Y0376160D01*
X0181410Y0375790D01*
X0181500Y0375420D01*
X0181560Y0375040D01*
X0181580Y0374650D01*
X0181570Y0374650D02*
X0181570Y0369920D01*
X0181580Y0369920D02*
X0181560Y0369530D01*
X0181500Y0369150D01*
X0181410Y0368780D01*
X0181280Y0368410D01*
X0181110Y0368060D01*
X0180920Y0367730D01*
X0180690Y0367420D01*
X0180430Y0367130D01*
X0180140Y0366870D01*
X0179830Y0366640D01*
X0179500Y0366450D01*
X0179150Y0366280D01*
X0178780Y0366150D01*
X0178410Y0366060D01*
X0178030Y0366000D01*
X0177640Y0365980D01*
X0169760Y0365980D01*
X0169770Y0365980D02*
X0169750Y0365710D01*
X0169700Y0365450D01*
X0169610Y0365200D01*
X0169480Y0364960D01*
X0169330Y0364740D01*
X0169140Y0364540D01*
X0168940Y0364370D01*
X0168710Y0364230D01*
X0168460Y0364120D01*
X0168200Y0364050D01*
X0167930Y0364010D01*
X0167670Y0364010D01*
X0167400Y0364050D01*
X0167140Y0364120D01*
X0166890Y0364230D01*
X0166660Y0364370D01*
X0166460Y0364540D01*
X0166270Y0364740D01*
X0166120Y0364960D01*
X0165990Y0365200D01*
X0165900Y0365450D01*
X0165850Y0365710D01*
X0165830Y0365980D01*
X0130390Y0365980D01*
X0130370Y0365710D01*
X0130320Y0365450D01*
X0130230Y0365200D01*
X0130100Y0364960D01*
X0129950Y0364740D01*
X0129760Y0364540D01*
X0129560Y0364370D01*
X0129330Y0364230D01*
X0129080Y0364120D01*
X0128820Y0364050D01*
X0128550Y0364010D01*
X0128290Y0364010D01*
X0128020Y0364050D01*
X0127760Y0364120D01*
X0127510Y0364230D01*
X0127280Y0364370D01*
X0127080Y0364540D01*
X0126890Y0364740D01*
X0126740Y0364960D01*
X0126610Y0365200D01*
X0126520Y0365450D01*
X0126470Y0365710D01*
X0126450Y0365980D01*
X0126460Y0365980D02*
X0118580Y0365980D01*
X0118190Y0366000D01*
X0117810Y0366060D01*
X0117440Y0366150D01*
X0117070Y0366280D01*
X0116720Y0366450D01*
X0116390Y0366640D01*
X0116080Y0366870D01*
X0115790Y0367130D01*
X0115530Y0367420D01*
X0115300Y0367730D01*
X0115110Y0368060D01*
X0114940Y0368410D01*
X0114810Y0368780D01*
X0114720Y0369150D01*
X0114660Y0369530D01*
X0114640Y0369920D01*
X0137660Y0494330D02*
X0137680Y0494670D01*
X0137740Y0495010D01*
X0137840Y0495340D01*
X0137970Y0495650D01*
X0138150Y0495950D01*
X0138350Y0496230D01*
X0138590Y0496480D01*
X0138850Y0496700D01*
X0139130Y0496880D01*
X0139440Y0497040D01*
X0139760Y0497160D01*
X0140100Y0497240D01*
X0140440Y0497280D01*
X0140780Y0497280D01*
X0141120Y0497240D01*
X0141460Y0497160D01*
X0141780Y0497040D01*
X0142080Y0496880D01*
X0142370Y0496700D01*
X0142630Y0496480D01*
X0142870Y0496230D01*
X0143070Y0495950D01*
X0143250Y0495650D01*
X0143380Y0495340D01*
X0143480Y0495010D01*
X0143540Y0494670D01*
X0143560Y0494330D01*
X0143540Y0493990D01*
X0143480Y0493650D01*
X0143380Y0493320D01*
X0143250Y0493010D01*
X0143070Y0492710D01*
X0142870Y0492430D01*
X0142630Y0492180D01*
X0142370Y0491960D01*
X0142090Y0491780D01*
X0141780Y0491620D01*
X0141460Y0491500D01*
X0141120Y0491420D01*
X0140780Y0491380D01*
X0140440Y0491380D01*
X0140100Y0491420D01*
X0139760Y0491500D01*
X0139440Y0491620D01*
X0139130Y0491780D01*
X0138850Y0491960D01*
X0138590Y0492180D01*
X0138350Y0492430D01*
X0138150Y0492710D01*
X0137970Y0493010D01*
X0137840Y0493320D01*
X0137740Y0493650D01*
X0137680Y0493990D01*
X0137660Y0494330D01*
X0152660Y0494330D02*
X0152680Y0494670D01*
X0152740Y0495010D01*
X0152840Y0495340D01*
X0152970Y0495650D01*
X0153150Y0495950D01*
X0153350Y0496230D01*
X0153590Y0496480D01*
X0153850Y0496700D01*
X0154130Y0496880D01*
X0154440Y0497040D01*
X0154760Y0497160D01*
X0155100Y0497240D01*
X0155440Y0497280D01*
X0155780Y0497280D01*
X0156120Y0497240D01*
X0156460Y0497160D01*
X0156780Y0497040D01*
X0157080Y0496880D01*
X0157370Y0496700D01*
X0157630Y0496480D01*
X0157870Y0496230D01*
X0158070Y0495950D01*
X0158250Y0495650D01*
X0158380Y0495340D01*
X0158480Y0495010D01*
X0158540Y0494670D01*
X0158560Y0494330D01*
X0158540Y0493990D01*
X0158480Y0493650D01*
X0158380Y0493320D01*
X0158250Y0493010D01*
X0158070Y0492710D01*
X0157870Y0492430D01*
X0157630Y0492180D01*
X0157370Y0491960D01*
X0157090Y0491780D01*
X0156780Y0491620D01*
X0156460Y0491500D01*
X0156120Y0491420D01*
X0155780Y0491380D01*
X0155440Y0491380D01*
X0155100Y0491420D01*
X0154760Y0491500D01*
X0154440Y0491620D01*
X0154130Y0491780D01*
X0153850Y0491960D01*
X0153590Y0492180D01*
X0153350Y0492430D01*
X0153150Y0492710D01*
X0152970Y0493010D01*
X0152840Y0493320D01*
X0152740Y0493650D01*
X0152680Y0493990D01*
X0152660Y0494330D01*
X0197480Y0354960D02*
G75*
%LPD*%
D340*
X0197480Y0354960D02*
X0276220Y0354960D01*
X0276220Y0394330D01*
X0254570Y0512440D01*
X0219130Y0512440D01*
X0197480Y0394330D01*
X0197480Y0354960D01*
X0203390Y0369920D02*
X0203390Y0374650D01*
X0203380Y0374650D02*
X0203400Y0375040D01*
X0203460Y0375420D01*
X0203550Y0375790D01*
X0203680Y0376160D01*
X0203850Y0376510D01*
X0204040Y0376840D01*
X0204270Y0377150D01*
X0204530Y0377440D01*
X0204820Y0377700D01*
X0205130Y0377930D01*
X0205460Y0378120D01*
X0205810Y0378290D01*
X0206180Y0378420D01*
X0206550Y0378510D01*
X0206930Y0378570D01*
X0207320Y0378590D01*
X0207320Y0378580D02*
X0215200Y0378580D01*
X0215190Y0378580D02*
X0215210Y0378850D01*
X0215260Y0379110D01*
X0215350Y0379360D01*
X0215480Y0379600D01*
X0215630Y0379820D01*
X0215820Y0380020D01*
X0216020Y0380190D01*
X0216250Y0380330D01*
X0216500Y0380440D01*
X0216760Y0380510D01*
X0217030Y0380550D01*
X0217290Y0380550D01*
X0217560Y0380510D01*
X0217820Y0380440D01*
X0218070Y0380330D01*
X0218300Y0380190D01*
X0218500Y0380020D01*
X0218690Y0379820D01*
X0218840Y0379600D01*
X0218970Y0379360D01*
X0219060Y0379110D01*
X0219110Y0378850D01*
X0219130Y0378580D01*
X0230940Y0378580D01*
X0230940Y0386460D01*
X0230960Y0386850D01*
X0231020Y0387230D01*
X0231110Y0387600D01*
X0231240Y0387970D01*
X0231410Y0388320D01*
X0231600Y0388650D01*
X0231830Y0388960D01*
X0232090Y0389250D01*
X0232380Y0389510D01*
X0232690Y0389740D01*
X0233020Y0389930D01*
X0233370Y0390100D01*
X0233740Y0390230D01*
X0234110Y0390320D01*
X0234490Y0390380D01*
X0234880Y0390400D01*
X0234880Y0390390D02*
X0238820Y0390390D01*
X0238820Y0390400D02*
X0239210Y0390380D01*
X0239590Y0390320D01*
X0239960Y0390230D01*
X0240330Y0390100D01*
X0240680Y0389930D01*
X0241010Y0389740D01*
X0241320Y0389510D01*
X0241610Y0389250D01*
X0241870Y0388960D01*
X0242100Y0388650D01*
X0242290Y0388320D01*
X0242460Y0387970D01*
X0242590Y0387600D01*
X0242680Y0387230D01*
X0242740Y0386850D01*
X0242760Y0386460D01*
X0242760Y0378580D01*
X0254570Y0378580D01*
X0254590Y0378850D01*
X0254640Y0379110D01*
X0254730Y0379360D01*
X0254860Y0379600D01*
X0255010Y0379820D01*
X0255200Y0380020D01*
X0255400Y0380190D01*
X0255630Y0380330D01*
X0255880Y0380440D01*
X0256140Y0380510D01*
X0256410Y0380550D01*
X0256670Y0380550D01*
X0256940Y0380510D01*
X0257200Y0380440D01*
X0257450Y0380330D01*
X0257680Y0380190D01*
X0257880Y0380020D01*
X0258070Y0379820D01*
X0258220Y0379600D01*
X0258350Y0379360D01*
X0258440Y0379110D01*
X0258490Y0378850D01*
X0258510Y0378580D01*
X0258500Y0378580D02*
X0266380Y0378580D01*
X0266380Y0378590D02*
X0266770Y0378570D01*
X0267150Y0378510D01*
X0267520Y0378420D01*
X0267890Y0378290D01*
X0268240Y0378120D01*
X0268570Y0377930D01*
X0268880Y0377700D01*
X0269170Y0377440D01*
X0269430Y0377150D01*
X0269660Y0376840D01*
X0269850Y0376510D01*
X0270020Y0376160D01*
X0270150Y0375790D01*
X0270240Y0375420D01*
X0270300Y0375040D01*
X0270320Y0374650D01*
X0270310Y0374650D02*
X0270310Y0369920D01*
X0270320Y0369920D02*
X0270300Y0369530D01*
X0270240Y0369150D01*
X0270150Y0368780D01*
X0270020Y0368410D01*
X0269850Y0368060D01*
X0269660Y0367730D01*
X0269430Y0367420D01*
X0269170Y0367130D01*
X0268880Y0366870D01*
X0268570Y0366640D01*
X0268240Y0366450D01*
X0267890Y0366280D01*
X0267520Y0366150D01*
X0267150Y0366060D01*
X0266770Y0366000D01*
X0266380Y0365980D01*
X0258500Y0365980D01*
X0258510Y0365980D02*
X0258490Y0365710D01*
X0258440Y0365450D01*
X0258350Y0365200D01*
X0258220Y0364960D01*
X0258070Y0364740D01*
X0257880Y0364540D01*
X0257680Y0364370D01*
X0257450Y0364230D01*
X0257200Y0364120D01*
X0256940Y0364050D01*
X0256670Y0364010D01*
X0256410Y0364010D01*
X0256140Y0364050D01*
X0255880Y0364120D01*
X0255630Y0364230D01*
X0255400Y0364370D01*
X0255200Y0364540D01*
X0255010Y0364740D01*
X0254860Y0364960D01*
X0254730Y0365200D01*
X0254640Y0365450D01*
X0254590Y0365710D01*
X0254570Y0365980D01*
X0219130Y0365980D01*
X0219110Y0365710D01*
X0219060Y0365450D01*
X0218970Y0365200D01*
X0218840Y0364960D01*
X0218690Y0364740D01*
X0218500Y0364540D01*
X0218300Y0364370D01*
X0218070Y0364230D01*
X0217820Y0364120D01*
X0217560Y0364050D01*
X0217290Y0364010D01*
X0217030Y0364010D01*
X0216760Y0364050D01*
X0216500Y0364120D01*
X0216250Y0364230D01*
X0216020Y0364370D01*
X0215820Y0364540D01*
X0215630Y0364740D01*
X0215480Y0364960D01*
X0215350Y0365200D01*
X0215260Y0365450D01*
X0215210Y0365710D01*
X0215190Y0365980D01*
X0215200Y0365980D02*
X0207320Y0365980D01*
X0206930Y0366000D01*
X0206550Y0366060D01*
X0206180Y0366150D01*
X0205810Y0366280D01*
X0205460Y0366450D01*
X0205130Y0366640D01*
X0204820Y0366870D01*
X0204530Y0367130D01*
X0204270Y0367420D01*
X0204040Y0367730D01*
X0203850Y0368060D01*
X0203680Y0368410D01*
X0203550Y0368780D01*
X0203460Y0369150D01*
X0203400Y0369530D01*
X0203380Y0369920D01*
X0226400Y0494330D02*
X0226420Y0494670D01*
X0226480Y0495010D01*
X0226580Y0495340D01*
X0226710Y0495650D01*
X0226890Y0495950D01*
X0227090Y0496230D01*
X0227330Y0496480D01*
X0227590Y0496700D01*
X0227870Y0496880D01*
X0228180Y0497040D01*
X0228500Y0497160D01*
X0228840Y0497240D01*
X0229180Y0497280D01*
X0229520Y0497280D01*
X0229860Y0497240D01*
X0230200Y0497160D01*
X0230520Y0497040D01*
X0230820Y0496880D01*
X0231110Y0496700D01*
X0231370Y0496480D01*
X0231610Y0496230D01*
X0231810Y0495950D01*
X0231990Y0495650D01*
X0232120Y0495340D01*
X0232220Y0495010D01*
X0232280Y0494670D01*
X0232300Y0494330D01*
X0232280Y0493990D01*
X0232220Y0493650D01*
X0232120Y0493320D01*
X0231990Y0493010D01*
X0231810Y0492710D01*
X0231610Y0492430D01*
X0231370Y0492180D01*
X0231110Y0491960D01*
X0230830Y0491780D01*
X0230520Y0491620D01*
X0230200Y0491500D01*
X0229860Y0491420D01*
X0229520Y0491380D01*
X0229180Y0491380D01*
X0228840Y0491420D01*
X0228500Y0491500D01*
X0228180Y0491620D01*
X0227870Y0491780D01*
X0227590Y0491960D01*
X0227330Y0492180D01*
X0227090Y0492430D01*
X0226890Y0492710D01*
X0226710Y0493010D01*
X0226580Y0493320D01*
X0226480Y0493650D01*
X0226420Y0493990D01*
X0226400Y0494330D01*
X0241400Y0494330D02*
X0241420Y0494670D01*
X0241480Y0495010D01*
X0241580Y0495340D01*
X0241710Y0495650D01*
X0241890Y0495950D01*
X0242090Y0496230D01*
X0242330Y0496480D01*
X0242590Y0496700D01*
X0242870Y0496880D01*
X0243180Y0497040D01*
X0243500Y0497160D01*
X0243840Y0497240D01*
X0244180Y0497280D01*
X0244520Y0497280D01*
X0244860Y0497240D01*
X0245200Y0497160D01*
X0245520Y0497040D01*
X0245820Y0496880D01*
X0246110Y0496700D01*
X0246370Y0496480D01*
X0246610Y0496230D01*
X0246810Y0495950D01*
X0246990Y0495650D01*
X0247120Y0495340D01*
X0247220Y0495010D01*
X0247280Y0494670D01*
X0247300Y0494330D01*
X0247280Y0493990D01*
X0247220Y0493650D01*
X0247120Y0493320D01*
X0246990Y0493010D01*
X0246810Y0492710D01*
X0246610Y0492430D01*
X0246370Y0492180D01*
X0246110Y0491960D01*
X0245830Y0491780D01*
X0245520Y0491620D01*
X0245200Y0491500D01*
X0244860Y0491420D01*
X0244520Y0491380D01*
X0244180Y0491380D01*
X0243840Y0491420D01*
X0243500Y0491500D01*
X0243180Y0491620D01*
X0242870Y0491780D01*
X0242590Y0491960D01*
X0242330Y0492180D01*
X0242090Y0492430D01*
X0241890Y0492710D01*
X0241710Y0493010D01*
X0241580Y0493320D01*
X0241480Y0493650D01*
X0241420Y0493990D01*
X0241400Y0494330D01*
X0286220Y0354960D02*
G75*
%LPD*%
D340*
X0286220Y0354960D02*
X0364960Y0354960D01*
X0364960Y0394330D01*
X0343310Y0512440D01*
X0307870Y0512440D01*
X0286220Y0394330D01*
X0286220Y0354960D01*
X0292130Y0369920D02*
X0292130Y0374650D01*
X0292120Y0374650D02*
X0292140Y0375040D01*
X0292200Y0375420D01*
X0292290Y0375790D01*
X0292420Y0376160D01*
X0292590Y0376510D01*
X0292780Y0376840D01*
X0293010Y0377150D01*
X0293270Y0377440D01*
X0293560Y0377700D01*
X0293870Y0377930D01*
X0294200Y0378120D01*
X0294550Y0378290D01*
X0294920Y0378420D01*
X0295290Y0378510D01*
X0295670Y0378570D01*
X0296060Y0378590D01*
X0296060Y0378580D02*
X0303940Y0378580D01*
X0303930Y0378580D02*
X0303950Y0378850D01*
X0304000Y0379110D01*
X0304090Y0379360D01*
X0304220Y0379600D01*
X0304370Y0379820D01*
X0304560Y0380020D01*
X0304760Y0380190D01*
X0304990Y0380330D01*
X0305240Y0380440D01*
X0305500Y0380510D01*
X0305770Y0380550D01*
X0306030Y0380550D01*
X0306300Y0380510D01*
X0306560Y0380440D01*
X0306810Y0380330D01*
X0307040Y0380190D01*
X0307240Y0380020D01*
X0307430Y0379820D01*
X0307580Y0379600D01*
X0307710Y0379360D01*
X0307800Y0379110D01*
X0307850Y0378850D01*
X0307870Y0378580D01*
X0319680Y0378580D01*
X0319680Y0386460D01*
X0319700Y0386850D01*
X0319760Y0387230D01*
X0319850Y0387600D01*
X0319980Y0387970D01*
X0320150Y0388320D01*
X0320340Y0388650D01*
X0320570Y0388960D01*
X0320830Y0389250D01*
X0321120Y0389510D01*
X0321430Y0389740D01*
X0321760Y0389930D01*
X0322110Y0390100D01*
X0322480Y0390230D01*
X0322850Y0390320D01*
X0323230Y0390380D01*
X0323620Y0390400D01*
X0323620Y0390390D02*
X0327560Y0390390D01*
X0327560Y0390400D02*
X0327950Y0390380D01*
X0328330Y0390320D01*
X0328700Y0390230D01*
X0329070Y0390100D01*
X0329420Y0389930D01*
X0329750Y0389740D01*
X0330060Y0389510D01*
X0330350Y0389250D01*
X0330610Y0388960D01*
X0330840Y0388650D01*
X0331030Y0388320D01*
X0331200Y0387970D01*
X0331330Y0387600D01*
X0331420Y0387230D01*
X0331480Y0386850D01*
X0331500Y0386460D01*
X0331500Y0378580D01*
X0343310Y0378580D01*
X0343330Y0378850D01*
X0343380Y0379110D01*
X0343470Y0379360D01*
X0343600Y0379600D01*
X0343750Y0379820D01*
X0343940Y0380020D01*
X0344140Y0380190D01*
X0344370Y0380330D01*
X0344620Y0380440D01*
X0344880Y0380510D01*
X0345150Y0380550D01*
X0345410Y0380550D01*
X0345680Y0380510D01*
X0345940Y0380440D01*
X0346190Y0380330D01*
X0346420Y0380190D01*
X0346620Y0380020D01*
X0346810Y0379820D01*
X0346960Y0379600D01*
X0347090Y0379360D01*
X0347180Y0379110D01*
X0347230Y0378850D01*
X0347250Y0378580D01*
X0347240Y0378580D02*
X0355120Y0378580D01*
X0355120Y0378590D02*
X0355510Y0378570D01*
X0355890Y0378510D01*
X0356260Y0378420D01*
X0356630Y0378290D01*
X0356980Y0378120D01*
X0357310Y0377930D01*
X0357620Y0377700D01*
X0357910Y0377440D01*
X0358170Y0377150D01*
X0358400Y0376840D01*
X0358590Y0376510D01*
X0358760Y0376160D01*
X0358890Y0375790D01*
X0358980Y0375420D01*
X0359040Y0375040D01*
X0359060Y0374650D01*
X0359050Y0374650D02*
X0359050Y0369920D01*
X0359060Y0369920D02*
X0359040Y0369530D01*
X0358980Y0369150D01*
X0358890Y0368780D01*
X0358760Y0368410D01*
X0358590Y0368060D01*
X0358400Y0367730D01*
X0358170Y0367420D01*
X0357910Y0367130D01*
X0357620Y0366870D01*
X0357310Y0366640D01*
X0356980Y0366450D01*
X0356630Y0366280D01*
X0356260Y0366150D01*
X0355890Y0366060D01*
X0355510Y0366000D01*
X0355120Y0365980D01*
X0347240Y0365980D01*
X0347250Y0365980D02*
X0347230Y0365710D01*
X0347180Y0365450D01*
X0347090Y0365200D01*
X0346960Y0364960D01*
X0346810Y0364740D01*
X0346620Y0364540D01*
X0346420Y0364370D01*
X0346190Y0364230D01*
X0345940Y0364120D01*
X0345680Y0364050D01*
X0345410Y0364010D01*
X0345150Y0364010D01*
X0344880Y0364050D01*
X0344620Y0364120D01*
X0344370Y0364230D01*
X0344140Y0364370D01*
X0343940Y0364540D01*
X0343750Y0364740D01*
X0343600Y0364960D01*
X0343470Y0365200D01*
X0343380Y0365450D01*
X0343330Y0365710D01*
X0343310Y0365980D01*
X0307870Y0365980D01*
X0307850Y0365710D01*
X0307800Y0365450D01*
X0307710Y0365200D01*
X0307580Y0364960D01*
X0307430Y0364740D01*
X0307240Y0364540D01*
X0307040Y0364370D01*
X0306810Y0364230D01*
X0306560Y0364120D01*
X0306300Y0364050D01*
X0306030Y0364010D01*
X0305770Y0364010D01*
X0305500Y0364050D01*
X0305240Y0364120D01*
X0304990Y0364230D01*
X0304760Y0364370D01*
X0304560Y0364540D01*
X0304370Y0364740D01*
X0304220Y0364960D01*
X0304090Y0365200D01*
X0304000Y0365450D01*
X0303950Y0365710D01*
X0303930Y0365980D01*
X0303940Y0365980D02*
X0296060Y0365980D01*
X0295670Y0366000D01*
X0295290Y0366060D01*
X0294920Y0366150D01*
X0294550Y0366280D01*
X0294200Y0366450D01*
X0293870Y0366640D01*
X0293560Y0366870D01*
X0293270Y0367130D01*
X0293010Y0367420D01*
X0292780Y0367730D01*
X0292590Y0368060D01*
X0292420Y0368410D01*
X0292290Y0368780D01*
X0292200Y0369150D01*
X0292140Y0369530D01*
X0292120Y0369920D01*
X0315140Y0494330D02*
X0315160Y0494670D01*
X0315220Y0495010D01*
X0315320Y0495340D01*
X0315450Y0495650D01*
X0315630Y0495950D01*
X0315830Y0496230D01*
X0316070Y0496480D01*
X0316330Y0496700D01*
X0316610Y0496880D01*
X0316920Y0497040D01*
X0317240Y0497160D01*
X0317580Y0497240D01*
X0317920Y0497280D01*
X0318260Y0497280D01*
X0318600Y0497240D01*
X0318940Y0497160D01*
X0319260Y0497040D01*
X0319560Y0496880D01*
X0319850Y0496700D01*
X0320110Y0496480D01*
X0320350Y0496230D01*
X0320550Y0495950D01*
X0320730Y0495650D01*
X0320860Y0495340D01*
X0320960Y0495010D01*
X0321020Y0494670D01*
X0321040Y0494330D01*
X0321020Y0493990D01*
X0320960Y0493650D01*
X0320860Y0493320D01*
X0320730Y0493010D01*
X0320550Y0492710D01*
X0320350Y0492430D01*
X0320110Y0492180D01*
X0319850Y0491960D01*
X0319570Y0491780D01*
X0319260Y0491620D01*
X0318940Y0491500D01*
X0318600Y0491420D01*
X0318260Y0491380D01*
X0317920Y0491380D01*
X0317580Y0491420D01*
X0317240Y0491500D01*
X0316920Y0491620D01*
X0316610Y0491780D01*
X0316330Y0491960D01*
X0316070Y0492180D01*
X0315830Y0492430D01*
X0315630Y0492710D01*
X0315450Y0493010D01*
X0315320Y0493320D01*
X0315220Y0493650D01*
X0315160Y0493990D01*
X0315140Y0494330D01*
X0330140Y0494330D02*
X0330160Y0494670D01*
X0330220Y0495010D01*
X0330320Y0495340D01*
X0330450Y0495650D01*
X0330630Y0495950D01*
X0330830Y0496230D01*
X0331070Y0496480D01*
X0331330Y0496700D01*
X0331610Y0496880D01*
X0331920Y0497040D01*
X0332240Y0497160D01*
X0332580Y0497240D01*
X0332920Y0497280D01*
X0333260Y0497280D01*
X0333600Y0497240D01*
X0333940Y0497160D01*
X0334260Y0497040D01*
X0334560Y0496880D01*
X0334850Y0496700D01*
X0335110Y0496480D01*
X0335350Y0496230D01*
X0335550Y0495950D01*
X0335730Y0495650D01*
X0335860Y0495340D01*
X0335960Y0495010D01*
X0336020Y0494670D01*
X0336040Y0494330D01*
X0336020Y0493990D01*
X0335960Y0493650D01*
X0335860Y0493320D01*
X0335730Y0493010D01*
X0335550Y0492710D01*
X0335350Y0492430D01*
X0335110Y0492180D01*
X0334850Y0491960D01*
X0334570Y0491780D01*
X0334260Y0491620D01*
X0333940Y0491500D01*
X0333600Y0491420D01*
X0333260Y0491380D01*
X0332920Y0491380D01*
X0332580Y0491420D01*
X0332240Y0491500D01*
X0331920Y0491620D01*
X0331610Y0491780D01*
X0331330Y0491960D01*
X0331070Y0492180D01*
X0330830Y0492430D01*
X0330630Y0492710D01*
X0330450Y0493010D01*
X0330320Y0493320D01*
X0330220Y0493650D01*
X0330160Y0493990D01*
X0330140Y0494330D01*
X0020000Y0522440D02*
G75*
%LPD*%
D340*
X0020000Y0522440D02*
X0098740Y0522440D01*
X0098740Y0561810D01*
X0077090Y0679920D01*
X0041650Y0679920D01*
X0020000Y0561810D01*
X0020000Y0522440D01*
X0025910Y0537400D02*
X0025910Y0542130D01*
X0025900Y0542130D02*
X0025920Y0542520D01*
X0025980Y0542900D01*
X0026070Y0543270D01*
X0026200Y0543640D01*
X0026370Y0543990D01*
X0026560Y0544320D01*
X0026790Y0544630D01*
X0027050Y0544920D01*
X0027340Y0545180D01*
X0027650Y0545410D01*
X0027980Y0545600D01*
X0028330Y0545770D01*
X0028700Y0545900D01*
X0029070Y0545990D01*
X0029450Y0546050D01*
X0029840Y0546070D01*
X0029840Y0546060D02*
X0037720Y0546060D01*
X0037710Y0546060D02*
X0037730Y0546330D01*
X0037780Y0546590D01*
X0037870Y0546840D01*
X0038000Y0547080D01*
X0038150Y0547300D01*
X0038340Y0547500D01*
X0038540Y0547670D01*
X0038770Y0547810D01*
X0039020Y0547920D01*
X0039280Y0547990D01*
X0039550Y0548030D01*
X0039810Y0548030D01*
X0040080Y0547990D01*
X0040340Y0547920D01*
X0040590Y0547810D01*
X0040820Y0547670D01*
X0041020Y0547500D01*
X0041210Y0547300D01*
X0041360Y0547080D01*
X0041490Y0546840D01*
X0041580Y0546590D01*
X0041630Y0546330D01*
X0041650Y0546060D01*
X0053460Y0546060D01*
X0053460Y0553940D01*
X0053480Y0554330D01*
X0053540Y0554710D01*
X0053630Y0555080D01*
X0053760Y0555450D01*
X0053930Y0555800D01*
X0054120Y0556130D01*
X0054350Y0556440D01*
X0054610Y0556730D01*
X0054900Y0556990D01*
X0055210Y0557220D01*
X0055540Y0557410D01*
X0055890Y0557580D01*
X0056260Y0557710D01*
X0056630Y0557800D01*
X0057010Y0557860D01*
X0057400Y0557880D01*
X0057400Y0557870D02*
X0061340Y0557870D01*
X0061340Y0557880D02*
X0061730Y0557860D01*
X0062110Y0557800D01*
X0062480Y0557710D01*
X0062850Y0557580D01*
X0063200Y0557410D01*
X0063530Y0557220D01*
X0063840Y0556990D01*
X0064130Y0556730D01*
X0064390Y0556440D01*
X0064620Y0556130D01*
X0064810Y0555800D01*
X0064980Y0555450D01*
X0065110Y0555080D01*
X0065200Y0554710D01*
X0065260Y0554330D01*
X0065280Y0553940D01*
X0065280Y0546060D01*
X0077090Y0546060D01*
X0077110Y0546330D01*
X0077160Y0546590D01*
X0077250Y0546840D01*
X0077380Y0547080D01*
X0077530Y0547300D01*
X0077720Y0547500D01*
X0077920Y0547670D01*
X0078150Y0547810D01*
X0078400Y0547920D01*
X0078660Y0547990D01*
X0078930Y0548030D01*
X0079190Y0548030D01*
X0079460Y0547990D01*
X0079720Y0547920D01*
X0079970Y0547810D01*
X0080200Y0547670D01*
X0080400Y0547500D01*
X0080590Y0547300D01*
X0080740Y0547080D01*
X0080870Y0546840D01*
X0080960Y0546590D01*
X0081010Y0546330D01*
X0081030Y0546060D01*
X0081020Y0546060D02*
X0088900Y0546060D01*
X0088900Y0546070D02*
X0089290Y0546050D01*
X0089670Y0545990D01*
X0090040Y0545900D01*
X0090410Y0545770D01*
X0090760Y0545600D01*
X0091090Y0545410D01*
X0091400Y0545180D01*
X0091690Y0544920D01*
X0091950Y0544630D01*
X0092180Y0544320D01*
X0092370Y0543990D01*
X0092540Y0543640D01*
X0092670Y0543270D01*
X0092760Y0542900D01*
X0092820Y0542520D01*
X0092840Y0542130D01*
X0092830Y0542130D02*
X0092830Y0537400D01*
X0092840Y0537400D02*
X0092820Y0537010D01*
X0092760Y0536630D01*
X0092670Y0536260D01*
X0092540Y0535890D01*
X0092370Y0535540D01*
X0092180Y0535210D01*
X0091950Y0534900D01*
X0091690Y0534610D01*
X0091400Y0534350D01*
X0091090Y0534120D01*
X0090760Y0533930D01*
X0090410Y0533760D01*
X0090040Y0533630D01*
X0089670Y0533540D01*
X0089290Y0533480D01*
X0088900Y0533460D01*
X0081020Y0533460D01*
X0081030Y0533460D02*
X0081010Y0533190D01*
X0080960Y0532930D01*
X0080870Y0532680D01*
X0080740Y0532440D01*
X0080590Y0532220D01*
X0080400Y0532020D01*
X0080200Y0531850D01*
X0079970Y0531710D01*
X0079720Y0531600D01*
X0079460Y0531530D01*
X0079190Y0531490D01*
X0078930Y0531490D01*
X0078660Y0531530D01*
X0078400Y0531600D01*
X0078150Y0531710D01*
X0077920Y0531850D01*
X0077720Y0532020D01*
X0077530Y0532220D01*
X0077380Y0532440D01*
X0077250Y0532680D01*
X0077160Y0532930D01*
X0077110Y0533190D01*
X0077090Y0533460D01*
X0041650Y0533460D01*
X0041630Y0533190D01*
X0041580Y0532930D01*
X0041490Y0532680D01*
X0041360Y0532440D01*
X0041210Y0532220D01*
X0041020Y0532020D01*
X0040820Y0531850D01*
X0040590Y0531710D01*
X0040340Y0531600D01*
X0040080Y0531530D01*
X0039810Y0531490D01*
X0039550Y0531490D01*
X0039280Y0531530D01*
X0039020Y0531600D01*
X0038770Y0531710D01*
X0038540Y0531850D01*
X0038340Y0532020D01*
X0038150Y0532220D01*
X0038000Y0532440D01*
X0037870Y0532680D01*
X0037780Y0532930D01*
X0037730Y0533190D01*
X0037710Y0533460D01*
X0037720Y0533460D02*
X0029840Y0533460D01*
X0029450Y0533480D01*
X0029070Y0533540D01*
X0028700Y0533630D01*
X0028330Y0533760D01*
X0027980Y0533930D01*
X0027650Y0534120D01*
X0027340Y0534350D01*
X0027050Y0534610D01*
X0026790Y0534900D01*
X0026560Y0535210D01*
X0026370Y0535540D01*
X0026200Y0535890D01*
X0026070Y0536260D01*
X0025980Y0536630D01*
X0025920Y0537010D01*
X0025900Y0537400D01*
X0048920Y0661810D02*
X0048940Y0662150D01*
X0049000Y0662490D01*
X0049100Y0662820D01*
X0049230Y0663130D01*
X0049410Y0663430D01*
X0049610Y0663710D01*
X0049850Y0663960D01*
X0050110Y0664180D01*
X0050390Y0664360D01*
X0050700Y0664520D01*
X0051020Y0664640D01*
X0051360Y0664720D01*
X0051700Y0664760D01*
X0052040Y0664760D01*
X0052380Y0664720D01*
X0052720Y0664640D01*
X0053040Y0664520D01*
X0053340Y0664360D01*
X0053630Y0664180D01*
X0053890Y0663960D01*
X0054130Y0663710D01*
X0054330Y0663430D01*
X0054510Y0663130D01*
X0054640Y0662820D01*
X0054740Y0662490D01*
X0054800Y0662150D01*
X0054820Y0661810D01*
X0054800Y0661470D01*
X0054740Y0661130D01*
X0054640Y0660800D01*
X0054510Y0660490D01*
X0054330Y0660190D01*
X0054130Y0659910D01*
X0053890Y0659660D01*
X0053630Y0659440D01*
X0053350Y0659260D01*
X0053040Y0659100D01*
X0052720Y0658980D01*
X0052380Y0658900D01*
X0052040Y0658860D01*
X0051700Y0658860D01*
X0051360Y0658900D01*
X0051020Y0658980D01*
X0050700Y0659100D01*
X0050390Y0659260D01*
X0050110Y0659440D01*
X0049850Y0659660D01*
X0049610Y0659910D01*
X0049410Y0660190D01*
X0049230Y0660490D01*
X0049100Y0660800D01*
X0049000Y0661130D01*
X0048940Y0661470D01*
X0048920Y0661810D01*
X0063920Y0661810D02*
X0063940Y0662150D01*
X0064000Y0662490D01*
X0064100Y0662820D01*
X0064230Y0663130D01*
X0064410Y0663430D01*
X0064610Y0663710D01*
X0064850Y0663960D01*
X0065110Y0664180D01*
X0065390Y0664360D01*
X0065700Y0664520D01*
X0066020Y0664640D01*
X0066360Y0664720D01*
X0066700Y0664760D01*
X0067040Y0664760D01*
X0067380Y0664720D01*
X0067720Y0664640D01*
X0068040Y0664520D01*
X0068340Y0664360D01*
X0068630Y0664180D01*
X0068890Y0663960D01*
X0069130Y0663710D01*
X0069330Y0663430D01*
X0069510Y0663130D01*
X0069640Y0662820D01*
X0069740Y0662490D01*
X0069800Y0662150D01*
X0069820Y0661810D01*
X0069800Y0661470D01*
X0069740Y0661130D01*
X0069640Y0660800D01*
X0069510Y0660490D01*
X0069330Y0660190D01*
X0069130Y0659910D01*
X0068890Y0659660D01*
X0068630Y0659440D01*
X0068350Y0659260D01*
X0068040Y0659100D01*
X0067720Y0658980D01*
X0067380Y0658900D01*
X0067040Y0658860D01*
X0066700Y0658860D01*
X0066360Y0658900D01*
X0066020Y0658980D01*
X0065700Y0659100D01*
X0065390Y0659260D01*
X0065110Y0659440D01*
X0064850Y0659660D01*
X0064610Y0659910D01*
X0064410Y0660190D01*
X0064230Y0660490D01*
X0064100Y0660800D01*
X0064000Y0661130D01*
X0063940Y0661470D01*
X0063920Y0661810D01*
X0108740Y0522440D02*
G75*
%LPD*%
D340*
X0108740Y0522440D02*
X0187480Y0522440D01*
X0187480Y0561810D01*
X0165830Y0679920D01*
X0130390Y0679920D01*
X0108740Y0561810D01*
X0108740Y0522440D01*
X0114650Y0537400D02*
X0114650Y0542130D01*
X0114640Y0542130D02*
X0114660Y0542520D01*
X0114720Y0542900D01*
X0114810Y0543270D01*
X0114940Y0543640D01*
X0115110Y0543990D01*
X0115300Y0544320D01*
X0115530Y0544630D01*
X0115790Y0544920D01*
X0116080Y0545180D01*
X0116390Y0545410D01*
X0116720Y0545600D01*
X0117070Y0545770D01*
X0117440Y0545900D01*
X0117810Y0545990D01*
X0118190Y0546050D01*
X0118580Y0546070D01*
X0118580Y0546060D02*
X0126460Y0546060D01*
X0126450Y0546060D02*
X0126470Y0546330D01*
X0126520Y0546590D01*
X0126610Y0546840D01*
X0126740Y0547080D01*
X0126890Y0547300D01*
X0127080Y0547500D01*
X0127280Y0547670D01*
X0127510Y0547810D01*
X0127760Y0547920D01*
X0128020Y0547990D01*
X0128290Y0548030D01*
X0128550Y0548030D01*
X0128820Y0547990D01*
X0129080Y0547920D01*
X0129330Y0547810D01*
X0129560Y0547670D01*
X0129760Y0547500D01*
X0129950Y0547300D01*
X0130100Y0547080D01*
X0130230Y0546840D01*
X0130320Y0546590D01*
X0130370Y0546330D01*
X0130390Y0546060D01*
X0142200Y0546060D01*
X0142200Y0553940D01*
X0142220Y0554330D01*
X0142280Y0554710D01*
X0142370Y0555080D01*
X0142500Y0555450D01*
X0142670Y0555800D01*
X0142860Y0556130D01*
X0143090Y0556440D01*
X0143350Y0556730D01*
X0143640Y0556990D01*
X0143950Y0557220D01*
X0144280Y0557410D01*
X0144630Y0557580D01*
X0145000Y0557710D01*
X0145370Y0557800D01*
X0145750Y0557860D01*
X0146140Y0557880D01*
X0146140Y0557870D02*
X0150080Y0557870D01*
X0150080Y0557880D02*
X0150470Y0557860D01*
X0150850Y0557800D01*
X0151220Y0557710D01*
X0151590Y0557580D01*
X0151940Y0557410D01*
X0152270Y0557220D01*
X0152580Y0556990D01*
X0152870Y0556730D01*
X0153130Y0556440D01*
X0153360Y0556130D01*
X0153550Y0555800D01*
X0153720Y0555450D01*
X0153850Y0555080D01*
X0153940Y0554710D01*
X0154000Y0554330D01*
X0154020Y0553940D01*
X0154020Y0546060D01*
X0165830Y0546060D01*
X0165850Y0546330D01*
X0165900Y0546590D01*
X0165990Y0546840D01*
X0166120Y0547080D01*
X0166270Y0547300D01*
X0166460Y0547500D01*
X0166660Y0547670D01*
X0166890Y0547810D01*
X0167140Y0547920D01*
X0167400Y0547990D01*
X0167670Y0548030D01*
X0167930Y0548030D01*
X0168200Y0547990D01*
X0168460Y0547920D01*
X0168710Y0547810D01*
X0168940Y0547670D01*
X0169140Y0547500D01*
X0169330Y0547300D01*
X0169480Y0547080D01*
X0169610Y0546840D01*
X0169700Y0546590D01*
X0169750Y0546330D01*
X0169770Y0546060D01*
X0169760Y0546060D02*
X0177640Y0546060D01*
X0177640Y0546070D02*
X0178030Y0546050D01*
X0178410Y0545990D01*
X0178780Y0545900D01*
X0179150Y0545770D01*
X0179500Y0545600D01*
X0179830Y0545410D01*
X0180140Y0545180D01*
X0180430Y0544920D01*
X0180690Y0544630D01*
X0180920Y0544320D01*
X0181110Y0543990D01*
X0181280Y0543640D01*
X0181410Y0543270D01*
X0181500Y0542900D01*
X0181560Y0542520D01*
X0181580Y0542130D01*
X0181570Y0542130D02*
X0181570Y0537400D01*
X0181580Y0537400D02*
X0181560Y0537010D01*
X0181500Y0536630D01*
X0181410Y0536260D01*
X0181280Y0535890D01*
X0181110Y0535540D01*
X0180920Y0535210D01*
X0180690Y0534900D01*
X0180430Y0534610D01*
X0180140Y0534350D01*
X0179830Y0534120D01*
X0179500Y0533930D01*
X0179150Y0533760D01*
X0178780Y0533630D01*
X0178410Y0533540D01*
X0178030Y0533480D01*
X0177640Y0533460D01*
X0169760Y0533460D01*
X0169770Y0533460D02*
X0169750Y0533190D01*
X0169700Y0532930D01*
X0169610Y0532680D01*
X0169480Y0532440D01*
X0169330Y0532220D01*
X0169140Y0532020D01*
X0168940Y0531850D01*
X0168710Y0531710D01*
X0168460Y0531600D01*
X0168200Y0531530D01*
X0167930Y0531490D01*
X0167670Y0531490D01*
X0167400Y0531530D01*
X0167140Y0531600D01*
X0166890Y0531710D01*
X0166660Y0531850D01*
X0166460Y0532020D01*
X0166270Y0532220D01*
X0166120Y0532440D01*
X0165990Y0532680D01*
X0165900Y0532930D01*
X0165850Y0533190D01*
X0165830Y0533460D01*
X0130390Y0533460D01*
X0130370Y0533190D01*
X0130320Y0532930D01*
X0130230Y0532680D01*
X0130100Y0532440D01*
X0129950Y0532220D01*
X0129760Y0532020D01*
X0129560Y0531850D01*
X0129330Y0531710D01*
X0129080Y0531600D01*
X0128820Y0531530D01*
X0128550Y0531490D01*
X0128290Y0531490D01*
X0128020Y0531530D01*
X0127760Y0531600D01*
X0127510Y0531710D01*
X0127280Y0531850D01*
X0127080Y0532020D01*
X0126890Y0532220D01*
X0126740Y0532440D01*
X0126610Y0532680D01*
X0126520Y0532930D01*
X0126470Y0533190D01*
X0126450Y0533460D01*
X0126460Y0533460D02*
X0118580Y0533460D01*
X0118190Y0533480D01*
X0117810Y0533540D01*
X0117440Y0533630D01*
X0117070Y0533760D01*
X0116720Y0533930D01*
X0116390Y0534120D01*
X0116080Y0534350D01*
X0115790Y0534610D01*
X0115530Y0534900D01*
X0115300Y0535210D01*
X0115110Y0535540D01*
X0114940Y0535890D01*
X0114810Y0536260D01*
X0114720Y0536630D01*
X0114660Y0537010D01*
X0114640Y0537400D01*
X0137660Y0661810D02*
X0137680Y0662150D01*
X0137740Y0662490D01*
X0137840Y0662820D01*
X0137970Y0663130D01*
X0138150Y0663430D01*
X0138350Y0663710D01*
X0138590Y0663960D01*
X0138850Y0664180D01*
X0139130Y0664360D01*
X0139440Y0664520D01*
X0139760Y0664640D01*
X0140100Y0664720D01*
X0140440Y0664760D01*
X0140780Y0664760D01*
X0141120Y0664720D01*
X0141460Y0664640D01*
X0141780Y0664520D01*
X0142080Y0664360D01*
X0142370Y0664180D01*
X0142630Y0663960D01*
X0142870Y0663710D01*
X0143070Y0663430D01*
X0143250Y0663130D01*
X0143380Y0662820D01*
X0143480Y0662490D01*
X0143540Y0662150D01*
X0143560Y0661810D01*
X0143540Y0661470D01*
X0143480Y0661130D01*
X0143380Y0660800D01*
X0143250Y0660490D01*
X0143070Y0660190D01*
X0142870Y0659910D01*
X0142630Y0659660D01*
X0142370Y0659440D01*
X0142090Y0659260D01*
X0141780Y0659100D01*
X0141460Y0658980D01*
X0141120Y0658900D01*
X0140780Y0658860D01*
X0140440Y0658860D01*
X0140100Y0658900D01*
X0139760Y0658980D01*
X0139440Y0659100D01*
X0139130Y0659260D01*
X0138850Y0659440D01*
X0138590Y0659660D01*
X0138350Y0659910D01*
X0138150Y0660190D01*
X0137970Y0660490D01*
X0137840Y0660800D01*
X0137740Y0661130D01*
X0137680Y0661470D01*
X0137660Y0661810D01*
X0152660Y0661810D02*
X0152680Y0662150D01*
X0152740Y0662490D01*
X0152840Y0662820D01*
X0152970Y0663130D01*
X0153150Y0663430D01*
X0153350Y0663710D01*
X0153590Y0663960D01*
X0153850Y0664180D01*
X0154130Y0664360D01*
X0154440Y0664520D01*
X0154760Y0664640D01*
X0155100Y0664720D01*
X0155440Y0664760D01*
X0155780Y0664760D01*
X0156120Y0664720D01*
X0156460Y0664640D01*
X0156780Y0664520D01*
X0157080Y0664360D01*
X0157370Y0664180D01*
X0157630Y0663960D01*
X0157870Y0663710D01*
X0158070Y0663430D01*
X0158250Y0663130D01*
X0158380Y0662820D01*
X0158480Y0662490D01*
X0158540Y0662150D01*
X0158560Y0661810D01*
X0158540Y0661470D01*
X0158480Y0661130D01*
X0158380Y0660800D01*
X0158250Y0660490D01*
X0158070Y0660190D01*
X0157870Y0659910D01*
X0157630Y0659660D01*
X0157370Y0659440D01*
X0157090Y0659260D01*
X0156780Y0659100D01*
X0156460Y0658980D01*
X0156120Y0658900D01*
X0155780Y0658860D01*
X0155440Y0658860D01*
X0155100Y0658900D01*
X0154760Y0658980D01*
X0154440Y0659100D01*
X0154130Y0659260D01*
X0153850Y0659440D01*
X0153590Y0659660D01*
X0153350Y0659910D01*
X0153150Y0660190D01*
X0152970Y0660490D01*
X0152840Y0660800D01*
X0152740Y0661130D01*
X0152680Y0661470D01*
X0152660Y0661810D01*
X0197480Y0522440D02*
G75*
%LPD*%
D340*
X0197480Y0522440D02*
X0276220Y0522440D01*
X0276220Y0561810D01*
X0254570Y0679920D01*
X0219130Y0679920D01*
X0197480Y0561810D01*
X0197480Y0522440D01*
X0203390Y0537400D02*
X0203390Y0542130D01*
X0203380Y0542130D02*
X0203400Y0542520D01*
X0203460Y0542900D01*
X0203550Y0543270D01*
X0203680Y0543640D01*
X0203850Y0543990D01*
X0204040Y0544320D01*
X0204270Y0544630D01*
X0204530Y0544920D01*
X0204820Y0545180D01*
X0205130Y0545410D01*
X0205460Y0545600D01*
X0205810Y0545770D01*
X0206180Y0545900D01*
X0206550Y0545990D01*
X0206930Y0546050D01*
X0207320Y0546070D01*
X0207320Y0546060D02*
X0215200Y0546060D01*
X0215190Y0546060D02*
X0215210Y0546330D01*
X0215260Y0546590D01*
X0215350Y0546840D01*
X0215480Y0547080D01*
X0215630Y0547300D01*
X0215820Y0547500D01*
X0216020Y0547670D01*
X0216250Y0547810D01*
X0216500Y0547920D01*
X0216760Y0547990D01*
X0217030Y0548030D01*
X0217290Y0548030D01*
X0217560Y0547990D01*
X0217820Y0547920D01*
X0218070Y0547810D01*
X0218300Y0547670D01*
X0218500Y0547500D01*
X0218690Y0547300D01*
X0218840Y0547080D01*
X0218970Y0546840D01*
X0219060Y0546590D01*
X0219110Y0546330D01*
X0219130Y0546060D01*
X0230940Y0546060D01*
X0230940Y0553940D01*
X0230960Y0554330D01*
X0231020Y0554710D01*
X0231110Y0555080D01*
X0231240Y0555450D01*
X0231410Y0555800D01*
X0231600Y0556130D01*
X0231830Y0556440D01*
X0232090Y0556730D01*
X0232380Y0556990D01*
X0232690Y0557220D01*
X0233020Y0557410D01*
X0233370Y0557580D01*
X0233740Y0557710D01*
X0234110Y0557800D01*
X0234490Y0557860D01*
X0234880Y0557880D01*
X0234880Y0557870D02*
X0238820Y0557870D01*
X0238820Y0557880D02*
X0239210Y0557860D01*
X0239590Y0557800D01*
X0239960Y0557710D01*
X0240330Y0557580D01*
X0240680Y0557410D01*
X0241010Y0557220D01*
X0241320Y0556990D01*
X0241610Y0556730D01*
X0241870Y0556440D01*
X0242100Y0556130D01*
X0242290Y0555800D01*
X0242460Y0555450D01*
X0242590Y0555080D01*
X0242680Y0554710D01*
X0242740Y0554330D01*
X0242760Y0553940D01*
X0242760Y0546060D01*
X0254570Y0546060D01*
X0254590Y0546330D01*
X0254640Y0546590D01*
X0254730Y0546840D01*
X0254860Y0547080D01*
X0255010Y0547300D01*
X0255200Y0547500D01*
X0255400Y0547670D01*
X0255630Y0547810D01*
X0255880Y0547920D01*
X0256140Y0547990D01*
X0256410Y0548030D01*
X0256670Y0548030D01*
X0256940Y0547990D01*
X0257200Y0547920D01*
X0257450Y0547810D01*
X0257680Y0547670D01*
X0257880Y0547500D01*
X0258070Y0547300D01*
X0258220Y0547080D01*
X0258350Y0546840D01*
X0258440Y0546590D01*
X0258490Y0546330D01*
X0258510Y0546060D01*
X0258500Y0546060D02*
X0266380Y0546060D01*
X0266380Y0546070D02*
X0266770Y0546050D01*
X0267150Y0545990D01*
X0267520Y0545900D01*
X0267890Y0545770D01*
X0268240Y0545600D01*
X0268570Y0545410D01*
X0268880Y0545180D01*
X0269170Y0544920D01*
X0269430Y0544630D01*
X0269660Y0544320D01*
X0269850Y0543990D01*
X0270020Y0543640D01*
X0270150Y0543270D01*
X0270240Y0542900D01*
X0270300Y0542520D01*
X0270320Y0542130D01*
X0270310Y0542130D02*
X0270310Y0537400D01*
X0270320Y0537400D02*
X0270300Y0537010D01*
X0270240Y0536630D01*
X0270150Y0536260D01*
X0270020Y0535890D01*
X0269850Y0535540D01*
X0269660Y0535210D01*
X0269430Y0534900D01*
X0269170Y0534610D01*
X0268880Y0534350D01*
X0268570Y0534120D01*
X0268240Y0533930D01*
X0267890Y0533760D01*
X0267520Y0533630D01*
X0267150Y0533540D01*
X0266770Y0533480D01*
X0266380Y0533460D01*
X0258500Y0533460D01*
X0258510Y0533460D02*
X0258490Y0533190D01*
X0258440Y0532930D01*
X0258350Y0532680D01*
X0258220Y0532440D01*
X0258070Y0532220D01*
X0257880Y0532020D01*
X0257680Y0531850D01*
X0257450Y0531710D01*
X0257200Y0531600D01*
X0256940Y0531530D01*
X0256670Y0531490D01*
X0256410Y0531490D01*
X0256140Y0531530D01*
X0255880Y0531600D01*
X0255630Y0531710D01*
X0255400Y0531850D01*
X0255200Y0532020D01*
X0255010Y0532220D01*
X0254860Y0532440D01*
X0254730Y0532680D01*
X0254640Y0532930D01*
X0254590Y0533190D01*
X0254570Y0533460D01*
X0219130Y0533460D01*
X0219110Y0533190D01*
X0219060Y0532930D01*
X0218970Y0532680D01*
X0218840Y0532440D01*
X0218690Y0532220D01*
X0218500Y0532020D01*
X0218300Y0531850D01*
X0218070Y0531710D01*
X0217820Y0531600D01*
X0217560Y0531530D01*
X0217290Y0531490D01*
X0217030Y0531490D01*
X0216760Y0531530D01*
X0216500Y0531600D01*
X0216250Y0531710D01*
X0216020Y0531850D01*
X0215820Y0532020D01*
X0215630Y0532220D01*
X0215480Y0532440D01*
X0215350Y0532680D01*
X0215260Y0532930D01*
X0215210Y0533190D01*
X0215190Y0533460D01*
X0215200Y0533460D02*
X0207320Y0533460D01*
X0206930Y0533480D01*
X0206550Y0533540D01*
X0206180Y0533630D01*
X0205810Y0533760D01*
X0205460Y0533930D01*
X0205130Y0534120D01*
X0204820Y0534350D01*
X0204530Y0534610D01*
X0204270Y0534900D01*
X0204040Y0535210D01*
X0203850Y0535540D01*
X0203680Y0535890D01*
X0203550Y0536260D01*
X0203460Y0536630D01*
X0203400Y0537010D01*
X0203380Y0537400D01*
X0226400Y0661810D02*
X0226420Y0662150D01*
X0226480Y0662490D01*
X0226580Y0662820D01*
X0226710Y0663130D01*
X0226890Y0663430D01*
X0227090Y0663710D01*
X0227330Y0663960D01*
X0227590Y0664180D01*
X0227870Y0664360D01*
X0228180Y0664520D01*
X0228500Y0664640D01*
X0228840Y0664720D01*
X0229180Y0664760D01*
X0229520Y0664760D01*
X0229860Y0664720D01*
X0230200Y0664640D01*
X0230520Y0664520D01*
X0230820Y0664360D01*
X0231110Y0664180D01*
X0231370Y0663960D01*
X0231610Y0663710D01*
X0231810Y0663430D01*
X0231990Y0663130D01*
X0232120Y0662820D01*
X0232220Y0662490D01*
X0232280Y0662150D01*
X0232300Y0661810D01*
X0232280Y0661470D01*
X0232220Y0661130D01*
X0232120Y0660800D01*
X0231990Y0660490D01*
X0231810Y0660190D01*
X0231610Y0659910D01*
X0231370Y0659660D01*
X0231110Y0659440D01*
X0230830Y0659260D01*
X0230520Y0659100D01*
X0230200Y0658980D01*
X0229860Y0658900D01*
X0229520Y0658860D01*
X0229180Y0658860D01*
X0228840Y0658900D01*
X0228500Y0658980D01*
X0228180Y0659100D01*
X0227870Y0659260D01*
X0227590Y0659440D01*
X0227330Y0659660D01*
X0227090Y0659910D01*
X0226890Y0660190D01*
X0226710Y0660490D01*
X0226580Y0660800D01*
X0226480Y0661130D01*
X0226420Y0661470D01*
X0226400Y0661810D01*
X0241400Y0661810D02*
X0241420Y0662150D01*
X0241480Y0662490D01*
X0241580Y0662820D01*
X0241710Y0663130D01*
X0241890Y0663430D01*
X0242090Y0663710D01*
X0242330Y0663960D01*
X0242590Y0664180D01*
X0242870Y0664360D01*
X0243180Y0664520D01*
X0243500Y0664640D01*
X0243840Y0664720D01*
X0244180Y0664760D01*
X0244520Y0664760D01*
X0244860Y0664720D01*
X0245200Y0664640D01*
X0245520Y0664520D01*
X0245820Y0664360D01*
X0246110Y0664180D01*
X0246370Y0663960D01*
X0246610Y0663710D01*
X0246810Y0663430D01*
X0246990Y0663130D01*
X0247120Y0662820D01*
X0247220Y0662490D01*
X0247280Y0662150D01*
X0247300Y0661810D01*
X0247280Y0661470D01*
X0247220Y0661130D01*
X0247120Y0660800D01*
X0246990Y0660490D01*
X0246810Y0660190D01*
X0246610Y0659910D01*
X0246370Y0659660D01*
X0246110Y0659440D01*
X0245830Y0659260D01*
X0245520Y0659100D01*
X0245200Y0658980D01*
X0244860Y0658900D01*
X0244520Y0658860D01*
X0244180Y0658860D01*
X0243840Y0658900D01*
X0243500Y0658980D01*
X0243180Y0659100D01*
X0242870Y0659260D01*
X0242590Y0659440D01*
X0242330Y0659660D01*
X0242090Y0659910D01*
X0241890Y0660190D01*
X0241710Y0660490D01*
X0241580Y0660800D01*
X0241480Y0661130D01*
X0241420Y0661470D01*
X0241400Y0661810D01*
X0286220Y0522440D02*
G75*
%LPD*%
D340*
X0286220Y0522440D02*
X0364960Y0522440D01*
X0364960Y0561810D01*
X0343310Y0679920D01*
X0307870Y0679920D01*
X0286220Y0561810D01*
X0286220Y0522440D01*
X0292130Y0537400D02*
X0292130Y0542130D01*
X0292120Y0542130D02*
X0292140Y0542520D01*
X0292200Y0542900D01*
X0292290Y0543270D01*
X0292420Y0543640D01*
X0292590Y0543990D01*
X0292780Y0544320D01*
X0293010Y0544630D01*
X0293270Y0544920D01*
X0293560Y0545180D01*
X0293870Y0545410D01*
X0294200Y0545600D01*
X0294550Y0545770D01*
X0294920Y0545900D01*
X0295290Y0545990D01*
X0295670Y0546050D01*
X0296060Y0546070D01*
X0296060Y0546060D02*
X0303940Y0546060D01*
X0303930Y0546060D02*
X0303950Y0546330D01*
X0304000Y0546590D01*
X0304090Y0546840D01*
X0304220Y0547080D01*
X0304370Y0547300D01*
X0304560Y0547500D01*
X0304760Y0547670D01*
X0304990Y0547810D01*
X0305240Y0547920D01*
X0305500Y0547990D01*
X0305770Y0548030D01*
X0306030Y0548030D01*
X0306300Y0547990D01*
X0306560Y0547920D01*
X0306810Y0547810D01*
X0307040Y0547670D01*
X0307240Y0547500D01*
X0307430Y0547300D01*
X0307580Y0547080D01*
X0307710Y0546840D01*
X0307800Y0546590D01*
X0307850Y0546330D01*
X0307870Y0546060D01*
X0319680Y0546060D01*
X0319680Y0553940D01*
X0319700Y0554330D01*
X0319760Y0554710D01*
X0319850Y0555080D01*
X0319980Y0555450D01*
X0320150Y0555800D01*
X0320340Y0556130D01*
X0320570Y0556440D01*
X0320830Y0556730D01*
X0321120Y0556990D01*
X0321430Y0557220D01*
X0321760Y0557410D01*
X0322110Y0557580D01*
X0322480Y0557710D01*
X0322850Y0557800D01*
X0323230Y0557860D01*
X0323620Y0557880D01*
X0323620Y0557870D02*
X0327560Y0557870D01*
X0327560Y0557880D02*
X0327950Y0557860D01*
X0328330Y0557800D01*
X0328700Y0557710D01*
X0329070Y0557580D01*
X0329420Y0557410D01*
X0329750Y0557220D01*
X0330060Y0556990D01*
X0330350Y0556730D01*
X0330610Y0556440D01*
X0330840Y0556130D01*
X0331030Y0555800D01*
X0331200Y0555450D01*
X0331330Y0555080D01*
X0331420Y0554710D01*
X0331480Y0554330D01*
X0331500Y0553940D01*
X0331500Y0546060D01*
X0343310Y0546060D01*
X0343330Y0546330D01*
X0343380Y0546590D01*
X0343470Y0546840D01*
X0343600Y0547080D01*
X0343750Y0547300D01*
X0343940Y0547500D01*
X0344140Y0547670D01*
X0344370Y0547810D01*
X0344620Y0547920D01*
X0344880Y0547990D01*
X0345150Y0548030D01*
X0345410Y0548030D01*
X0345680Y0547990D01*
X0345940Y0547920D01*
X0346190Y0547810D01*
X0346420Y0547670D01*
X0346620Y0547500D01*
X0346810Y0547300D01*
X0346960Y0547080D01*
X0347090Y0546840D01*
X0347180Y0546590D01*
X0347230Y0546330D01*
X0347250Y0546060D01*
X0347240Y0546060D02*
X0355120Y0546060D01*
X0355120Y0546070D02*
X0355510Y0546050D01*
X0355890Y0545990D01*
X0356260Y0545900D01*
X0356630Y0545770D01*
X0356980Y0545600D01*
X0357310Y0545410D01*
X0357620Y0545180D01*
X0357910Y0544920D01*
X0358170Y0544630D01*
X0358400Y0544320D01*
X0358590Y0543990D01*
X0358760Y0543640D01*
X0358890Y0543270D01*
X0358980Y0542900D01*
X0359040Y0542520D01*
X0359060Y0542130D01*
X0359050Y0542130D02*
X0359050Y0537400D01*
X0359060Y0537400D02*
X0359040Y0537010D01*
X0358980Y0536630D01*
X0358890Y0536260D01*
X0358760Y0535890D01*
X0358590Y0535540D01*
X0358400Y0535210D01*
X0358170Y0534900D01*
X0357910Y0534610D01*
X0357620Y0534350D01*
X0357310Y0534120D01*
X0356980Y0533930D01*
X0356630Y0533760D01*
X0356260Y0533630D01*
X0355890Y0533540D01*
X0355510Y0533480D01*
X0355120Y0533460D01*
X0347240Y0533460D01*
X0347250Y0533460D02*
X0347230Y0533190D01*
X0347180Y0532930D01*
X0347090Y0532680D01*
X0346960Y0532440D01*
X0346810Y0532220D01*
X0346620Y0532020D01*
X0346420Y0531850D01*
X0346190Y0531710D01*
X0345940Y0531600D01*
X0345680Y0531530D01*
X0345410Y0531490D01*
X0345150Y0531490D01*
X0344880Y0531530D01*
X0344620Y0531600D01*
X0344370Y0531710D01*
X0344140Y0531850D01*
X0343940Y0532020D01*
X0343750Y0532220D01*
X0343600Y0532440D01*
X0343470Y0532680D01*
X0343380Y0532930D01*
X0343330Y0533190D01*
X0343310Y0533460D01*
X0307870Y0533460D01*
X0307850Y0533190D01*
X0307800Y0532930D01*
X0307710Y0532680D01*
X0307580Y0532440D01*
X0307430Y0532220D01*
X0307240Y0532020D01*
X0307040Y0531850D01*
X0306810Y0531710D01*
X0306560Y0531600D01*
X0306300Y0531530D01*
X0306030Y0531490D01*
X0305770Y0531490D01*
X0305500Y0531530D01*
X0305240Y0531600D01*
X0304990Y0531710D01*
X0304760Y0531850D01*
X0304560Y0532020D01*
X0304370Y0532220D01*
X0304220Y0532440D01*
X0304090Y0532680D01*
X0304000Y0532930D01*
X0303950Y0533190D01*
X0303930Y0533460D01*
X0303940Y0533460D02*
X0296060Y0533460D01*
X0295670Y0533480D01*
X0295290Y0533540D01*
X0294920Y0533630D01*
X0294550Y0533760D01*
X0294200Y0533930D01*
X0293870Y0534120D01*
X0293560Y0534350D01*
X0293270Y0534610D01*
X0293010Y0534900D01*
X0292780Y0535210D01*
X0292590Y0535540D01*
X0292420Y0535890D01*
X0292290Y0536260D01*
X0292200Y0536630D01*
X0292140Y0537010D01*
X0292120Y0537400D01*
X0315140Y0661810D02*
X0315160Y0662150D01*
X0315220Y0662490D01*
X0315320Y0662820D01*
X0315450Y0663130D01*
X0315630Y0663430D01*
X0315830Y0663710D01*
X0316070Y0663960D01*
X0316330Y0664180D01*
X0316610Y0664360D01*
X0316920Y0664520D01*
X0317240Y0664640D01*
X0317580Y0664720D01*
X0317920Y0664760D01*
X0318260Y0664760D01*
X0318600Y0664720D01*
X0318940Y0664640D01*
X0319260Y0664520D01*
X0319560Y0664360D01*
X0319850Y0664180D01*
X0320110Y0663960D01*
X0320350Y0663710D01*
X0320550Y0663430D01*
X0320730Y0663130D01*
X0320860Y0662820D01*
X0320960Y0662490D01*
X0321020Y0662150D01*
X0321040Y0661810D01*
X0321020Y0661470D01*
X0320960Y0661130D01*
X0320860Y0660800D01*
X0320730Y0660490D01*
X0320550Y0660190D01*
X0320350Y0659910D01*
X0320110Y0659660D01*
X0319850Y0659440D01*
X0319570Y0659260D01*
X0319260Y0659100D01*
X0318940Y0658980D01*
X0318600Y0658900D01*
X0318260Y0658860D01*
X0317920Y0658860D01*
X0317580Y0658900D01*
X0317240Y0658980D01*
X0316920Y0659100D01*
X0316610Y0659260D01*
X0316330Y0659440D01*
X0316070Y0659660D01*
X0315830Y0659910D01*
X0315630Y0660190D01*
X0315450Y0660490D01*
X0315320Y0660800D01*
X0315220Y0661130D01*
X0315160Y0661470D01*
X0315140Y0661810D01*
X0330140Y0661810D02*
X0330160Y0662150D01*
X0330220Y0662490D01*
X0330320Y0662820D01*
X0330450Y0663130D01*
X0330630Y0663430D01*
X0330830Y0663710D01*
X0331070Y0663960D01*
X0331330Y0664180D01*
X0331610Y0664360D01*
X0331920Y0664520D01*
X0332240Y0664640D01*
X0332580Y0664720D01*
X0332920Y0664760D01*
X0333260Y0664760D01*
X0333600Y0664720D01*
X0333940Y0664640D01*
X0334260Y0664520D01*
X0334560Y0664360D01*
X0334850Y0664180D01*
X0335110Y0663960D01*
X0335350Y0663710D01*
X0335550Y0663430D01*
X0335730Y0663130D01*
X0335860Y0662820D01*
X0335960Y0662490D01*
X0336020Y0662150D01*
X0336040Y0661810D01*
X0336020Y0661470D01*
X0335960Y0661130D01*
X0335860Y0660800D01*
X0335730Y0660490D01*
X0335550Y0660190D01*
X0335350Y0659910D01*
X0335110Y0659660D01*
X0334850Y0659440D01*
X0334570Y0659260D01*
X0334260Y0659100D01*
X0333940Y0658980D01*
X0333600Y0658900D01*
X0333260Y0658860D01*
X0332920Y0658860D01*
X0332580Y0658900D01*
X0332240Y0658980D01*
X0331920Y0659100D01*
X0331610Y0659260D01*
X0331330Y0659440D01*
X0331070Y0659660D01*
X0330830Y0659910D01*
X0330630Y0660190D01*
X0330450Y0660490D01*
X0330320Y0660800D01*
X0330220Y0661130D01*
X0330160Y0661470D01*
X0330140Y0661810D01*
X0020000Y0689920D02*
G75*
%LPD*%
D340*
X0362520Y0689920D02*
X0031810Y0689920D01*
X0031150Y0689940D01*
X0030490Y0689990D01*
X0029830Y0690090D01*
X0029180Y0690220D01*
X0028540Y0690380D01*
X0027910Y0690580D01*
X0027290Y0690820D01*
X0026690Y0691090D01*
X0026100Y0691390D01*
X0025530Y0691730D01*
X0024980Y0692100D01*
X0024450Y0692500D01*
X0023940Y0692920D01*
X0023460Y0693380D01*
X0023000Y0693860D01*
X0022580Y0694370D01*
X0022180Y0694900D01*
X0021810Y0695450D01*
X0021470Y0696020D01*
X0021170Y0696610D01*
X0020900Y0697210D01*
X0020660Y0697830D01*
X0020460Y0698460D01*
X0020300Y0699100D01*
X0020170Y0699750D01*
X0020070Y0700410D01*
X0020020Y0701070D01*
X0020000Y0701730D01*
X0020000Y0914330D01*
X0020020Y0914990D01*
X0020070Y0915650D01*
X0020170Y0916310D01*
X0020300Y0916960D01*
X0020460Y0917600D01*
X0020660Y0918230D01*
X0020900Y0918850D01*
X0021170Y0919450D01*
X0021470Y0920040D01*
X0021810Y0920610D01*
X0022180Y0921160D01*
X0022580Y0921690D01*
X0023000Y0922200D01*
X0023460Y0922680D01*
X0023940Y0923140D01*
X0024450Y0923560D01*
X0024980Y0923960D01*
X0025530Y0924330D01*
X0026100Y0924670D01*
X0026690Y0924970D01*
X0027290Y0925240D01*
X0027910Y0925480D01*
X0028540Y0925680D01*
X0029180Y0925840D01*
X0029830Y0925970D01*
X0030490Y0926070D01*
X0031150Y0926120D01*
X0031810Y0926140D01*
X0362520Y0926140D01*
X0363180Y0926120D01*
X0363840Y0926070D01*
X0364500Y0925970D01*
X0365150Y0925840D01*
X0365790Y0925680D01*
X0366420Y0925480D01*
X0367040Y0925240D01*
X0367640Y0924970D01*
X0368230Y0924670D01*
X0368800Y0924330D01*
X0369350Y0923960D01*
X0369880Y0923560D01*
X0370390Y0923140D01*
X0370870Y0922680D01*
X0371330Y0922200D01*
X0371750Y0921690D01*
X0372150Y0921160D01*
X0372520Y0920610D01*
X0372860Y0920040D01*
X0373160Y0919450D01*
X0373430Y0918850D01*
X0373670Y0918230D01*
X0373870Y0917600D01*
X0374030Y0916960D01*
X0374160Y0916310D01*
X0374260Y0915650D01*
X0374310Y0914990D01*
X0374330Y0914330D01*
X0374330Y0701730D01*
X0374310Y0701070D01*
X0374260Y0700410D01*
X0374160Y0699750D01*
X0374030Y0699100D01*
X0373870Y0698460D01*
X0373670Y0697830D01*
X0373430Y0697210D01*
X0373160Y0696610D01*
X0372860Y0696020D01*
X0372520Y0695450D01*
X0372150Y0694900D01*
X0371750Y0694370D01*
X0371330Y0693860D01*
X0370870Y0693380D01*
X0370390Y0692920D01*
X0369880Y0692500D01*
X0369350Y0692100D01*
X0368800Y0691730D01*
X0368230Y0691390D01*
X0367640Y0691090D01*
X0367040Y0690820D01*
X0366420Y0690580D01*
X0365790Y0690380D01*
X0365150Y0690220D01*
X0364500Y0690090D01*
X0363840Y0689990D01*
X0363180Y0689940D01*
X0362520Y0689920D01*
M02*
