%
M48
M72
T01C0.0157
T02C0.0197
T03C0.0236
T04C0.0400
T05C0.0591
%
T01
X5400Y6831
T02
X5775Y7581
X4150Y8831
X3150Y10956
X2525Y8956
T03
X900Y3456
X1025Y4831
X2150Y3831
X2900Y3456
X1525Y7331
X2025Y10331
X2400Y12331
X3150Y13331
X4150Y13331
X5150Y13331
X5900Y12331
X6150Y10331
X6150Y9831
X6525Y8831
X7275Y4831
X7400Y3456
X6150Y3831
X5400Y3456
X5150Y15331
X4150Y15331
X3150Y15331
T04
X3650Y12331
X4650Y12331
X4150Y5831
X5150Y5831
X5150Y4581
X6150Y5831
X3150Y5831
X3150Y4581
X2150Y5831
T05
X3400Y14331
X4900Y14331
M30
