%
M48
M72
T01C0.0157
T02C0.0197
T03C0.0236
T04C0.0400
T05C0.0472
T06C0.0591
%
T01
X5400Y4650
T02
X5775Y5400
X4150Y6650
X3150Y8650
X2525Y6775
T03
X900Y1150
X900Y1900
X1650Y1150
X2150Y1650
X2150Y8150
X3150Y11150
X4150Y11150
X5150Y11150
X5150Y13150
X4150Y13150
X3150Y13150
X6150Y8150
X6150Y7650
X7400Y1900
X7400Y1150
X6650Y1150
X6150Y1650
T04
X5150Y2400
X5150Y3650
X4150Y3650
X3150Y3650
X3150Y2400
X2150Y3650
X3650Y10150
X4650Y10150
X6150Y3650
T05
X5650Y900
X2650Y900
T06
X3400Y12150
X4900Y12150
M30
