G75*
G70*
%OFA0B0*%
%FSLAX24Y24*%
%IPPOS*%
%LPD*%
%AMOC8*
5,1,8,0,0,1.08239X$1,22.5*
%
%ADD10R,0.0610X0.0236*%
%ADD11R,0.0276X0.0433*%
%ADD12R,0.0315X0.0315*%
%ADD13R,0.0740X0.0740*%
%ADD14C,0.0740*%
%ADD15C,0.0750*%
%ADD16R,0.1400X0.0591*%
%ADD17C,0.0240*%
%ADD18C,0.0160*%
%ADD19C,0.0357*%
%ADD20C,0.0320*%
%ADD21C,0.0317*%
%ADD22C,0.0396*%
%ADD23C,0.0100*%
D10*
X003087Y005400D03*
X003087Y005900D03*
X003087Y006400D03*
X003087Y006900D03*
X005213Y006900D03*
X005213Y006400D03*
X005213Y005900D03*
X005213Y005400D03*
D11*
X003945Y004650D03*
X003355Y004650D03*
X003445Y007650D03*
X003445Y008150D03*
X003855Y008150D03*
X003855Y007650D03*
X004445Y007650D03*
X004445Y008150D03*
X004855Y008150D03*
X004855Y007650D03*
X005445Y007650D03*
X005445Y008150D03*
X002855Y008150D03*
X002855Y007650D03*
D12*
X003707Y009150D03*
X004593Y009150D03*
X004355Y004650D03*
X004945Y004650D03*
D13*
X003150Y002400D03*
X002150Y003650D03*
X003650Y010150D03*
D14*
X004650Y010150D03*
X004150Y003650D03*
X005150Y003650D03*
X006150Y003650D03*
X003150Y003650D03*
D15*
X005150Y002400D03*
D16*
X005650Y002400D03*
X002650Y002400D03*
D17*
X003150Y002400D01*
X002150Y003650D02*
X002150Y005150D01*
X002400Y005400D01*
X002150Y005650D01*
X002150Y006150D01*
X002150Y007150D01*
X002650Y007650D01*
X002855Y007650D01*
X002855Y008150D01*
X003445Y007650D02*
X003650Y007650D01*
X003650Y007150D01*
X003400Y006900D01*
X003087Y006900D01*
X003650Y007650D02*
X003855Y007650D01*
X003855Y008150D01*
X003855Y009002D01*
X003707Y009150D01*
X003650Y009207D01*
X003650Y010150D01*
X004593Y009150D02*
X004445Y009002D01*
X004445Y008150D01*
X004445Y007650D01*
X004445Y007230D01*
X004588Y007088D01*
X004775Y006900D01*
X005650Y006900D01*
X005775Y006775D01*
X005775Y006525D01*
X006525Y005775D01*
X006525Y004150D01*
X006588Y004088D01*
X006775Y003900D01*
X006775Y002650D01*
X006525Y002400D01*
X005150Y002400D01*
X005650Y002400D01*
X004355Y004650D02*
X003945Y004650D01*
X003650Y005150D02*
X003355Y004855D01*
X003355Y004650D01*
X003650Y005150D02*
X003650Y005775D01*
X003525Y005900D01*
X003087Y005900D01*
X003087Y005400D02*
X002400Y005400D01*
X003087Y005400D01*
X004775Y006900D02*
X005213Y006900D01*
X004593Y009150D02*
X004650Y009207D01*
X004650Y010150D01*
D18*
X003150Y008650D02*
X003445Y008355D01*
X003445Y008150D01*
X003087Y006900D02*
X002650Y006900D01*
X002525Y006775D01*
X004150Y006650D02*
X004588Y007088D01*
X004900Y006400D02*
X004650Y006150D01*
X004400Y005900D01*
X004400Y005150D01*
X004525Y005025D01*
X005525Y005025D01*
X005775Y004775D01*
X005775Y004400D01*
X005150Y003650D01*
X004650Y004150D02*
X004945Y004445D01*
X004945Y004650D01*
X005400Y004650D01*
X005213Y005400D02*
X005775Y005400D01*
X006150Y005650D02*
X005900Y005900D01*
X005213Y005900D01*
X005213Y006400D02*
X004900Y006400D01*
X006150Y005650D02*
X006150Y003650D01*
X004650Y004150D02*
X004150Y003650D01*
D19*
X005775Y005400D03*
X004150Y006650D03*
X003150Y008650D03*
X002525Y006775D03*
D20*
X004445Y008150D02*
X004855Y008150D01*
X004855Y007650D01*
D21*
X005400Y004650D03*
D22*
X000900Y001150D03*
X000900Y001900D03*
X001650Y001150D03*
X002150Y001650D03*
X002150Y008150D03*
X003150Y011150D03*
X004150Y011150D03*
X005150Y011150D03*
X005150Y013150D03*
X004150Y013150D03*
X003150Y013150D03*
X006150Y008150D03*
X006150Y007650D03*
X007400Y001900D03*
X007400Y001150D03*
X006650Y001150D03*
X006150Y001650D03*
D23*
X006400Y007400D02*
X005729Y007400D01*
X005733Y007414D01*
X005733Y007631D01*
X005464Y007631D01*
X005464Y007669D01*
X005426Y007669D01*
X005426Y008017D01*
X005426Y008131D01*
X005464Y008131D01*
X005464Y007669D01*
X005733Y007669D01*
X005733Y007886D01*
X005729Y007900D01*
X005733Y007914D01*
X005733Y008131D01*
X005464Y008131D01*
X005464Y008169D01*
X005733Y008169D01*
X005733Y008386D01*
X005729Y008400D01*
X006400Y008400D01*
X006400Y007400D01*
X006400Y007469D02*
X005733Y007469D01*
X005733Y007568D02*
X006400Y007568D01*
X006400Y007666D02*
X005464Y007666D01*
X005464Y007765D02*
X005426Y007765D01*
X005426Y007863D02*
X005464Y007863D01*
X005464Y007962D02*
X005426Y007962D01*
X005426Y008060D02*
X005464Y008060D01*
X005464Y008159D02*
X006400Y008159D01*
X006400Y008257D02*
X005733Y008257D01*
X005733Y008356D02*
X006400Y008356D01*
X006400Y008060D02*
X005733Y008060D01*
X005733Y007962D02*
X006400Y007962D01*
X006400Y007863D02*
X005733Y007863D01*
X005733Y007765D02*
X006400Y007765D01*
M02*
