G75*
G70*
%OFA0B0*%
%FSLAX24Y24*%
%IPPOS*%
%LPD*%
%AMOC8*
5,1,8,0,0,1.08239X$1,22.5*
%
%ADD10R,0.0740X0.0740*%
%ADD11C,0.0740*%
%ADD12C,0.0750*%
%ADD13C,0.0357*%
%ADD14C,0.0160*%
%ADD15C,0.0317*%
%ADD16C,0.0100*%
%ADD17C,0.0396*%
D10*
X002150Y003650D03*
X003150Y002400D03*
X003650Y010150D03*
D11*
X004650Y010150D03*
X004150Y003650D03*
X005150Y003650D03*
X006150Y003650D03*
X003150Y003650D03*
D12*
X005150Y002400D03*
D13*
X005775Y005400D03*
X004150Y006650D03*
X003150Y008650D03*
X002525Y006775D03*
D14*
X002525Y004775D01*
X002650Y004650D01*
X003150Y004150D01*
X003150Y003650D01*
X003650Y004150D02*
X003650Y002650D01*
X003400Y002400D01*
X003150Y002400D01*
X003650Y004150D02*
X004150Y004650D01*
X004150Y005150D01*
X004400Y005400D01*
X005775Y005400D01*
X005400Y004650D02*
X005400Y004400D01*
X005650Y004150D01*
X005650Y002900D01*
X005150Y002400D01*
X004150Y006650D02*
X004445Y006945D01*
X004445Y008150D01*
X003945Y008650D01*
X003150Y008650D01*
D15*
X005400Y004650D03*
D16*
X000663Y002109D02*
X000663Y000631D01*
X002018Y000631D01*
X001964Y000764D01*
X001964Y001036D01*
X002068Y001289D01*
X002261Y001482D01*
X002514Y001586D01*
X002675Y001586D01*
X002525Y001649D01*
X002399Y001775D01*
X002330Y001940D01*
X002330Y002830D01*
X001690Y002830D01*
X001525Y002899D01*
X001399Y003025D01*
X001330Y003190D01*
X001330Y004110D01*
X001399Y004275D01*
X001525Y004401D01*
X001690Y004470D01*
X002080Y004470D01*
X002076Y004475D01*
X001995Y004670D01*
X001995Y006416D01*
X001992Y006419D01*
X001897Y006650D01*
X001897Y006900D01*
X001992Y007131D01*
X002169Y007308D01*
X002400Y007403D01*
X002650Y007403D01*
X002800Y007341D01*
X002800Y007441D01*
X002859Y007500D01*
X003915Y007500D01*
X003915Y007930D01*
X003726Y008120D01*
X003509Y008120D01*
X003506Y008117D01*
X003275Y008022D01*
X003025Y008022D01*
X002794Y008117D01*
X002617Y008294D01*
X002522Y008525D01*
X002522Y008775D01*
X002617Y009006D01*
X002794Y009183D01*
X003025Y009278D01*
X003275Y009278D01*
X003506Y009183D01*
X003509Y009180D01*
X004051Y009180D01*
X004245Y009099D01*
X004745Y008599D01*
X004895Y008450D01*
X004975Y008255D01*
X004975Y007500D01*
X005691Y007500D01*
X005750Y007441D01*
X005750Y006028D01*
X005900Y006028D01*
X006131Y005933D01*
X006308Y005756D01*
X006403Y005525D01*
X006403Y005275D01*
X006308Y005044D01*
X006131Y004867D01*
X005993Y004810D01*
X006009Y004771D01*
X006009Y004541D01*
X006080Y004470D01*
X006313Y004470D01*
X006614Y004345D01*
X006845Y004114D01*
X006970Y003813D01*
X006970Y003487D01*
X006845Y003186D01*
X006614Y002955D01*
X006313Y002830D01*
X006180Y002830D01*
X006180Y002795D01*
X006099Y002600D01*
X005975Y002475D01*
X005975Y002236D01*
X005849Y001933D01*
X005617Y001701D01*
X005314Y001575D01*
X005131Y001575D01*
X005243Y001463D01*
X005261Y001482D01*
X005514Y001586D01*
X005786Y001586D01*
X006039Y001482D01*
X006232Y001289D01*
X006336Y001036D01*
X006336Y000764D01*
X006282Y000631D01*
X007637Y000631D01*
X007637Y002109D01*
X005547Y013511D01*
X002753Y013511D01*
X000663Y002109D01*
X000670Y002150D02*
X002330Y002150D01*
X002330Y002249D02*
X000689Y002249D01*
X000707Y002347D02*
X002330Y002347D01*
X002330Y002446D02*
X000725Y002446D01*
X000743Y002544D02*
X002330Y002544D01*
X002330Y002643D02*
X000761Y002643D01*
X000779Y002741D02*
X002330Y002741D01*
X002330Y002051D02*
X000663Y002051D01*
X000663Y001953D02*
X002330Y001953D01*
X002366Y001854D02*
X000663Y001854D01*
X000663Y001756D02*
X002418Y001756D01*
X002516Y001657D02*
X000663Y001657D01*
X000663Y001559D02*
X002448Y001559D01*
X002240Y001460D02*
X000663Y001460D01*
X000663Y001362D02*
X002142Y001362D01*
X002058Y001263D02*
X000663Y001263D01*
X000663Y001165D02*
X002017Y001165D01*
X001976Y001066D02*
X000663Y001066D01*
X000663Y000968D02*
X001964Y000968D01*
X001964Y000869D02*
X000663Y000869D01*
X000663Y000771D02*
X001964Y000771D01*
X002001Y000672D02*
X000663Y000672D01*
X000797Y002840D02*
X001668Y002840D01*
X001486Y002938D02*
X000815Y002938D01*
X000833Y003037D02*
X001394Y003037D01*
X001353Y003135D02*
X000851Y003135D01*
X000869Y003234D02*
X001330Y003234D01*
X001330Y003332D02*
X000887Y003332D01*
X000905Y003431D02*
X001330Y003431D01*
X001330Y003529D02*
X000923Y003529D01*
X000941Y003628D02*
X001330Y003628D01*
X001330Y003726D02*
X000959Y003726D01*
X000977Y003825D02*
X001330Y003825D01*
X001330Y003923D02*
X000996Y003923D01*
X001014Y004022D02*
X001330Y004022D01*
X001334Y004120D02*
X001032Y004120D01*
X001050Y004219D02*
X001375Y004219D01*
X001441Y004317D02*
X001068Y004317D01*
X001086Y004416D02*
X001559Y004416D01*
X001176Y004908D02*
X001995Y004908D01*
X001995Y004810D02*
X001158Y004810D01*
X001140Y004711D02*
X001995Y004711D01*
X002019Y004613D02*
X001122Y004613D01*
X001104Y004514D02*
X002059Y004514D01*
X001995Y005007D02*
X001194Y005007D01*
X001212Y005105D02*
X001995Y005105D01*
X001995Y005204D02*
X001230Y005204D01*
X001248Y005302D02*
X001995Y005302D01*
X001995Y005401D02*
X001266Y005401D01*
X001284Y005499D02*
X001995Y005499D01*
X001995Y005598D02*
X001303Y005598D01*
X001321Y005696D02*
X001995Y005696D01*
X001995Y005795D02*
X001339Y005795D01*
X001357Y005893D02*
X001995Y005893D01*
X001995Y005992D02*
X001375Y005992D01*
X001393Y006090D02*
X001995Y006090D01*
X001995Y006189D02*
X001411Y006189D01*
X001429Y006287D02*
X001995Y006287D01*
X001995Y006386D02*
X001447Y006386D01*
X001465Y006484D02*
X001965Y006484D01*
X001925Y006583D02*
X001483Y006583D01*
X001501Y006681D02*
X001897Y006681D01*
X001897Y006780D02*
X001519Y006780D01*
X001537Y006878D02*
X001897Y006878D01*
X001928Y006977D02*
X001555Y006977D01*
X001573Y007075D02*
X001969Y007075D01*
X002035Y007174D02*
X001591Y007174D01*
X001610Y007272D02*
X002133Y007272D01*
X002321Y007371D02*
X001628Y007371D01*
X001646Y007469D02*
X002828Y007469D01*
X002800Y007371D02*
X002729Y007371D01*
X002932Y008060D02*
X001754Y008060D01*
X001736Y007962D02*
X003884Y007962D01*
X003915Y007863D02*
X001718Y007863D01*
X001700Y007765D02*
X003915Y007765D01*
X003915Y007666D02*
X001682Y007666D01*
X001664Y007568D02*
X003915Y007568D01*
X003786Y008060D02*
X003368Y008060D01*
X002753Y008159D02*
X001772Y008159D01*
X001790Y008257D02*
X002654Y008257D01*
X002592Y008356D02*
X001808Y008356D01*
X001826Y008454D02*
X002551Y008454D01*
X002522Y008553D02*
X001844Y008553D01*
X001862Y008651D02*
X002522Y008651D01*
X002522Y008750D02*
X001880Y008750D01*
X001898Y008848D02*
X002552Y008848D01*
X002593Y008947D02*
X001917Y008947D01*
X001935Y009045D02*
X002656Y009045D01*
X002755Y009144D02*
X001953Y009144D01*
X001971Y009242D02*
X002937Y009242D01*
X003025Y009399D02*
X003190Y009330D01*
X004110Y009330D01*
X004275Y009399D01*
X004289Y009412D01*
X004487Y009330D01*
X004813Y009330D01*
X005114Y009455D01*
X005345Y009686D01*
X005470Y009987D01*
X005470Y010313D01*
X005345Y010614D01*
X005114Y010845D01*
X004813Y010970D01*
X004487Y010970D01*
X004289Y010888D01*
X004275Y010901D01*
X004110Y010970D01*
X003190Y010970D01*
X003025Y010901D01*
X002899Y010775D01*
X002830Y010610D01*
X002830Y009690D01*
X002899Y009525D01*
X003025Y009399D01*
X002985Y009439D02*
X002007Y009439D01*
X002025Y009538D02*
X002893Y009538D01*
X002853Y009636D02*
X002043Y009636D01*
X002061Y009735D02*
X002830Y009735D01*
X002830Y009833D02*
X002079Y009833D01*
X002097Y009932D02*
X002830Y009932D01*
X002830Y010030D02*
X002115Y010030D01*
X002133Y010129D02*
X002830Y010129D01*
X002830Y010227D02*
X002151Y010227D01*
X002169Y010326D02*
X002830Y010326D01*
X002830Y010424D02*
X002187Y010424D01*
X002205Y010523D02*
X002830Y010523D01*
X002835Y010621D02*
X002224Y010621D01*
X002242Y010720D02*
X002876Y010720D01*
X002942Y010818D02*
X002260Y010818D01*
X002278Y010917D02*
X003061Y010917D01*
X003252Y011405D02*
X003548Y011405D01*
X003822Y011518D01*
X004032Y011728D01*
X004145Y012002D01*
X004145Y012298D01*
X004032Y012572D01*
X003822Y012782D01*
X003548Y012895D01*
X003252Y012895D01*
X002978Y012782D01*
X002768Y012572D01*
X002655Y012298D01*
X002655Y012002D01*
X002768Y011728D01*
X002978Y011518D01*
X003252Y011405D01*
X003241Y011409D02*
X002368Y011409D01*
X002350Y011311D02*
X005950Y011311D01*
X005932Y011409D02*
X005059Y011409D01*
X005048Y011405D02*
X005322Y011518D01*
X005532Y011728D01*
X005645Y012002D01*
X005645Y012298D01*
X005532Y012572D01*
X005322Y012782D01*
X005048Y012895D01*
X004752Y012895D01*
X004478Y012782D01*
X004268Y012572D01*
X004155Y012298D01*
X004155Y012002D01*
X004268Y011728D01*
X004478Y011518D01*
X004752Y011405D01*
X005048Y011405D01*
X005296Y011508D02*
X005914Y011508D01*
X005896Y011606D02*
X005410Y011606D01*
X005509Y011705D02*
X005878Y011705D01*
X005860Y011803D02*
X005563Y011803D01*
X005604Y011902D02*
X005842Y011902D01*
X005824Y012000D02*
X005645Y012000D01*
X005645Y012099D02*
X005806Y012099D01*
X005788Y012197D02*
X005645Y012197D01*
X005645Y012296D02*
X005769Y012296D01*
X005751Y012394D02*
X005606Y012394D01*
X005565Y012493D02*
X005733Y012493D01*
X005715Y012591D02*
X005513Y012591D01*
X005414Y012690D02*
X005697Y012690D01*
X005679Y012788D02*
X005307Y012788D01*
X005069Y012887D02*
X005661Y012887D01*
X005643Y012985D02*
X002657Y012985D01*
X002639Y012887D02*
X003231Y012887D01*
X002993Y012788D02*
X002621Y012788D01*
X002603Y012690D02*
X002886Y012690D01*
X002787Y012591D02*
X002585Y012591D01*
X002567Y012493D02*
X002735Y012493D01*
X002694Y012394D02*
X002549Y012394D01*
X002531Y012296D02*
X002655Y012296D01*
X002655Y012197D02*
X002512Y012197D01*
X002494Y012099D02*
X002655Y012099D01*
X002655Y012000D02*
X002476Y012000D01*
X002458Y011902D02*
X002696Y011902D01*
X002737Y011803D02*
X002440Y011803D01*
X002422Y011705D02*
X002791Y011705D01*
X002890Y011606D02*
X002404Y011606D01*
X002386Y011508D02*
X003004Y011508D01*
X003559Y011409D02*
X004741Y011409D01*
X004504Y011508D02*
X003796Y011508D01*
X003910Y011606D02*
X004390Y011606D01*
X004291Y011705D02*
X004009Y011705D01*
X004063Y011803D02*
X004237Y011803D01*
X004196Y011902D02*
X004104Y011902D01*
X004145Y012000D02*
X004155Y012000D01*
X004145Y012099D02*
X004155Y012099D01*
X004145Y012197D02*
X004155Y012197D01*
X004145Y012296D02*
X004155Y012296D01*
X004194Y012394D02*
X004106Y012394D01*
X004065Y012493D02*
X004235Y012493D01*
X004287Y012591D02*
X004013Y012591D01*
X003914Y012690D02*
X004386Y012690D01*
X004493Y012788D02*
X003807Y012788D01*
X003569Y012887D02*
X004731Y012887D01*
X005553Y013478D02*
X002747Y013478D01*
X002729Y013379D02*
X005571Y013379D01*
X005589Y013281D02*
X002711Y013281D01*
X002693Y013182D02*
X005607Y013182D01*
X005625Y013084D02*
X002675Y013084D01*
X002332Y011212D02*
X005968Y011212D01*
X005986Y011114D02*
X002314Y011114D01*
X002296Y011015D02*
X006004Y011015D01*
X006022Y010917D02*
X004942Y010917D01*
X005142Y010818D02*
X006040Y010818D01*
X006058Y010720D02*
X005240Y010720D01*
X005339Y010621D02*
X006076Y010621D01*
X006095Y010523D02*
X005383Y010523D01*
X005424Y010424D02*
X006113Y010424D01*
X006131Y010326D02*
X005465Y010326D01*
X005470Y010227D02*
X006149Y010227D01*
X006167Y010129D02*
X005470Y010129D01*
X005470Y010030D02*
X006185Y010030D01*
X006203Y009932D02*
X005447Y009932D01*
X005406Y009833D02*
X006221Y009833D01*
X006239Y009735D02*
X005365Y009735D01*
X005296Y009636D02*
X006257Y009636D01*
X006275Y009538D02*
X005197Y009538D01*
X005076Y009439D02*
X006293Y009439D01*
X006311Y009341D02*
X004839Y009341D01*
X004497Y008848D02*
X006402Y008848D01*
X006420Y008750D02*
X004595Y008750D01*
X004694Y008651D02*
X006438Y008651D01*
X006456Y008553D02*
X004792Y008553D01*
X004891Y008454D02*
X006474Y008454D01*
X006492Y008356D02*
X004934Y008356D01*
X004975Y008257D02*
X006510Y008257D01*
X006528Y008159D02*
X004975Y008159D01*
X004975Y008060D02*
X006546Y008060D01*
X006564Y007962D02*
X004975Y007962D01*
X004975Y007863D02*
X006582Y007863D01*
X006600Y007765D02*
X004975Y007765D01*
X004975Y007666D02*
X006618Y007666D01*
X006636Y007568D02*
X004975Y007568D01*
X005722Y007469D02*
X006654Y007469D01*
X006672Y007371D02*
X005750Y007371D01*
X005750Y007272D02*
X006690Y007272D01*
X006709Y007174D02*
X005750Y007174D01*
X005750Y007075D02*
X006727Y007075D01*
X006745Y006977D02*
X005750Y006977D01*
X005750Y006878D02*
X006763Y006878D01*
X006781Y006780D02*
X005750Y006780D01*
X005750Y006681D02*
X006799Y006681D01*
X006817Y006583D02*
X005750Y006583D01*
X005750Y006484D02*
X006835Y006484D01*
X006853Y006386D02*
X005750Y006386D01*
X005750Y006287D02*
X006871Y006287D01*
X006889Y006189D02*
X005750Y006189D01*
X005750Y006090D02*
X006907Y006090D01*
X006925Y005992D02*
X005989Y005992D01*
X006171Y005893D02*
X006943Y005893D01*
X006961Y005795D02*
X006269Y005795D01*
X006333Y005696D02*
X006979Y005696D01*
X006997Y005598D02*
X006373Y005598D01*
X006403Y005499D02*
X007016Y005499D01*
X007034Y005401D02*
X006403Y005401D01*
X006403Y005302D02*
X007052Y005302D01*
X007070Y005204D02*
X006374Y005204D01*
X006333Y005105D02*
X007088Y005105D01*
X007106Y005007D02*
X006270Y005007D01*
X006172Y004908D02*
X007124Y004908D01*
X007142Y004810D02*
X005993Y004810D01*
X006009Y004711D02*
X007160Y004711D01*
X007178Y004613D02*
X006009Y004613D01*
X006036Y004514D02*
X007196Y004514D01*
X007214Y004416D02*
X006445Y004416D01*
X006643Y004317D02*
X007232Y004317D01*
X007250Y004219D02*
X006741Y004219D01*
X006840Y004120D02*
X007268Y004120D01*
X007286Y004022D02*
X006884Y004022D01*
X006924Y003923D02*
X007304Y003923D01*
X007323Y003825D02*
X006965Y003825D01*
X006970Y003726D02*
X007341Y003726D01*
X007359Y003628D02*
X006970Y003628D01*
X006970Y003529D02*
X007377Y003529D01*
X007395Y003431D02*
X006947Y003431D01*
X006906Y003332D02*
X007413Y003332D01*
X007431Y003234D02*
X006865Y003234D01*
X006795Y003135D02*
X007449Y003135D01*
X007467Y003037D02*
X006696Y003037D01*
X006574Y002938D02*
X007485Y002938D01*
X007503Y002840D02*
X006336Y002840D01*
X006158Y002741D02*
X007521Y002741D01*
X007539Y002643D02*
X006117Y002643D01*
X006044Y002544D02*
X007557Y002544D01*
X007575Y002446D02*
X005975Y002446D01*
X005975Y002347D02*
X007593Y002347D01*
X007611Y002249D02*
X005975Y002249D01*
X005939Y002150D02*
X007630Y002150D01*
X007637Y002051D02*
X005899Y002051D01*
X005858Y001953D02*
X007637Y001953D01*
X007637Y001854D02*
X005771Y001854D01*
X005673Y001756D02*
X007637Y001756D01*
X007637Y001657D02*
X005513Y001657D01*
X005448Y001559D02*
X005147Y001559D01*
X005852Y001559D02*
X007637Y001559D01*
X007637Y001460D02*
X006060Y001460D01*
X006158Y001362D02*
X007637Y001362D01*
X007637Y001263D02*
X006242Y001263D01*
X006283Y001165D02*
X007637Y001165D01*
X007637Y001066D02*
X006324Y001066D01*
X006336Y000968D02*
X007637Y000968D01*
X007637Y000869D02*
X006336Y000869D01*
X006336Y000771D02*
X007637Y000771D01*
X007637Y000672D02*
X006299Y000672D01*
X006383Y008947D02*
X004398Y008947D01*
X004300Y009045D02*
X006365Y009045D01*
X006347Y009144D02*
X004139Y009144D01*
X004135Y009341D02*
X004461Y009341D01*
X004358Y010917D02*
X004239Y010917D01*
X003363Y009242D02*
X006329Y009242D01*
X003165Y009341D02*
X001989Y009341D01*
D17*
X002150Y008150D03*
X003150Y011150D03*
X004150Y011150D03*
X005150Y011150D03*
X005150Y013150D03*
X004150Y013150D03*
X003150Y013150D03*
X006150Y008150D03*
X006150Y007650D03*
X007400Y001900D03*
X007400Y001150D03*
X006650Y001150D03*
X006150Y001650D03*
X002150Y001650D03*
X001650Y001150D03*
X000900Y001150D03*
X000900Y001900D03*
M02*
