G75*
G70*
%OFA0B0*%
%FSLAX24Y24*%
%IPPOS*%
%LPD*%
%AMOC8*
5,1,8,0,0,1.08239X$1,22.5*
%
%ADD10C,0.0671*%
%ADD11R,0.0690X0.0316*%
%ADD12R,0.0356X0.0513*%
%ADD13R,0.0395X0.0395*%
%ADD14R,0.0820X0.0820*%
%ADD15C,0.0820*%
%ADD16C,0.0830*%
%ADD17C,0.0437*%
%ADD18C,0.0397*%
%ADD19C,0.0476*%
D10*
X003400Y014331D03*
X004900Y014331D03*
D11*
X005213Y009081D03*
X005213Y008581D03*
X005213Y008081D03*
X005213Y007581D03*
X003087Y007581D03*
X003087Y008081D03*
X003087Y008581D03*
X003087Y009081D03*
D12*
X003320Y009831D03*
X003320Y010456D03*
X003855Y010456D03*
X003855Y009831D03*
X004445Y009831D03*
X004445Y010456D03*
X004980Y010456D03*
X004980Y009831D03*
X005570Y009831D03*
X005570Y010456D03*
X003945Y006831D03*
X003355Y006831D03*
X002730Y009831D03*
X002730Y010456D03*
D13*
X003707Y011331D03*
X004593Y011331D03*
X004355Y006831D03*
X004945Y006831D03*
D14*
X003150Y004581D03*
X002150Y005831D03*
X003650Y012331D03*
D15*
X004650Y012331D03*
X004150Y005831D03*
X005150Y005831D03*
X006150Y005831D03*
X003150Y005831D03*
D16*
X005150Y004581D03*
D17*
X005775Y007581D03*
X004150Y008831D03*
X003150Y010956D03*
X002525Y008956D03*
D18*
X005400Y006831D03*
D19*
X000900Y003456D03*
X001025Y004831D03*
X002150Y003831D03*
X002900Y003456D03*
X001525Y007331D03*
X002025Y010331D03*
X002400Y012331D03*
X003150Y013331D03*
X004150Y013331D03*
X005150Y013331D03*
X005900Y012331D03*
X006150Y010331D03*
X006150Y009831D03*
X006525Y008831D03*
X007275Y004831D03*
X007400Y003456D03*
X006150Y003831D03*
X005400Y003456D03*
X005150Y015331D03*
X004150Y015331D03*
X003150Y015331D03*
M02*
